<!DOCTYPE svg PUBLIC "-//W3C//DTD SVG 1.1//EN" "http://www.w3.org/Graphics/SVG/1.1/DTD/svg11.dtd">
<!-- Uploaded to: SVG Repo, www.svgrepo.com, Transformed by: SVG Repo Mixer Tools -->
<svg width="800px" height="800px" viewBox="-2.4 -2.4 28.80 28.80" fill="none" xmlns="http://www.w3.org/2000/svg">
<g id="SVGRepo_bgCarrier" stroke-width="0">
<path transform="translate(-2.4, -2.4), scale(0.8999999999999999)" d="M16,30.26801370510033C20.166816291630838,30.190703484456407,23.726883691128513,27.485686931724842,26.157801357056247,24.100576271805927C28.42794347726702,20.93934938273166,29.004050427412764,17.022022064536564,28.25479261460606,13.202923555711564C27.470458085284942,9.205032869554614,25.74778602529522,5.148177856709388,22.088286173088623,3.3575434931259736C18.407697422004986,1.556590094552956,14.210409031024652,2.8454775321702073,10.459785964630399,4.495627013964652C6.483470650106099,6.245073583124069,2.162972057384555,8.387363909561444,1.0888052380535616,12.596617100225137C-0.006697608497110208,16.889478105833668,2.5011154585467286,21.100430046159676,5.358283026828184,24.48648609812272C8.097312318898972,27.732535372194114,11.7534826446138,30.34680268228,16,30.26801370510033" fill="#f4f5f6" strokewidth="0"/>
</g>
<g id="SVGRepo_tracerCarrier" stroke-linecap="round" stroke-linejoin="round"/>
<g id="SVGRepo_iconCarrier"> <path fill-rule="evenodd" clip-rule="evenodd" d="M11.9848 15.3462C8.11719 15.3462 4.81433 15.931 4.81433 18.2729C4.81433 20.6148 8.09624 21.2205 11.9848 21.2205C15.8524 21.2205 19.1543 20.6348 19.1543 18.2938C19.1543 15.9529 15.8734 15.3462 11.9848 15.3462Z" stroke="#4e3c96" stroke-width="0.696" stroke-linecap="round" stroke-linejoin="round"/> <path opacity="0.4" fill-rule="evenodd" clip-rule="evenodd" d="M11.9848 12.0059C14.5229 12.0059 16.58 9.94779 16.58 7.40969C16.58 4.8716 14.5229 2.81445 11.9848 2.81445C9.44667 2.81445 7.38858 4.8716 7.38858 7.40969C7.38001 9.93922 9.42382 11.9973 11.9524 12.0059H11.9848Z" stroke="#4e3c96" stroke-width="0.696" stroke-linecap="round" stroke-linejoin="round"/> </g>
</svg>