<svg xmlns="http://www.w3.org/2000/svg" viewBox="0 0 500 500"><g id="freepik--background-complete--inject-69"><rect y="382.4" width="500" height="0.25" style="fill:#ebebeb"></rect><rect x="416.78" y="398.49" width="33.12" height="0.25" style="fill:#ebebeb"></rect><rect x="322.53" y="401.21" width="8.69" height="0.25" style="fill:#ebebeb"></rect><rect x="396.59" y="389.21" width="19.19" height="0.25" style="fill:#ebebeb"></rect><rect x="52.46" y="390.89" width="43.19" height="0.25" style="fill:#ebebeb"></rect><rect x="104.56" y="390.89" width="6.33" height="0.25" style="fill:#ebebeb"></rect><rect x="131.47" y="395.11" width="93.68" height="0.25" style="fill:#ebebeb"></rect><path d="M237,337.8H43.91a5.71,5.71,0,0,1-5.7-5.71V60.66A5.71,5.71,0,0,1,43.91,55H237a5.71,5.71,0,0,1,5.71,5.71V332.09A5.71,5.71,0,0,1,237,337.8ZM43.91,55.2a5.46,5.46,0,0,0-5.45,5.46V332.09a5.46,5.46,0,0,0,5.45,5.46H237a5.47,5.47,0,0,0,5.46-5.46V60.66A5.47,5.47,0,0,0,237,55.2Z" style="fill:#ebebeb"></path><path d="M453.31,337.8H260.21a5.72,5.72,0,0,1-5.71-5.71V60.66A5.72,5.72,0,0,1,260.21,55h193.1A5.71,5.71,0,0,1,459,60.66V332.09A5.71,5.71,0,0,1,453.31,337.8ZM260.21,55.2a5.47,5.47,0,0,0-5.46,5.46V332.09a5.47,5.47,0,0,0,5.46,5.46h193.1a5.47,5.47,0,0,0,5.46-5.46V60.66a5.47,5.47,0,0,0-5.46-5.46Z" style="fill:#ebebeb"></path><path d="M362.47,382.05H51.75s9.58-14.76,17.57-26.59c5.06-7.48,9.47-13.8,10.42-14.48,2.45-1.75,8.75-2.8,11.55-9.29s2.8-9.26,6.8-16.6,19.45-27.3,21.07-27.25S134.68,266.1,140,264.35s5.86-7,11.57-14.87,24.74-33.07,32.79-33.66,27.75,37.31,35.37,40.13,16.07-9.45,18.76-6.47,8.16,14.17,13.71,23.27,11.16,13.29,11.66,16.73S275.69,299,281.34,299c1.9,0,6,4.24,10.69,9.87l0,0c9.08,11,20.08,27.2,20.08,27.2,1.51,2.18,4.15-1.06,8.69.69S362.47,382.05,362.47,382.05Z" style="fill:#f0f0f0"></path><path d="M362.47,382.05H51.75s9.58-14.76,17.57-26.59c4.63-5.11,8.35-8.93,9.76-9.74,5.07-2.88,9-9.55,12.06-10.39a24.54,24.54,0,0,0,6.68-3.64s4.74-14.84,5.89-17.46,15.4-18.94,18.6-20.09,5.28,2.69,7.19,4.79S146,327.24,146,327.24l9.27-6.16s5.39-6.93,7.45-10.39,4-2.7,4-2.7,9.7-11.16,10.2-14.17,6.42-1.61,6.85-1.61,10,4.62,10,4.62-10.1-12.7-14.36-9.27-28.45,26.67-28.45,26.67l-13.79-17.4,6.47-9.27s8.86-11.13,9.63-12.67,15.78-22.71,16-23.87,12.86-11.16,14.44-10.4,5,3.09,8.75,8.11,5.45,8.07,9.4,14.54,7.21,8.15,8.52,9.78,15.71,17.13,16.16,17.61l-10.95-17.61s5.42-5.09,8.92-8.55,4.59,1.15,9.18,4.62,5.41,5.77,8.87,11.1,19.88,24.31,19.88,24.31-2.55,4.23-5.32,8.52-4.62,11.23-4.62,11.23l4.83-2.81s10.26-10,12.05-12.58,6.68-7.44,10.94-7.06,11.09,6.59,11.59,7l0,0c9.08,11,20.08,27.2,20.08,27.2,1.51,2.18,4.15-1.06,8.69.69S362.47,382.05,362.47,382.05Z" style="fill:#e6e6e6"></path><path d="M191.67,145A8.81,8.81,0,0,1,203,136.58a20.07,20.07,0,0,1-.19-2.7,18.62,18.62,0,0,1,22.11-18.35,16.31,16.31,0,0,1,30.26,8.25l.27,0a15,15,0,0,1,0,30.08H200.23A8.8,8.8,0,0,1,191.67,145Z" style="fill:#ebebeb"></path><path d="M78.91,125.32a5.63,5.63,0,0,1,5.63-5.63,5.77,5.77,0,0,1,1.62.24A12.25,12.25,0,0,1,86,118.2,11.92,11.92,0,0,1,98,106.28a11.4,11.4,0,0,1,2.2.21,10.42,10.42,0,0,1,19.32,5.26h.17a9.61,9.61,0,1,1,0,19.21H84.38A5.62,5.62,0,0,1,78.91,125.32Z" style="fill:#ebebeb"></path><path d="M308.57,175.2a3.45,3.45,0,0,1,3.45-3.45,3.21,3.21,0,0,1,1,.15,7.45,7.45,0,0,1-.08-1.06,7.28,7.28,0,0,1,8.65-7.18,6.38,6.38,0,0,1,11.84,3.23h.1a5.89,5.89,0,1,1,0,11.77h-21.6A3.45,3.45,0,0,1,308.57,175.2Z" style="fill:#ebebeb"></path><path d="M393.05,124.68a3.46,3.46,0,0,1,3.45-3.45,3.54,3.54,0,0,1,1,.15,7.45,7.45,0,0,1-.07-1.06,7.32,7.32,0,0,1,8.64-7.18,6.39,6.39,0,0,1,11.84,3.23h.1a5.89,5.89,0,1,1,0,11.77H396.41A3.47,3.47,0,0,1,393.05,124.68Z" style="fill:#ebebeb"></path><path d="M443.89,382.05H119.17s10.26-22.88,15.5-20.68,21.82-11.53,24.21-17.06,10.68,1.81,21.87-.53,27.53-38.25,32.57-36.4,19.68,35.46,23.16,36.71,6.79-9.64,11.63-10.58,8.69,7.47,9.62,9.8,5.64,9.8,5.64,9.8,7.43-2.33,9.78-4.2,14-25.19,16.43-28.51,7.35-6,14.74-4.61,10.33-11.67,18.51-19.63,12.35-5.1,15.19-5.49,18.16-26.2,21.89-24,20.52,33.74,23.55,37.47,10-2.33,10.87,0,13.84,20.53,13.84,20.53,5.86-.47,9.38,2.33c.59.47,1.73,2.35,3.22,5.14l.3.57C428.53,346.88,443.89,382.05,443.89,382.05Z" style="fill:#ebebeb"></path><path d="M443.89,382.05H288.44c-4.66-6.8-12.29-18.13-12-18.92.34-1.15,14.69-29.49,21.52-33.35s11.93-.7,11.93-.7l-5.52,15c.41-.53,13.41-17.28,16.86-19.79s2.24-4.66,1.64-5.71-8.22,1.67-8.63,1.81c.59-.61,15.79-16,18.53-17.46s8.33-1.49,8.33-1.49S351.27,288,354.77,283s12.42,2.41,14.09,8.16,7.61,11.71,7.61,11.71l4.2,11.89s-12.77-9.44-15.13-8.74a53.69,53.69,0,0,1-7.88,1.05s-2.53-7.35-5.68-8.4-9.8,3.85-14.7,10.49c-6.17,8.38,8.4-9.44,15.4,0s8.17,6.3,11.78,3.85,16.2,17.15,19,19.95,8.23-6.64,8.23-6.64-5.42,4.9-4.72,1.39,1-15.9,6.23-16.44,10.53,14.69,10.53,14.69l-5.56,7.52,15-6.12,7.56,4.79.3.57C428.53,346.88,443.89,382.05,443.89,382.05Z" style="fill:#e0e0e0"></path><path d="M124.12,382.05c2-3.42,3.78-6.76,3.37-7.36-.89-1.28,8.94-5.36,11.12-6.67s4.46-2.2,10.11-1.87,3.8.73,5.3,1.87,1.78,9.31,1.78,9.31,3-5.55,3.08-9.31-4.86-6.65-4.86-6.65,1.3-2.2,2.45-3.76S163,348,166.52,346.93s9.79,1.75,12.6,3.49,2.79,1.76,5.24,3.15,1.75,2.81,2.81,7.8,2.79-.45,5.84,1.76,6.26,7.13,6.26,7.13-.9-6.19-3.1-8.89-3.16-9.89-3.16-9.89l3.16-7.39s7.1-12.21,11.33-17.8,4.16-3.15,9.13,1.75,4.48,4.19,7.34,9.92,12.08,19.65,12.08,19.65l-.28-5.43s6.33-6.65,9.13-4.55,4.9,6.65,4.9,6.65l-3.17,3.33s-3.83,7.51-5.45,8.54,4.07-1.38,8.62-3,8.05-7.45,10.85-5.52c2,1.4,14.21,16.39,20.68,24.44Z" style="fill:#e0e0e0"></path></g><g id="freepik--Shadow--inject-69"><ellipse id="freepik--path--inject-69" cx="250" cy="416.24" rx="193.89" ry="11.32" style="fill:#f5f5f5"></ellipse></g><g id="freepik--Sign--inject-69"><rect x="82.23" y="208.3" width="3.45" height="208.1" style="fill:#263238"></rect><circle cx="83.95" cy="202.26" r="17.95" transform="translate(-132.18 237.5) rotate(-76.72)" style="fill:#407BFF"></circle><circle cx="83.95" cy="202.26" r="17.95" transform="translate(-132.18 237.5) rotate(-76.72)" style="fill:#fff;opacity:0.30000000000000004"></circle><path d="M84.67,196.5H80.74v7.19h3.93c3,0,4.48-1.32,4.48-3.59S87.62,196.5,84.67,196.5Z" style="fill:#fff;opacity:0.7000000000000001"></path><path d="M84,186.16a16.1,16.1,0,1,0,16.11,16.1A16.1,16.1,0,0,0,84,186.16Zm.88,20.38H80.74v5.23H77.37V193.65h7.46c4.76,0,7.71,2.44,7.71,6.45S89.59,206.54,84.83,206.54Z" style="fill:#fff;opacity:0.7000000000000001"></path><polygon points="82.23 235.92 82.23 416.39 85.68 416.39 85.68 238.93 82.23 235.92" style="fill:#fff;opacity:0.4"></polygon></g><g id="freepik--Character--inject-69"><path d="M135.18,251.05a41.53,41.53,0,0,1-1-16.71c1.49-8.31,6.35-10.78,10.89-11.37s8.51,2.57,8.51,2.57,5.43.79,7.8,4.05,2.33,15.17-5.31,22C156.08,251.61,143.19,250.16,135.18,251.05Z" style="fill:#407BFF"></path><path d="M135.18,251.05a41.53,41.53,0,0,1-1-16.71c1.49-8.31,6.35-10.78,10.89-11.37s8.51,2.57,8.51,2.57,5.43.79,7.8,4.05,2.33,15.17-5.31,22C156.08,251.61,143.19,250.16,135.18,251.05Z" style="opacity:0.4"></path><path d="M120.14,336.33c25.77-22,33.28-38.61,33.28-38.61l-19.78-9.22S108,320.69,104.83,334.4a13.09,13.09,0,0,0-.16,3.9c2.44,13.93,39.21,43.09,39.21,43.09.89.47,3.45-4.15,3.46-5.25C137.23,362.78,128.67,342.34,120.14,336.33Z" style="fill:#263238"></path><path d="M143.07,370c1.4,2.15,2.82,4.22,4.27,6.14,0,1.1-2.57,5.72-3.46,5.25,0,0-1-.77-2.6-2.11-2.41-2-6.27-5.24-10.61-9.15-10.81-9.72-24.54-23.5-26-31.83a13.09,13.09,0,0,1,.16-3.9c3.12-13.71,28.81-45.9,28.81-45.9l19.78,9.22S151,303.18,144,312a157.21,157.21,0,0,1-13,14.38c-3.2,3.16-6.8,6.49-10.86,10,5.17,3.64,10.35,12.57,15.87,22C138.3,362.26,140.65,366.26,143.07,370Z" style="fill:#fff;opacity:0.4"></path><path d="M144,312a157.21,157.21,0,0,1-13,14.38A41.83,41.83,0,0,1,142,306.55,16.62,16.62,0,0,1,144,312Z" style="opacity:0.2"></path><path d="M143.07,370a30.29,30.29,0,0,1-1.79,9.28c-2.41-2-6.27-5.24-10.61-9.15A64.78,64.78,0,0,1,136,358.35C138.3,362.26,140.65,366.26,143.07,370Z" style="opacity:0.2"></path><path d="M137.77,266.17a181.29,181.29,0,0,1-7.47,24.05c-1.74,3.88-3.81,7.54-5.86,11.21s-4.19,7.14-6.48,10.62a2.18,2.18,0,0,1-3.87-1.93c2.31-6.61,5.18-13.58,7.76-20.1,1.88-4.6,2.91-9.24,4.31-14.19,1-3.94,2.08-7.92,3.16-11.84a4.36,4.36,0,0,1,8.45,2.18Z" style="fill:#e9b376"></path><path d="M139.94,256.35c-5-1.42-10.1,2.62-12.51,11.39l5.6,4.86S141.89,262.46,139.94,256.35Z" style="fill:#263238"></path><path d="M126.15,417.17c4.64,0,5.25-.07,7.86-.16,2.23-.08,2.76.2,4.56.16,1.49,0,1.44-1.47,1-3.12-.23-.83-.59-2.58-.91-3.92l-6.79-.49c-1,1.83-3.12,4.43-5.73,4.78S124.3,417.17,126.15,417.17Z" style="fill:#407BFF"></path><path d="M149.59,389.83a46.32,46.32,0,0,0-.39-10.76c-.24-2.19.24-2,.07-4.24a2.13,2.13,0,0,0-3-1.6,19.4,19.4,0,0,1-3.29,1.53l-1.2,5.62c2.08,1.07,5.32,6.42,5.2,9.89C146.88,392.76,149.41,391.64,149.59,389.83Z" style="fill:#407BFF"></path><polygon points="126.9 266.41 134.19 273.5 133.19 274.69 125.49 268.86 126.9 266.41" style="fill:#407BFF"></polygon><polygon points="126.9 266.41 134.19 273.5 133.19 274.69 125.49 268.86 126.9 266.41" style="fill:#fff;opacity:0.5"></polygon><path d="M136.86,289.84s-.34,38.7-.05,57.38c.3,19.62-3.59,50.5-6.07,63,1,.78,4.95.88,7.17.51,0,0,18.44-39.45,11.71-59.77,12.2-43.61,4.94-55.71,4.94-55.71Z" style="fill:#263238"></path><g style="opacity:0.4"><path d="M136.86,289.84s-.34,38.7-.05,57.38c.3,19.62-3.59,50.5-6.07,63,1,.78,4.95.88,7.17.51,0,0,18.44-39.45,11.71-59.77,12.2-43.61,4.94-55.71,4.94-55.71Z" style="fill:#fff"></path></g><path d="M161.36,264.09c-.06.22-.12.43-.19.62q-1.06,3-1.92,5.64c-3.9,11.94-4.9,18.78-4.86,24.95l-25-1.6c-.2-8.18-.23-13.08-.1-18.06a73.82,73.82,0,0,1,.69-10.19,11.5,11.5,0,0,1,6.06-8.95,5.09,5.09,0,0,1,.89-.34,6,6,0,0,1,1.52-.31c1.23-.09,2.51-.16,3.76-.19,2.69-.07,10-1.37,14-2.06,1.53-.27,2.55-.45,2.61-.43C161.94,254,162.33,260.51,161.36,264.09Z" style="fill:#263238"></path><path d="M153.59,243.56c-1.22,3.58-2.86,10.19-.65,12.78,0,0-3.42-.74-11.05,3.33-1.93-3.18-.29-4.05-.29-4.05,4.2-.71,4.52-3.72,4.2-6.59Z" style="fill:#ebb376"></path><path d="M150.41,245.79,145.8,249a10.53,10.53,0,0,1,.07,2c1.59-.12,4-1.68,4.35-3.29A5.38,5.38,0,0,0,150.41,245.79Z" style="opacity:0.2"></path><path d="M157.17,236.43c-1.48,5.82-2,8.31-5.53,10.92-5.33,3.93-12.14,1.24-12.42-4.81-.25-5.45,2.22-14.06,8.42-15.62A7.7,7.7,0,0,1,157.17,236.43Z" style="fill:#ebb376"></path><path d="M149.58,236.93c-.1.49-.44.86-.76.81s-.49-.48-.39-1,.45-.86.76-.82S149.69,236.43,149.58,236.93Z" style="fill:#263238"></path><path d="M143.42,235.88c-.1.5-.45.86-.76.82s-.5-.48-.39-1,.44-.86.76-.81S143.52,235.39,143.42,235.88Z" style="fill:#263238"></path><path d="M143.17,235l-1.1-.51S142.47,235.46,143.17,235Z" style="fill:#263238"></path><path d="M145.08,237.23a14.87,14.87,0,0,1-2.39,2.91,2,2,0,0,0,1.66.57Z" style="fill:#d58745"></path><path d="M146.77,242.93a4.71,4.71,0,0,1-.83,0,.15.15,0,0,1-.12-.17.16.16,0,0,1,.18-.12,4.24,4.24,0,0,0,3.46-1.1.14.14,0,0,1,.2,0,.14.14,0,0,1,0,.21A4.36,4.36,0,0,1,146.77,242.93Z" style="fill:#263238"></path><path d="M151.14,234a.32.32,0,0,1-.2-.1,2.16,2.16,0,0,0-1.86-.86.27.27,0,0,1-.31-.25.32.32,0,0,1,.28-.33,2.73,2.73,0,0,1,2.36,1.05.3.3,0,0,1-.06.42A.31.31,0,0,1,151.14,234Z" style="fill:#263238"></path><path d="M141.56,232.28a.28.28,0,0,1-.21-.48,3.09,3.09,0,0,1,2.49-1.12.27.27,0,0,1,.24.32.32.32,0,0,1-.34.26,2.45,2.45,0,0,0-2,.91A.29.29,0,0,1,141.56,232.28Z" style="fill:#263238"></path><path d="M149.33,236l-1.1-.5S148.64,236.51,149.33,236Z" style="fill:#263238"></path><path d="M150.12,228.9s1.87,10,4.4,11.82,6.08-6.18,6-9.24-6.91-5.25-6.91-5.25-1.77-4-8.51-1-8.68,8.61-5.88,14.74C139.2,240,139.2,226.65,150.12,228.9Z" style="fill:#407BFF"></path><path d="M150.12,228.9s1.87,10,4.4,11.82,6.08-6.18,6-9.24-6.91-5.25-6.91-5.25-1.77-4-8.51-1-8.68,8.61-5.88,14.74C139.2,240,139.2,226.65,150.12,228.9Z" style="opacity:0.4"></path><path d="M158.19,241.53a4.85,4.85,0,0,1-3.23,1.78c-1.62.14-2-1.51-1.26-3s2.41-3,3.88-2.47S159.21,240.27,158.19,241.53Z" style="fill:#ebb376"></path><path d="M115.35,307.07l-4.93,6.4,6.21,3.36s4.07-4,2.23-8.31Z" style="fill:#ebb376"></path><polygon points="109.46 319.13 114.69 320.53 116.63 316.82 110.42 313.46 109.46 319.13" style="fill:#ebb376"></polygon><path d="M156.23,253.6c-.92,1.49-5.87,8.8-14.29,7.69-6.52-.86-6.71-3.36-5-5.13a6,6,0,0,1,1.52-.31c1.23-.09,2.51-.16,3.76-.19C144.92,255.59,152.27,254.29,156.23,253.6Z" style="fill:#ebb376"></path><path d="M161.36,264.09c-.06.22-.12.43-.19.62q-1.06,3-1.92,5.64a13.33,13.33,0,0,1-1.81-4.33s2.47-3.89,3.07-3.69A5.07,5.07,0,0,1,161.36,264.09Z" style="opacity:0.5"></path><path d="M159,291.57l-.75-1.71a2.14,2.14,0,0,1,.12-2l1.68-2.82a4,4,0,0,1,3.15-2L164,283c1.45,2.75,1,6.79,1,6.79V291a1.8,1.8,0,0,1-1.78,1.85l-2.31,0A2.08,2.08,0,0,1,159,291.57Z" style="fill:#ebb376"></path><path d="M166.13,256.76A38.34,38.34,0,0,1,179,265.91a29.9,29.9,0,0,1,3.38,4.52,5.76,5.76,0,0,1,.38,4.5c-2.37,6.53-13.39,11.11-19.46,13.52a2.19,2.19,0,0,1-2-3.83c3-2.1,6.1-4.29,8.93-6.57,1.85-1.54,3.87-3.14,5-5,.1-.2.13-.35.07-.25a1.71,1.71,0,0,0,.05,1.13l.38.74c-3.4-4.29-8.17-7.42-13-9.88a4.37,4.37,0,0,1,3.45-8Z" style="fill:#e9b376"></path><path d="M154.52,254.77c4.2-3,8.48-1.73,15.8,3.23.44,3.38-3.82,9.74-3.82,9.74L157.44,266S154.62,257.53,154.52,254.77Z" style="fill:#263238"></path><polygon points="165.51 268.25 170.08 256.89 171.85 258.18 166.83 268.86 165.51 268.25" style="fill:#407BFF"></polygon><polygon points="165.51 268.25 170.08 256.89 171.85 258.18 166.83 268.86 165.51 268.25" style="fill:#fff;opacity:0.5"></polygon><polygon points="129.36 291.83 128.4 295.3 155.39 297.38 154.41 293.49 129.36 291.83" style="fill:#263238"></polygon><polygon points="129.36 291.83 128.4 295.3 155.39 297.38 154.41 293.49 129.36 291.83" style="fill:#fff;opacity:0.4"></polygon><path d="M137.28,294.36a.68.68,0,0,1-1.36,0,.68.68,0,0,1,1.36,0Z" style="fill:#fff"></path><path d="M129.89,295.41,151,297S135.55,296.72,129.89,295.41Z" style="opacity:0.1"></path><polygon points="134.77 295.79 135.13 292.84 136.32 292.64 135.55 293.19 135.18 295.79 134.77 295.79" style="opacity:0.1"></polygon><path d="M144.6,293.61l-.27,2.91h.55S145.05,294.2,144.6,293.61Z" style="opacity:0.1"></path><path d="M151.47,297v-2.68A3.43,3.43,0,0,1,151.47,297Z" style="opacity:0.1"></path><path d="M129.89,295.41l.52-2.77A3.38,3.38,0,0,0,129.89,295.41Z" style="opacity:0.1"></path></g><g id="freepik--Car--inject-69"><path d="M174.47,258v4.59a1,1,0,0,0,0,.17,3.75,3.75,0,0,0,3.27,3.55l20.09,2.58V252.56l-19.93,1.7a3.77,3.77,0,0,0-3.37,3A3.64,3.64,0,0,0,174.47,258Z" style="fill:#263238"></path><path d="M174.47,258v4.59a1,1,0,0,0,0,.17H184a1.69,1.69,0,0,0,1.68-1.68v-2.14a1.68,1.68,0,0,0-1.68-1.68h-9.48A3.64,3.64,0,0,0,174.47,258Z" style="fill:#fff;opacity:0.4"></path><path d="M405,258v4.59a1,1,0,0,1,0,.17,3.75,3.75,0,0,1-3.27,3.55l-20.09,2.58V252.56l19.93,1.7a3.77,3.77,0,0,1,3.37,3A3.64,3.64,0,0,1,405,258Z" style="fill:#263238"></path><path d="M405,258v4.59a1,1,0,0,1,0,.17h-9.54a1.69,1.69,0,0,1-1.68-1.68v-2.14a1.68,1.68,0,0,1,1.68-1.68h9.48A3.64,3.64,0,0,1,405,258Z" style="fill:#fff;opacity:0.4"></path><path d="M189.64,271l.93-3.5c9.27-34.87,21.23-58.84,21.35-59.08l.37-.73.7-.41c.68-.41,17.3-9.9,76.73-9.9s76,9.49,76.73,9.9l.7.41.36.73c.12.24,12.08,24.21,21.35,59.08l.93,3.5Z" style="fill:#407BFF"></path><path d="M189.64,271l.93-3.5c9.27-34.87,21.23-58.84,21.35-59.08l.37-.73.7-.41c.68-.41,17.3-9.9,76.73-9.9s76,9.49,76.73,9.9l.7.41.36.73c.12.24,12.08,24.21,21.35,59.08l.93,3.5Z" style="opacity:0.2"></path><path d="M364.79,213.7s-5.56-15.49-8.73-18.39l-4.53-.88a1.51,1.51,0,0,0-1.77,1.79l2.87,13.46,6.11,8Z" style="fill:#263238"></path><path d="M214.64,213.7s5.57-15.49,8.73-18.39l4.54-.88a1.5,1.5,0,0,1,1.76,1.79l-2.86,13.46-6.11,8Z" style="fill:#263238"></path><path d="M386.16,272.25H193.27c9.3-35,21.15-58.55,21.15-58.55s15.51-9.23,72.79-9.48c.82,0,1.66,0,2.51,0,5.42,0,10.49.09,15.2.23,9.74.29,18,.86,25,1.59a168.29,168.29,0,0,1,25.14,4.22c1.48.38,2.75.74,3.87,1.09a32.87,32.87,0,0,1,6,2.37S376.86,237.26,386.16,272.25Z" style="fill:#263238"></path><path d="M287.21,204.22l-66,68h-28c9.3-35,21.15-58.55,21.15-58.55S229.93,204.47,287.21,204.22Z" style="fill:#fff;opacity:0.2"></path><path d="M330,206l-60.79,66.23H240.48l64.44-67.82C314.66,204.72,322.94,205.29,330,206Z" style="fill:#fff;opacity:0.2"></path><path d="M359,211.33l-50.19,60.92h-5.94l52.26-62C356.58,210.62,357.85,211,359,211.33Z" style="fill:#fff;opacity:0.2"></path><path d="M386.16,272.25H193.27c9.3-35,21.15-58.55,21.15-58.55s15.51-9.23,72.79-9.48c.82,0,1.66,0,2.51,0,5.42,0,10.49.09,15.2.23,9.74.29,18,.86,25,1.59a168.29,168.29,0,0,1,25.14,4.22c1.48.38,2.75.74,3.87,1.09a32.87,32.87,0,0,1,6,2.37S376.86,237.26,386.16,272.25Z" style="fill:#fff;opacity:0.4"></path><path d="M378.47,268.16a7.68,7.68,0,0,0-7-6.11q-46.19-2.3-92.47-2c-.49-1-1-2-1.48-2.95a7.8,7.8,0,0,0-7-4.54q-5.82.09-11.64.24a13.94,13.94,0,0,0-12.44-6.3A15.72,15.72,0,0,0,234,253.7q-5.81.27-11.63.6a8.63,8.63,0,0,0-7,4.68c-.49.93-1,1.86-1.48,2.79l-5.91.28a7.68,7.68,0,0,0-7,6.11q-1.29,6.33-2.58,12.57H381.05Q379.76,274.49,378.47,268.16ZM246.42,249.6a11.64,11.64,0,0,1,8.74,3.31q-8.74.24-17.47.63A12.83,12.83,0,0,1,246.42,249.6Z" style="opacity:0.2"></path><path d="M373.78,372.57a7.38,7.38,0,0,0-1.76-2.38v-27H362v27a7.53,7.53,0,0,0-1.76,2.38H323.67V369.4H311.75v-3.7h-7.81a17.39,17.39,0,0,0-28.45,0h-7.81v3.7H255.76v3.17H219.22a7.68,7.68,0,0,0-1.76-2.38v-27h-10v27a7.38,7.38,0,0,0-1.76,2.38h-6.73v6.3h6.73a7.47,7.47,0,0,0,13.56,0h36.54V382h11.92v3.7h7.81a17.39,17.39,0,0,0,28.45,0h7.81V382h11.92v-3.17h36.55a7.47,7.47,0,0,0,13.56,0h6.73v-6.3Z"></path><path d="M205.79,323.22v86.66a7.25,7.25,0,0,1-7.15,7.35H156.46a7.25,7.25,0,0,1-7.15-7.35V323.22a7.25,7.25,0,0,1,7.15-7.33h42.18A7.25,7.25,0,0,1,205.79,323.22Z" style="fill:#263238"></path><path d="M202.27,323.22v86.66c0,4.06.32,7.35-3.63,7.35H156.46c-4,0-3.63-3.29-3.63-7.35V323.22c0-4-.32-7.33,3.63-7.33h42.18C202.59,315.89,202.27,319.18,202.27,323.22Z" style="fill:#fff;opacity:0.1"></path><path d="M160.83,413.22a.62.62,0,0,0,0,.84l3.09,3.17h1.65l-3.9-4A.58.58,0,0,0,160.83,413.22Z" style="fill:#263238"></path><path d="M193.44,405.58l-11.35,11.65h1.67l10.51-10.81a.58.58,0,0,0,0-.84A.55.55,0,0,0,193.44,405.58Z" style="fill:#263238"></path><path d="M194.27,344.43a.57.57,0,0,0-.83,0l-12.17,12.49-6.61-6.78L194.27,330a.6.6,0,0,0,0-.86.57.57,0,0,0-.83,0l-12.17,12.5-6.61-6.79,18.46-19h-1.66l-10.19,10.46-6.61-6.79,3.58-3.67h-1.67l-2.74,2.82-2.74-2.82h-1.67l11,11.32L173.83,334,161.67,321.5a.58.58,0,0,0-.84,0,.64.64,0,0,0,0,.86l19.61,20.13-6.61,6.79-12.16-12.49a.58.58,0,0,0-.84,0,.63.63,0,0,0,0,.85l19.61,20.14-6.61,6.79-12.16-12.5a.58.58,0,0,0-.84,0,.64.64,0,0,0,0,.86l19.61,20.14-6.61,6.78-12.16-12.49a.58.58,0,0,0-.84,0,.63.63,0,0,0,0,.85l19.61,20.14-6.61,6.79-12.16-12.49a.58.58,0,0,0-.84,0,.62.62,0,0,0,0,.84l19.61,20.15-6.61,6.79-12.16-12.5a.58.58,0,0,0-.84,0,.62.62,0,0,0,0,.84l18,18.46h1.66l-5.79-6,19.61-20.15a.58.58,0,0,0,0-.84.57.57,0,0,0-.83,0l-12.17,12.49L174.66,396l19.61-20.14a.59.59,0,0,0,0-.85.57.57,0,0,0-.83,0l-12.17,12.5-6.61-6.79,19.61-20.15a.58.58,0,0,0,0-.84.57.57,0,0,0-.83,0l-12.17,12.49-6.61-6.79,19.61-20.14A.59.59,0,0,0,194.27,344.43Z" style="fill:#263238"></path><path d="M373.64,323.22v86.66a7.25,7.25,0,0,0,7.15,7.35H423a7.25,7.25,0,0,0,7.15-7.35V323.22a7.25,7.25,0,0,0-7.15-7.33H380.79A7.25,7.25,0,0,0,373.64,323.22Z" style="fill:#263238"></path><path d="M377.16,323.22v86.66c0,4.06-.32,7.35,3.63,7.35H423c3.95,0,3.63-3.29,3.63-7.35V323.22c0-4,.32-7.33-3.63-7.33H380.79C376.84,315.89,377.16,319.18,377.16,323.22Z" style="fill:#fff;opacity:0.1"></path><path d="M418.6,413.22a.6.6,0,0,1,0,.84l-3.08,3.17h-1.65l3.9-4A.57.57,0,0,1,418.6,413.22Z" style="fill:#263238"></path><path d="M386,405.58l11.34,11.65h-1.66l-10.52-10.81a.6.6,0,0,1,0-.84A.56.56,0,0,1,386,405.58Z" style="fill:#263238"></path><path d="M385.16,344.43a.58.58,0,0,1,.84,0l12.16,12.49,6.61-6.78L385.16,330a.62.62,0,0,1,0-.86.58.58,0,0,1,.84,0l12.16,12.5,6.61-6.79-18.46-19H388l10.18,10.46,6.61-6.79-3.57-3.67h1.66l2.74,2.82,2.75-2.82H410l-11,11.32L405.6,334l12.17-12.49a.57.57,0,0,1,.83,0,.62.62,0,0,1,0,.86L399,342.49l6.61,6.79,12.17-12.49a.57.57,0,0,1,.83,0,.61.61,0,0,1,0,.85L399,357.78l6.61,6.79,12.17-12.5a.57.57,0,0,1,.83,0,.62.62,0,0,1,0,.86L399,373.07l6.61,6.78,12.17-12.49a.57.57,0,0,1,.83,0,.61.61,0,0,1,0,.85L399,388.35l6.61,6.79,12.17-12.49a.57.57,0,0,1,.83,0,.6.6,0,0,1,0,.84L399,403.64l6.61,6.79,12.17-12.5a.57.57,0,0,1,.83,0,.6.6,0,0,1,0,.84l-18,18.46H399l5.79-6-19.61-20.15a.6.6,0,0,1,0-.84.58.58,0,0,1,.84,0l12.16,12.49,6.61-6.79-19.61-20.14a.61.61,0,0,1,0-.85.58.58,0,0,1,.84,0l12.16,12.5,6.61-6.79-19.61-20.15a.6.6,0,0,1,0-.84.58.58,0,0,1,.84,0l12.16,12.49,6.61-6.79-19.61-20.14A.61.61,0,0,1,385.16,344.43Z" style="fill:#263238"></path><path d="M177.91,283l-21.86,10a5,5,0,0,0-3,4.59V339.4a5,5,0,0,0,3.65,4.85l15.66,4.52Z" style="fill:#407BFF"></path><path d="M177.91,283l-21.86,10a5,5,0,0,0-3,4.59V339.4a5,5,0,0,0,3.65,4.85l15.66,4.52Z" style="opacity:0.1"></path><polygon points="171.41 289.98 170.52 289.98 170.08 290.74 170.52 291.51 171.41 291.51 171.85 290.74 171.41 289.98" style="fill:#fff;opacity:0.4"></polygon><polygon points="168.82 306.41 167.94 306.41 167.49 307.18 167.94 307.94 168.82 307.94 169.26 307.18 168.82 306.41" style="fill:#fff;opacity:0.4"></polygon><polygon points="166.23 322.85 165.35 322.85 164.91 323.61 165.35 324.38 166.23 324.38 166.67 323.61 166.23 322.85" style="fill:#fff;opacity:0.4"></polygon><polygon points="163.64 339.28 162.76 339.28 162.32 340.05 162.76 340.81 163.64 340.81 164.09 340.05 163.64 339.28" style="fill:#fff;opacity:0.4"></polygon><path d="M401.52,283l21.87,10a5,5,0,0,1,2.94,4.59V339.4a5,5,0,0,1-3.65,4.85L407,348.77Z" style="fill:#407BFF"></path><path d="M401.52,283l21.87,10a5,5,0,0,1,2.94,4.59V339.4a5,5,0,0,1-3.65,4.85L407,348.77Z" style="opacity:0.1"></path><polygon points="408.03 289.98 408.91 289.98 409.36 290.74 408.91 291.51 408.03 291.51 407.59 290.74 408.03 289.98" style="fill:#fff;opacity:0.4"></polygon><polygon points="410.62 306.41 411.5 306.41 411.94 307.18 411.5 307.94 410.62 307.94 410.17 307.18 410.62 306.41" style="fill:#fff;opacity:0.4"></polygon><polygon points="413.2 322.85 414.09 322.85 414.53 323.61 414.09 324.38 413.2 324.38 412.76 323.61 413.2 322.85" style="fill:#fff;opacity:0.4"></polygon><polygon points="415.79 339.28 416.68 339.28 417.12 340.05 416.68 340.81 415.79 340.81 415.35 340.05 415.79 339.28" style="fill:#fff;opacity:0.4"></polygon><path d="M165.57,343.2h248.3q-6-33.1-12.06-66.83a13.52,13.52,0,0,0-12.59-11.13,1977.35,1977.35,0,0,0-199,0,13.52,13.52,0,0,0-12.59,11.13Q171.6,310.09,165.57,343.2Z" style="fill:#407BFF"></path><path d="M165.57,343.21H413.86q-6-33.12-12.05-66.84a13.52,13.52,0,0,0-12.59-11.13q-27.41-1.38-54.83-2a3.58,3.58,0,0,1,2.8,2.94l7.53,63.91h-110l7.52-63.91a3.63,3.63,0,0,1,2.8-2.94q-27.42.6-54.82,2a13.52,13.52,0,0,0-12.59,11.13Q171.62,310.07,165.57,343.21Z" style="fill:#fff;opacity:0.1"></path><path d="M239.87,330.12h99.7l-6.82-67.89a3.64,3.64,0,0,0-3.54-3.27q-39.49-.81-79,0a3.63,3.63,0,0,0-3.54,3.27Z" style="fill:#407BFF"></path><path d="M239.87,330.12h99.7l-6.82-67.89a3.64,3.64,0,0,0-3.54-3.27q-39.49-.81-79,0a3.63,3.63,0,0,0-3.54,3.27Z" style="fill:#fff;opacity:0.1"></path><polygon points="347.3 280.43 349.52 309.86 329.65 322.73 249.09 322.73 231.08 307.61 236.5 282.96 251.11 290.74 331.67 290.74 347.3 280.43"></polygon><polygon points="236.29 275.65 248.98 284.75 288.15 284.75 291.29 284.75 330.46 284.75 343.15 275.65 352.86 279.51 351.61 279.72 331.01 294.33 291.29 294.33 288.15 294.33 248.43 294.33 227.83 279.72 226.58 279.51 236.29 275.65" style="fill:#407BFF"></polygon><polygon points="234.52 306.24 247.63 315.64 288.1 315.64 291.34 315.64 331.81 315.64 344.92 306.24 354.95 310.23 353.66 310.45 332.38 325.54 291.34 325.54 288.1 325.54 247.06 325.54 225.78 310.45 224.49 310.23 234.52 306.24" style="fill:#407BFF"></polygon><g style="opacity:0.4"><polygon points="236.29 275.65 248.98 284.75 288.15 284.75 291.29 284.75 330.46 284.75 343.15 275.65 352.86 279.51 351.61 279.72 331.01 294.33 291.29 294.33 288.15 294.33 248.43 294.33 227.83 279.72 226.58 279.51 236.29 275.65" style="fill:#fff"></polygon><polygon points="234.52 306.24 247.63 315.64 288.1 315.64 291.34 315.64 331.81 315.64 344.92 306.24 354.95 310.23 353.66 310.45 332.38 325.54 291.34 325.54 288.1 325.54 247.06 325.54 225.78 310.45 224.49 310.23 234.52 306.24" style="fill:#fff"></polygon></g><polygon points="226.58 283.7 227.83 283.91 248.43 298.53 331.01 298.53 351.62 283.91 352.86 283.7 350.99 282.96 331.01 297.13 248.43 297.13 228.44 282.96 226.58 283.7" style="fill:#fff;opacity:0.4"></polygon><polygon points="226.58 290.68 227.83 290.89 248.43 305.5 331.01 305.5 351.62 290.89 352.86 290.68 350.99 289.94 331.01 304.11 248.43 304.11 228.44 289.94 226.58 290.68" style="fill:#fff;opacity:0.4"></polygon><polygon points="226.58 297.66 227.83 297.87 248.43 312.48 331.01 312.48 351.62 297.87 352.86 297.66 350.99 296.92 331.01 311.09 248.43 311.09 228.44 296.92 226.58 297.66" style="fill:#fff;opacity:0.4"></polygon><path d="M347.8,316.59a6.61,6.61,0,0,0,1.87-.27L395,303.24a6.74,6.74,0,0,0,4.77-7.72l-2.47-13.28a6.74,6.74,0,0,0-6.63-5.52H352.86a6.75,6.75,0,0,0-4.32,1.57l-9,7.5a6.75,6.75,0,0,0-2.28,6.56l3.94,18.87A6.78,6.78,0,0,0,347.8,316.59Z" style="fill:#263238"></path><path d="M231.64,316.59a6.78,6.78,0,0,0,6.6-5.37l3.93-18.87a6.74,6.74,0,0,0-2.28-6.56l-9-7.5a6.75,6.75,0,0,0-4.32-1.57H188.73a6.75,6.75,0,0,0-6.64,5.52l-2.46,13.28a6.74,6.74,0,0,0,4.77,7.72l45.36,13.08a6.63,6.63,0,0,0,1.88.27Z" style="fill:#263238"></path><path d="M397.06,296l-2.46-13.28a4,4,0,0,0-3.89-3.24H352.86a4,4,0,0,0-2.54.92l-9,7.5a4,4,0,0,0-1.34,3.85l3.94,18.87a4,4,0,0,0,5,3l45.37-13.09A4,4,0,0,0,397.06,296Z" style="fill:#fff;opacity:0.4"></path><circle cx="360.41" cy="295.65" r="10.9" transform="translate(-58.29 90.72) rotate(-13.28)" style="fill:#fff;opacity:0.2"></circle><path d="M374.77,288.13a6.21,6.21,0,1,0,6.21-6.2A6.21,6.21,0,0,0,374.77,288.13Z" style="fill:#fff;opacity:0.2"></path><path d="M182.38,296l2.46-13.28a4,4,0,0,1,3.89-3.24h37.85a4,4,0,0,1,2.53.92l9,7.5a4,4,0,0,1,1.33,3.85l-3.93,18.87a4,4,0,0,1-5,3l-45.37-13.09A3.94,3.94,0,0,1,182.38,296Z" style="fill:#fff;opacity:0.4"></path><circle cx="219.02" cy="295.65" r="10.9" transform="translate(-144.91 241.47) rotate(-45)" style="fill:#fff;opacity:0.2"></circle><path d="M204.66,288.13a6.2,6.2,0,1,1-6.2-6.2A6.2,6.2,0,0,1,204.66,288.13Z" style="fill:#fff;opacity:0.2"></path><path d="M340.8,344.23H238.64L251.9,293.4a9.17,9.17,0,0,1,8.88-6.86h57.88a9.18,9.18,0,0,1,8.88,6.87Zm-96.75-4.18h91.33l-11.89-45.59a5,5,0,0,0-4.83-3.74H260.78a5,5,0,0,0-4.84,3.74Z" style="fill:#263238"></path><g style="opacity:0.5"><path d="M340.8,344.23H238.64L251.9,293.4a9.17,9.17,0,0,1,8.88-6.86h57.88a9.18,9.18,0,0,1,8.88,6.87Zm-96.75-4.18h91.33l-11.89-45.59a5,5,0,0,0-4.83-3.74H260.78a5,5,0,0,0-4.84,3.74Z" style="fill:#fff"></path></g><polygon points="354.75 329.92 224.68 329.92 159.37 329.92 159.37 345.77 224.68 373.68 354.75 373.68 420.07 345.77 420.07 329.92 354.75 329.92" style="fill:#263238"></polygon><polygon points="354.75 329.92 224.68 329.92 159.37 329.92 159.37 345.77 224.68 373.68 354.75 373.68 420.07 345.77 420.07 329.92 354.75 329.92" style="fill:#fff;opacity:0.5"></polygon><polygon points="192.23 343.4 213.98 343.4 211.68 354.54 193.39 350.5 192.23 343.4" style="fill:#263238"></polygon><polygon points="380.3 343.4 358.55 343.4 360.86 354.54 379.15 350.5 380.3 343.4" style="fill:#263238"></polygon><polygon points="224.68 373.68 234.26 335.06 345.18 335.06 354.75 373.68 224.68 373.68" style="fill:#fff;opacity:0.1"></polygon><polygon points="234.26 335.06 159.37 335.06 159.37 329.92 420.07 329.92 420.07 335.06 345.18 335.06 234.26 335.06" style="fill:#fff;opacity:0.2"></polygon><path d="M244.87,357.65a2.83,2.83,0,1,1-2.83-2.83A2.83,2.83,0,0,1,244.87,357.65Z" style="fill:#263238"></path><path d="M256.79,357.65a2.83,2.83,0,1,1-2.83-2.83A2.83,2.83,0,0,1,256.79,357.65Z" style="fill:#263238"></path><path d="M268.71,357.65a2.83,2.83,0,1,1-2.83-2.83A2.83,2.83,0,0,1,268.71,357.65Z" style="fill:#263238"></path><path d="M280.63,357.65a2.83,2.83,0,1,1-2.83-2.83A2.83,2.83,0,0,1,280.63,357.65Z" style="fill:#263238"></path><path d="M292.55,357.65a2.83,2.83,0,1,1-2.83-2.83A2.83,2.83,0,0,1,292.55,357.65Z" style="fill:#263238"></path><path d="M304.47,357.65a2.83,2.83,0,1,1-2.83-2.83A2.83,2.83,0,0,1,304.47,357.65Z" style="fill:#263238"></path><path d="M316.39,357.65a2.83,2.83,0,1,1-2.83-2.83A2.83,2.83,0,0,1,316.39,357.65Z" style="fill:#263238"></path><path d="M328.31,357.65a2.83,2.83,0,1,1-2.83-2.83A2.83,2.83,0,0,1,328.31,357.65Z" style="fill:#263238"></path><path d="M340.23,357.65a2.83,2.83,0,1,1-2.83-2.83A2.83,2.83,0,0,1,340.23,357.65Z" style="fill:#263238"></path><path d="M250.83,345.67a2.83,2.83,0,1,1-2.83-2.83A2.83,2.83,0,0,1,250.83,345.67Z" style="fill:#263238"></path><path d="M262.75,345.67a2.83,2.83,0,1,1-2.83-2.83A2.83,2.83,0,0,1,262.75,345.67Z" style="fill:#263238"></path><path d="M274.67,345.67a2.83,2.83,0,1,1-2.83-2.83A2.83,2.83,0,0,1,274.67,345.67Z" style="fill:#263238"></path><path d="M286.59,345.67a2.83,2.83,0,1,1-2.83-2.83A2.83,2.83,0,0,1,286.59,345.67Z" style="fill:#263238"></path><path d="M298.51,345.67a2.83,2.83,0,1,1-2.83-2.83A2.83,2.83,0,0,1,298.51,345.67Z" style="fill:#263238"></path><path d="M310.43,345.67a2.83,2.83,0,1,1-2.83-2.83A2.83,2.83,0,0,1,310.43,345.67Z" style="fill:#263238"></path><path d="M322.35,345.67a2.83,2.83,0,1,1-2.83-2.83A2.83,2.83,0,0,1,322.35,345.67Z" style="fill:#263238"></path><path d="M334.27,345.67a2.83,2.83,0,1,1-2.83-2.83A2.83,2.83,0,0,1,334.27,345.67Z" style="fill:#263238"></path></g></svg>