<!DOCTYPE svg PUBLIC "-//W3C//DTD SVG 1.1//EN" "http://www.w3.org/Graphics/SVG/1.1/DTD/svg11.dtd">
<!-- Uploaded to: SVG Repo, www.svgrepo.com, Transformed by: SVG Repo Mixer Tools -->
<svg fill="#a95151" height="800px" width="800px" version="1.1" id="Layer_1" xmlns="http://www.w3.org/2000/svg" xmlns:xlink="http://www.w3.org/1999/xlink" viewBox="-95.69 -95.69 694.99 694.99" xml:space="preserve" stroke="#a95151" stroke-width="0.005036070000000001">
<g id="SVGRepo_bgCarrier" stroke-width="0" transform="translate(0,0), scale(1)">
<path transform="translate(-95.69, -95.69), scale(21.7184375)" d="M16,27.61411575724681C17.98299061408242,27.8915807244009,20.204147542212453,28.30875187108871,21.908963961156687,27.25859018771088C23.615739742392098,26.20722154317337,23.479650397052954,23.560521374865615,24.891208878098766,22.137158368209892C26.71562242023231,20.29748769243975,30.392275343649427,20.298972794066927,31.239159047134,17.850368914142468C32.02791595148494,15.569827668202551,30.024338017384924,13.194053074886497,28.67660672844369,11.192397210007805C27.486340695248117,9.424609368572817,25.359953113354905,8.6242063986496,23.950697832945863,7.025517361737254C22.301688752851852,5.154846536682748,22.103365518192344,1.655291959826866,19.69602538829023,1.0046355367390163C17.308188321247652,0.35925040579714207,15.251975327466965,2.9315490359656815,13.062647570271395,4.0826927270644C11.32744663102879,4.995057541986564,9.640406212566454,5.868620817911807,8.111517620698809,7.0957440915535965C6.523359017176125,8.370438922153681,4.927437754366629,9.648524782965545,3.921814372488278,11.419348397818602C2.831217130532625,13.339804291297725,1.4570930158214044,15.574205428907403,2.0962109409412637,17.68822564185487C2.7535196603166643,19.862415825373215,5.474731796459229,20.576040725861795,7.152862999357252,22.106737747657583C8.45331120214573,23.292933551400694,9.405233543474724,24.787914832868736,10.899535269676239,25.71812360729775C12.46207986035,26.690813836583683,14.17719430156853,27.35906426096043,16,27.61411575724681" fill="#e8eced" strokewidth="0"/>
</g>
<g id="SVGRepo_tracerCarrier" stroke-linecap="round" stroke-linejoin="round" stroke="#CCCCCC" stroke-width="1.007214"/>
<g id="SVGRepo_iconCarrier"> <g transform="translate(1 1)"> <g> <g> <path d="M501.971,91.328c0-10.911-3.357-20.984-11.751-28.538c-22.662-22.662-69.666-21.823-71.344-21.823 c-0.597,0-6.931-0.105-15.899,0.778c3.474-14.827,16.839-25.958,32.686-25.958c5.036,0,8.393-3.357,8.393-8.393 c0-5.036-3.357-8.393-8.393-8.393c-26.04,0-47.623,20.031-50.116,45.444c-13.59,2.943-28.502,8.364-38.855,18.347 c-7.554,7.554-11.751,17.626-11.751,28.538c0,3.185-0.245,12.666-0.003,25.404c-0.135,39.519-36.014,76.23-78.96,82.702 c0.3-0.504,0.615-0.997,0.904-1.509c10.911-19.305,14.269-41.967,8.393-63.79c-5.875-21.823-20.144-40.289-39.449-51.2 c-20.144-10.911-41.967-14.269-64.629-8.393c-20.961,5.643-38.805,19.045-49.852,37.2C96.772,71.638,54.378,40.967,7.597,40.967 c-5.036,0-8.393,3.357-8.393,8.393s3.357,8.393,8.393,8.393c48.682,0,92.328,40.289,92.328,83.934 c0,0.442,0.035,0.866,0.086,1.281c-2.453,16.099-0.207,32.475,6.274,47.154l-12.235,20.391c-0.839,2.518-1.679,4.197-0.839,6.715 l4.197,16.787l-26.02,17.626c-1.679,0.839-2.518,2.518-3.357,5.036l-10.072,47.843l-23.502,11.751 c-2.518,1.679-5.036,5.036-4.197,8.393l4.197,36.931l-31.895,25.18c-3.357,2.518-4.197,6.715-2.518,10.072l16.787,38.61 c0.839,3.357,4.197,5.036,7.554,5.036l41.967-5.036c4.197-0.839,7.554-3.357,7.554-6.715l5.875-40.289l34.413-14.269 c3.357-1.679,5.036-5.036,5.036-8.393l-1.679-26.02l36.931-32.734c1.679-1.679,2.518-3.357,2.518-5.875l2.518-31.056 l16.787-4.197c1.679-0.839,4.197-2.518,5.036-4.197L194.85,239.2c3.611-0.419,7.221-1.024,10.832-1.826 c13.708-3.691,26.088-10.697,36.107-20.179c0.27,0.021,0.544,0.035,0.824,0.035c39.83,0,76.484-22.232,95.492-53.59 c3.387,26.823,10.182,53.971,23.695,67.859c2.143,2.411,4.373,4.39,6.715,5.974v30.118c0,2.518,0.839,4.197,3.357,4.197 l12.59,12.59l-14.269,28.538c-1.679,2.518-1.679,4.197-0.839,6.715l15.108,46.164l-14.269,21.823 c-2.518,3.357-2.518,7.554,0,10.072l22.662,30.216l-15.108,37.771c-1.679,3.357-0.839,7.554,2.518,10.072l33.574,25.18 c1.679,0.839,3.357,1.679,5.036,1.679s3.357-0.839,5.875,0l33.574-25.18c2.518-2.518,4.197-6.715,2.518-10.072l-15.108-37.77 l22.662-30.216c1.679-3.357,1.679-6.715,0-10.072l-14.269-21.823l15.108-46.164c0-2.518,0-5.036-0.839-6.715l-14.269-28.538 l12.59-12.59c1.679-1.679,2.518-3.357,2.518-5.875v-30.31c2.116-1.551,4.075-3.467,5.875-5.782 C505.328,200.443,502.81,102.239,501.971,91.328z M166.233,249.964L146.928,255c-3.357,0.839-5.875,4.197-5.875,7.554 l-1.679,33.574l-36.931,32.734c-1.679,1.679-2.518,4.197-2.518,6.715l1.679,24.341l-32.734,14.269 c-2.518,1.679-5.036,4.197-5.036,6.715l-5.875,38.61l-28.538,3.357L17.669,396.01l30.216-23.502 c2.518-1.679,3.357-5.036,3.357-7.554l-4.197-36.092l21.823-10.911c1.679-0.839,3.357-3.357,4.197-5.875l10.072-48.682 l26.859-18.466c2.518-1.679,4.197-5.875,3.357-9.233l-5.036-19.305l5.875-10.072c5.429,7.465,11.975,13.813,19.599,19.083 l-49.815,85.835c-1.679,4.197-0.839,9.233,3.357,11.751c1.679,0.839,2.518,0.839,4.197,0.839c2.518,0,5.036-0.839,7.554-3.357 l49.889-86.73c7.312,3.035,15.023,4.994,23.134,6.153L166.233,249.964z M200.646,220.587 c-15.735,4.496-31.467,2.955-46.008-3.992c-0.91-0.461-1.815-0.942-2.715-1.443c-0.477-0.473-1.016-0.906-1.638-1.279 c-0.412-0.165-0.833-0.298-1.258-0.413c-10.754-6.685-19.24-16.243-24.761-27.285c-0.674-1.349-1.491-2.413-2.436-3.22 c-8.296-18.912-7.82-41.405,3.276-60.57c9.233-15.948,23.502-26.859,41.128-31.895s35.253-2.518,51.2,6.715 c15.108,9.233,26.02,23.502,31.056,41.128s2.518,35.253-6.715,51.2C232.541,204.639,218.272,215.551,200.646,220.587z M453.289,242.41v21.823l-14.269,14.269c-2.518,3.357-3.357,6.715-1.679,10.072l15.108,30.216l-15.948,47.003 c-0.839,2.518-0.839,5.036,0.839,7.554l13.429,20.144l-21.823,28.538c-1.679,2.518-1.679,5.875-0.839,8.393l14.269,36.092 l-23.502,17.626l-23.502-17.626l14.269-36.092c1.679-3.357,0.839-5.875-0.839-8.393l-21.823-28.538l15.108-20.144 c1.679-2.518,1.679-5.036,0.839-7.554l-15.948-47.003l15.108-30.216c1.679-3.357,0.839-7.554-1.679-10.072l-14.269-14.269V242.41 h24.341v100.721c0,5.036,3.357,8.393,8.393,8.393s8.393-3.357,8.393-8.393V242.41h25.18H453.289z M464.2,219.748 c-4.197,3.357-7.554,5.036-11.751,5.036h-67.148c-4.197,0-8.393-1.679-11.751-5.036c-20.984-22.662-22.662-99.882-21.823-128.42 c0-6.715,2.518-12.59,7.554-16.787c14.269-14.269,46.164-16.787,58.754-16.787c0,0,0.839,0,1.679,0 c11.751,0,45.325,2.518,59.593,16.787c4.197,4.197,6.715,10.072,6.715,16.787C487.702,119.026,486.023,197.085,464.2,219.748z"/> <path d="M442.377,82.934h-46.164c-10.911,0-19.305,8.393-19.305,19.305v12.59c0,10.072,8.393,18.466,19.305,18.466h46.164 c10.072,0,18.466-8.393,18.466-19.305V101.4C460.843,91.328,452.449,82.934,442.377,82.934z M444.056,113.99 c0,0.839-0.839,1.679-1.679,1.679h-46.164c-0.839,0-1.679-0.839-1.679-1.679V101.4c0-0.839,0.839-1.679,1.679-1.679h46.164 c0.839,0,1.679,0.839,1.679,1.679V113.99z"/> <path d="M225.826,131.616l-40.289-23.502c-9.233-5.036-20.984-2.518-26.02,6.715l-6.715,10.911 c-2.518,4.197-3.357,9.233-1.679,14.269c0.839,5.036,4.197,9.233,8.393,11.751l40.289,22.662 c2.518,1.679,5.875,2.518,9.233,2.518c5.875,0,12.59-3.357,16.787-8.393l6.715-10.911 C237.577,148.403,235.059,136.652,225.826,131.616z M216.594,149.243l-5.875,10.911c0,0.839-1.679,1.679-2.518,0.839 l-40.289-23.502c-0.839-0.839-0.839-1.679-0.839-1.679c0-0.839,0-0.839,0-1.679l6.715-10.911c0-0.839,0.839-0.839,1.679-0.839 c0,0,0,0,0,1.679l40.289,22.662C216.594,146.725,217.433,148.403,216.594,149.243z"/> </g> </g> </g> </g>
</svg>