<svg xmlns="http://www.w3.org/2000/svg" viewBox="0 0 750 500"><g id="freepik--background-complete--inject-97"><path d="M109.43,258.15a276.75,276.75,0,0,0-10.85,76.9H651.42a276.75,276.75,0,0,0-10.85-76.9Z" style="fill:#e0e0e0"></path><path d="M604.7,181.25H145.3a275.35,275.35,0,0,0-35.87,76.9H640.57A275.35,275.35,0,0,0,604.7,181.25Z" style="fill:#ebebeb"></path><path d="M527.3,104.36H222.7a277.89,277.89,0,0,0-77.4,76.89H604.7A277.89,277.89,0,0,0,527.3,104.36Z" style="fill:#f5f5f5"></path><path d="M375,58.63a275.14,275.14,0,0,0-152.3,45.73H527.3A275.14,275.14,0,0,0,375,58.63Z" style="fill:#fafafa"></path><path d="M166.31,108.82c-.06,0,0-.55-.29-1.49a6.22,6.22,0,0,0-2.28-3.31,6,6,0,0,0-5.69-.82,5.93,5.93,0,0,0-2.77,2.09,6,6,0,0,0,0,7.06,5.93,5.93,0,0,0,2.77,2.09,6.06,6.06,0,0,0,5.69-.82,6.26,6.26,0,0,0,2.28-3.31c.25-.94.23-1.49.29-1.49s0,.14,0,.4a4.61,4.61,0,0,1-.13,1.14,6.16,6.16,0,0,1-2.25,3.55,6.41,6.41,0,0,1-9.09-1.26,6.45,6.45,0,0,1,0-7.66,6.41,6.41,0,0,1,9.09-1.26,6.13,6.13,0,0,1,2.25,3.55,4.61,4.61,0,0,1,.13,1.14C166.34,108.68,166.33,108.82,166.31,108.82Z" style="fill:#e0e0e0"></path><path d="M708.54,207.3s0-.56-.29-1.5a6.24,6.24,0,0,0-2.28-3.3,6,6,0,0,0-5.69-.82,6,6,0,0,0,0,11.24,6.09,6.09,0,0,0,5.69-.82,6.29,6.29,0,0,0,2.28-3.31c.26-.94.24-1.5.29-1.49s0,.13,0,.4a5,5,0,0,1-.12,1.14,6.27,6.27,0,0,1-2.25,3.55,6.42,6.42,0,0,1-9.1-1.26,6.45,6.45,0,0,1,0-7.66,6.42,6.42,0,0,1,9.1-1.26,6.25,6.25,0,0,1,2.25,3.54,5.1,5.1,0,0,1,.12,1.15C708.57,207.16,708.56,207.3,708.54,207.3Z" style="fill:#e0e0e0"></path><path d="M683.19,121.26c-.06,0,0-.55-.3-1.49a6.21,6.21,0,0,0-2.27-3.31,6.1,6.1,0,0,0-5.69-.82,6,6,0,0,0-2.77,2.1,5.94,5.94,0,0,0,0,7.05,5.93,5.93,0,0,0,2.77,2.09,6,6,0,0,0,5.69-.82,6.15,6.15,0,0,0,2.27-3.3c.26-.94.24-1.5.3-1.5a1.41,1.41,0,0,1,0,.4,4.68,4.68,0,0,1-.13,1.15,6.14,6.14,0,0,1-2.25,3.54,6.4,6.4,0,0,1-9.09-1.26,6.41,6.41,0,0,1,0-7.66,6.4,6.4,0,0,1,9.09-1.26,6.16,6.16,0,0,1,2.25,3.55,4.61,4.61,0,0,1,.13,1.14A1.34,1.34,0,0,1,683.19,121.26Z" style="fill:#e0e0e0"></path><path d="M526.32,49.44c-.06,0,0-.56-.3-1.5a6.15,6.15,0,0,0-2.27-3.3,6,6,0,0,0-5.69-.82,5.88,5.88,0,0,0-2.77,2.09,6.09,6.09,0,0,0-1.16,3.53A6,6,0,0,0,515.29,53a5.88,5.88,0,0,0,2.77,2.09,6.07,6.07,0,0,0,5.69-.81A6.21,6.21,0,0,0,526,50.93c.26-.94.24-1.5.3-1.49a2,2,0,0,1,0,.4,4.61,4.61,0,0,1-.13,1.14A6.22,6.22,0,0,1,524,54.53a6.4,6.4,0,0,1-9.09-1.26,6.41,6.41,0,0,1,0-7.66A6.4,6.4,0,0,1,524,44.35a6.2,6.2,0,0,1,2.25,3.54,4.68,4.68,0,0,1,.13,1.15A2.12,2.12,0,0,1,526.32,49.44Z" style="fill:#e0e0e0"></path><path d="M113.77,229s0-.41,0-1.14,0-1.82-.06-3.12c0-2.72-.06-6.48-.11-11l.22.22-15.23,0,.26-.26h0v8c0,2.55,0,5,0,7.18l-.22-.22,11,.11,3.12.06c.73,0,1.13,0,1.14.05a6.48,6.48,0,0,1-1,.06l-3.07,0-11.11.12h-.23V229c0-2.22,0-4.63,0-7.18v-8h0c-.24.23.31-.32.26-.26l15.23,0H114v.23c0,4.55-.09,8.36-.12,11.11,0,1.28,0,2.3-.06,3.07A6,6,0,0,1,113.77,229Z" style="fill:#e0e0e0"></path><path d="M51.83,281.7a9.31,9.31,0,0,1,.75.86l2,2.42,6.87,8.56-.31,0,12-9.44c0-.08-.09.69,0,.37h0v0l0,0,0-.05-.08-.11-.16-.2-.32-.41-.64-.81-1.26-1.61-2.42-3.1-4.42-5.67.31,0c-3.56,2.74-6.54,5-8.7,6.69L52.76,281a9.73,9.73,0,0,1-.93.67,7.36,7.36,0,0,1,.79-.69L55,279.07l8.67-7,.18-.14.14.18,4.46,5.63,2.44,3.09,1.26,1.6.64.82.32.41.16.2.08.1,0,.06,0,0h0c0-.32-.05.45,0,.37l-12,9.39-.17.14-.14-.18L54.29,285l-1.85-2.46C52,282,51.81,281.69,51.83,281.7Z" style="fill:#e0e0e0"></path><path d="M196.61,56.07a2.83,2.83,0,0,1,.27.3l.71.87,2.66,3.3,9.43,11.82-.3,0L231.3,55c0-.08-.08.69,0,.37h0l0,0-.06-.07-.11-.14-.21-.27-.44-.55-.86-1.1c-.57-.73-1.13-1.45-1.7-2.16l-3.3-4.22L218.38,39l.33,0L202.84,51.33l-4.56,3.5-1.22.92a5.44,5.44,0,0,1-.45.32,3.82,3.82,0,0,1,.37-.33l1.16-.94,4.43-3.57,15.85-12.59.18-.15.15.19,6.18,7.83,3.31,4.22,1.7,2.16.86,1.1.44.55.21.27.11.14.06.07,0,0,0,0h0c0-.32,0,.45,0,.37-8.18,6.41-15.76,12.35-22,17.21l-.16.13-.14-.16L200,60.56l-2.55-3.33-.65-.87A2,2,0,0,1,196.61,56.07Z" style="fill:#e0e0e0"></path><path d="M600.32,109.17s.4.1,1.1.31l3,.94,10.44,3.36-.28.15c1.39-4.22,3-9.18,4.79-14.47l.16.33h-.06l-.06,0-.12,0-.25-.08-.49-.17-1-.33-1.93-.64-3.74-1.26-6.81-2.3.29-.14-3.59,10.37-1,2.94c-.25.69-.39,1.06-.41,1.07a8.93,8.93,0,0,1,.28-1l.92-2.93c.84-2.62,2-6.25,3.41-10.58l.07-.22.22.07L612,96.76,615.78,98l1.93.64,1,.33.5.16.24.09.13,0,.06,0h.06c-.15-.3.2.4.16.33-1.77,5.28-3.44,10.23-4.86,14.44l-.07.22-.21-.08-10.51-3.63-2.89-1A8.67,8.67,0,0,1,600.32,109.17Z" style="fill:#e0e0e0"></path><path d="M68.65,123.9c-.1-.1,3.78-4.15,8.68-9s8.94-8.78,9-8.68-3.78,4.15-8.68,9S68.75,124,68.65,123.9Z" style="fill:#e0e0e0"></path><path d="M87.3,123.9c-.1.1-4.15-3.78-9-8.67s-8.78-9-8.68-9,4.15,3.78,9,8.68S87.4,123.8,87.3,123.9Z" style="fill:#e0e0e0"></path><path d="M634.94,190.3c-.1-.1,3.78-4.15,8.67-9s8.94-8.78,9-8.67-3.78,4.15-8.67,9S635,190.4,634.94,190.3Z" style="fill:#e0e0e0"></path><path d="M653.58,190.3c-.1.1-4.15-3.78-9-8.67s-8.78-8.94-8.67-9,4.15,3.78,9,8.67S653.68,190.2,653.58,190.3Z" style="fill:#e0e0e0"></path><path d="M40.11,315s-7.09.57-4,16.2S42,355,42,355s.33,3.52-2.48,3.25-8.41-2.89-10.53,0-.66,6.93,3.53,11.15,13,13.83,13.79,14.7,1.31,2.6-.63,2.72S30.16,384.52,29.41,391s12.83,16.38,14.29,17.48,1.66,1.92,1.26,2.79-4.88-.38-8.78-.9-8.5-.45-8.62,3.35S34.29,427.57,55.49,436l10.07,3.24,8-7c16.19-16,18.55-27.94,17-31.39s-5.87-1.7-9.25.32-7,4.92-7.72,4.27-.84-1.46.07-3.05,9.52-16,6.27-21.7-14.82,1.86-16.65,2.51-2-1.16-1.65-2.25S66.3,367.48,68.49,362s2.07-9.71-1.15-11.64-7.22,2.76-9.69,4.11-3.56-2-3.56-2-.54-8.61-3.88-24.19S40,315,40,315" style="fill:#ebebeb"></path><path d="M65.4,441.73c-2.4-11.45-6.34-31.87-9.81-49.38S49,359,46.62,347.53c-1.18-5.71-2.13-10.35-2.8-13.56-.32-1.6-.58-2.84-.75-3.69-.09-.42-.15-.74-.19-1l-.06-.33a3.06,3.06,0,0,1,.09.33c.05.23.13.54.22.95.19.86.47,2.09.82,3.68.71,3.19,1.69,7.82,2.9,13.55,2.4,11.45,5.59,27.29,9.06,44.8s7.37,37.93,9.72,49.39" style="fill:#e0e0e0"></path><path d="M36.7,362.21a2.94,2.94,0,0,1,.65.4c.41.27,1,.69,1.7,1.2,1.42,1,3.35,2.52,5.44,4.2s3.93,3.15,5.35,4.3l1.63,1.29a3.63,3.63,0,0,1,.58.5,3.42,3.42,0,0,1-.65-.39c-.41-.28-1-.69-1.7-1.22-1.41-1.05-3.32-2.55-5.41-4.23s-3.94-3.13-5.38-4.26l-1.63-1.29A3.09,3.09,0,0,1,36.7,362.21Z" style="fill:#e0e0e0"></path><path d="M52.93,373.65c-.07,0,2.81-4.16,6.44-9.17s6.62-9,6.7-9-2.81,4.16-6.44,9.17S53,373.7,52.93,373.65Z" style="fill:#e0e0e0"></path><path d="M57.05,400.78a3.74,3.74,0,0,1,.59-.51l1.68-1.3c1.41-1.1,3.36-2.64,5.44-4.4s3.93-3.43,5.25-4.64l1.56-1.44a3.88,3.88,0,0,1,.6-.5,2.73,2.73,0,0,1-.51.59c-.34.37-.85.89-1.49,1.52-1.28,1.25-3.1,2.95-5.19,4.72s-4.07,3.28-5.52,4.33c-.73.53-1.32,1-1.74,1.22A3.78,3.78,0,0,1,57.05,400.78Z" style="fill:#e0e0e0"></path><path d="M40.09,393.66a3.58,3.58,0,0,1,.69.21l1.84.69c1.55.6,3.68,1.44,6,2.39s4.46,1.82,6,2.47l1.8.79a2.91,2.91,0,0,1,.64.33,3.58,3.58,0,0,1-.69-.21l-1.84-.69c-1.55-.6-3.68-1.44-6-2.39s-4.46-1.82-6-2.47l-1.8-.79A2.91,2.91,0,0,1,40.09,393.66Z" style="fill:#e0e0e0"></path><path d="M40.68,418.08a5.53,5.53,0,0,1,.88.27l2.36.88c2,.75,4.73,1.81,7.74,3s5.75,2.28,7.71,3.09l2.32,1a5.26,5.26,0,0,1,.84.4,5.12,5.12,0,0,1-.88-.28l-2.36-.87c-2-.75-4.73-1.81-7.75-3s-5.74-2.28-7.7-3.09l-2.33-1A4.93,4.93,0,0,1,40.68,418.08Z" style="fill:#e0e0e0"></path><path d="M62.07,426.32a5.41,5.41,0,0,1,.73-.66l2.07-1.73c1.74-1.46,4.14-3.49,6.72-5.8s4.88-4.47,6.53-6l1.95-1.86a6,6,0,0,1,.74-.65,5.08,5.08,0,0,1-.65.74c-.43.47-1.07,1.13-1.88,1.94-1.6,1.61-3.87,3.8-6.47,6.11s-5,4.32-6.8,5.74c-.89.71-1.62,1.27-2.13,1.65A5.54,5.54,0,0,1,62.07,426.32Z" style="fill:#e0e0e0"></path></g><g id="freepik--Floor--inject-97"><path d="M709.15,441.18c0,.14-149.46.26-333.78.26s-333.81-.12-333.81-.26,149.43-.26,333.81-.26S709.15,441,709.15,441.18Z" style="fill:#263238"></path></g><g id="freepik--Plant--inject-97"><path d="M63.83,437.11c-10.22-5.19-14-17-15.18-27.85-.19-1.82-.66-3.7,0-5.41s2.5-3.08,4.22-2.54c1.44.44,2.24,1.92,3.18,3.11a10.65,10.65,0,0,0,4.81,3.46,4,4,0,0,0,3.76-.19c1.44-1.08,1.32-3.26,1.06-5.06q-.73-5-1.48-10.05a17.4,17.4,0,0,1-.21-5.43,5.67,5.67,0,0,1,3-4.27,3.42,3.42,0,0,1,4.51,1.68,15.39,15.39,0,0,1,.37,2.24,1.93,1.93,0,0,0,1.36,1.63c.75.11,1.4-.51,1.86-1.11a24.54,24.54,0,0,0,3.39-7.09A33.44,33.44,0,0,1,81.5,373a9.8,9.8,0,0,1,6.08-4.62c2.56-.51,5.53.69,6.53,3.13S94,376.71,92.68,379a40.41,40.41,0,0,1-7.24,9.15,3.39,3.39,0,0,0-1.19,1.7c-.22,1.26,1.08,2.29,2.32,2.52a21.08,21.08,0,0,0,4.27-.12,4.1,4.1,0,0,1,3.75,1.63c1,1.73-.27,3.88-1.61,5.35a34.81,34.81,0,0,1-9.36,7.32,11.71,11.71,0,0,0-3.53,2.37,3.37,3.37,0,0,0-.53,4,3.42,3.42,0,0,0,3.89.9,24.38,24.38,0,0,0,3.74-2.06c2.34-1.28,5.56-1.56,7.44.36A5.74,5.74,0,0,1,96,417a13.34,13.34,0,0,1-2.1,4.83,35,35,0,0,1-13.32,12.46c-5.46,2.8-10.71,4.08-16.7,2.8" style="fill:#FF725E"></path><path d="M64.86,440.08c-.21-4.35,0-4.47.81-10.16a162,162,0,0,1,4-18.27l1.28-4.73c.42-1.55.85-3.09,1.35-4.57A83.45,83.45,0,0,1,75.66,394c1.21-2.6,2.45-5,3.63-7.28s2.32-4.34,3.44-6.2a63.66,63.66,0,0,1,5.94-8.34c.77-.93,1.4-1.63,1.83-2.1l.49-.53a.86.86,0,0,1,.18-.17,2.28,2.28,0,0,1-.16.19l-.46.56c-.42.48-1,1.19-1.78,2.13a68.57,68.57,0,0,0-5.84,8.39c-1.1,1.85-2.23,3.94-3.4,6.2s-2.39,4.69-3.59,7.29a83.62,83.62,0,0,0-3.36,8.31c-.5,1.48-.91,3-1.34,4.56L70,411.74A166.57,166.57,0,0,0,66,430c-.86,5.67-1.06,5.76-.88,10.1" style="fill:#263238"></path><path d="M72.36,402.32a3.79,3.79,0,0,1-.28-.74c-.16-.49-.38-1.2-.63-2.07-.51-1.76-1.12-4.21-1.79-6.91s-1.32-5.14-1.85-6.89c-.27-.87-.49-1.57-.65-2.06a4.12,4.12,0,0,1-.21-.77,3.47,3.47,0,0,1,.34.73c.19.47.45,1.16.74,2,.59,1.73,1.28,4.17,2,6.87s1.25,5.09,1.7,6.93c.21.84.38,1.54.53,2.1A2.9,2.9,0,0,1,72.36,402.32Z" style="fill:#263238"></path><path d="M94.9,394.74A5.18,5.18,0,0,1,94,395c-.58.14-1.43.33-2.47.6-2.09.53-5,1.36-8.06,2.41s-5.89,2.14-7.88,3c-1,.41-1.79.77-2.34,1a4.26,4.26,0,0,1-.88.35,5.38,5.38,0,0,1,.82-.47c.54-.28,1.32-.67,2.31-1.11,2-.89,4.74-2,7.86-3.07a81.16,81.16,0,0,1,8.11-2.32c1.05-.24,1.91-.4,2.51-.5A5.76,5.76,0,0,1,94.9,394.74Z" style="fill:#263238"></path><path d="M65.9,429.45s-.08-.08-.2-.26l-.51-.78c-.45-.68-1.06-1.68-1.81-2.93-1.49-2.49-3.43-6-5.53-9.9s-4-7.43-5.45-9.95l-1.71-3-.46-.81a1.21,1.21,0,0,1-.14-.3,1.72,1.72,0,0,1,.2.26l.51.78c.45.68,1.06,1.69,1.8,2.93,1.49,2.5,3.44,6,5.54,9.91s4,7.43,5.45,9.95c.7,1.23,1.28,2.24,1.71,3,.18.33.33.6.46.82A1.56,1.56,0,0,1,65.9,429.45Z" style="fill:#263238"></path><path d="M95.26,415.22a1.6,1.6,0,0,1-.29.17l-.85.42L91,417.34c-2.66,1.3-6.3,3.12-10.33,5.15s-7.69,3.82-10.37,5.06c-1.34.62-2.43,1.11-3.19,1.43l-.88.37c-.2.08-.31.12-.31.1a1.45,1.45,0,0,1,.28-.17l.86-.42,3.14-1.53c2.65-1.29,6.3-3.12,10.32-5.14s7.69-3.82,10.38-5.06c1.34-.62,2.43-1.11,3.19-1.44l.87-.36A1.46,1.46,0,0,1,95.26,415.22Z" style="fill:#263238"></path></g><g id="freepik--Delorean--inject-97"><path d="M532.11,217.65c0,1.71,1.45,19,1.45,19s-26.93-6.21-30.73,20l-92.56,1L421,234Z" style="fill:#FF725E"></path><path d="M532.11,217.65c0,1.71,1.45,19,1.45,19s-26.93-6.21-30.73,20l-92.56,1L421,234Z" style="opacity:0.4"></path><path d="M484.61,217.65a33.2,33.2,0,0,1-4.23-3.23l1.29-.82C475.45,193.91,461,197,461,197l7.62,20.63H326.7s-30.25,22.29-32.64,50.16,0,24.68,0,24.68L388,302.84s-5.58-34.24,34.23-51.75,109.87-24.68,109.87-24.68v-8.76Z" style="fill:#FF725E"></path><path d="M484.61,217.65a33.2,33.2,0,0,1-4.23-3.23l1.29-.82C475.45,193.91,461,197,461,197l7.62,20.63H326.7s-30.25,22.29-32.64,50.16,0,24.68,0,24.68L388,302.84s-5.58-34.24,34.23-51.75,109.87-24.68,109.87-24.68v-8.76Z" style="opacity:0.2"></path><polygon points="624.75 404.5 174.37 404.5 174.37 325.26 617.92 340.55 624.75 404.5" style="fill:#263238"></polygon><polygon points="174.99 300.61 93.58 263.29 93.58 333.37 104.83 335.93 174.99 325.26 174.99 300.61" style="fill:#263238"></polygon><polygon points="93.58 263.29 121.37 264.19 197.28 299.04 176.3 304.2 93.58 263.29" style="fill:#263238"></polygon><path d="M174.37,300.61c-.06.13-18.2-8.12-40.5-18.42s-40.35-18.77-40.29-18.9,18.19,8.11,40.5,18.42S174.43,300.48,174.37,300.61Z" style="fill:#455a64"></path><path d="M680.42,363.57v-4.71h-9l-9.87-19.19L483.13,317.34,391.35,283l-130.29,1.43s-146.68,32-146.89,32.36l-9.34,30.83-11.25,1.26,6.78,21.4a8.76,8.76,0,0,0,8.36,6.12h0l3.44,11.7,15.14.23v5.27h17.2v-4.81l27.06,9.4,3.34.38c-.12-1.45-.2-2.92-.2-4.4a49.56,49.56,0,1,1,96.63,15.52h3.95l233.64.43a50.26,50.26,0,0,1-2-14.87,49.57,49.57,0,1,1,98.37,9.49l.81-.05,8.15.26,6,2.41h36.39l10.44-17.81,9.29-6.75v-4.32h4.07v-4.71H676.6V363.57Z" style="fill:#FF725E"></path><path d="M590.55,360.11l89.87-1.25v4.71H676.6v10.18h3.82v4.71h-4.07v4.32l-9.29,6.75-10.44,17.81H620.23l-6-2.41-9-.21S611.4,381.15,590.55,360.11Z" style="opacity:0.30000000000000004"></path><path d="M273.4,387.65l234,1.41s-1.35,15.33,1.51,21l-237.59-.43S275.05,395.37,273.4,387.65Z" style="opacity:0.30000000000000004"></path><path d="M183.35,300.61s4.9-15.72,32.25-22.34,40.62,7.14,40.62,7.14l-10.09,2.07a41.11,41.11,0,0,0-29.39-1.88c-16.65,5-22.82,12.77-22.82,12.77" style="fill:#FF725E"></path><path d="M183.35,300.61s4.9-15.72,32.25-22.34,40.62,7.14,40.62,7.14l-10.09,2.07a41.11,41.11,0,0,0-29.39-1.88c-16.65,5-22.82,12.77-22.82,12.77" style="fill:#fff;opacity:0.4"></path><path d="M198.48,294.63a2.25,2.25,0,0,1-1.41.05,5.19,5.19,0,0,1-4.26-4.8,2.3,2.3,0,0,1,.21-1.39c.08,0,0,.54.16,1.35a5.47,5.47,0,0,0,4,4.48C198,294.55,198.48,294.55,198.48,294.63Z" style="fill:#263238"></path><path d="M204.27,290.55a2.1,2.1,0,0,1-1.35,0,4.6,4.6,0,0,1-2.73-1.82,4.66,4.66,0,0,1-.82-3.18c.1-.85.39-1.31.44-1.28a11.69,11.69,0,0,1-.07,1.3,4.74,4.74,0,0,0,3.28,4.63C203.76,290.45,204.27,290.46,204.27,290.55Z" style="fill:#263238"></path><path d="M210.5,288.12c0,.06-.54,0-1.23-.5a5,5,0,0,1-1.94-2.6,5,5,0,0,1,.09-3.24c.3-.79.67-1.16.72-1.13a9.8,9.8,0,0,1-.37,1.24,5.25,5.25,0,0,0,1.72,5.43C210.08,287.83,210.54,288.05,210.5,288.12Z" style="fill:#263238"></path><path d="M216.59,285.32c0,.05-.5-.1-1.08-.64a4.2,4.2,0,0,1-.39-5.65c.5-.62.95-.83,1-.78s-.3.37-.68,1a4.48,4.48,0,0,0-.68,2.65,4.54,4.54,0,0,0,1,2.54C216.24,285,216.63,285.25,216.59,285.32Z" style="fill:#263238"></path><path d="M224.09,284.36c0,.05-.43-.21-.86-.81a5.46,5.46,0,0,1-.95-2.69,5.53,5.53,0,0,1,.5-2.82c.33-.66.67-1,.72-.94a8.84,8.84,0,0,0-.7,3.71A9,9,0,0,0,224.09,284.36Z" style="fill:#263238"></path><path d="M232.74,276.54c0,.07-.37.31-.89.82a6.34,6.34,0,0,0-1.92,5.12c.06.72.21,1.17.13,1.2s-.33-.38-.5-1.15a5.52,5.52,0,0,1,.26-3,5.39,5.39,0,0,1,1.79-2.44C232.24,276.61,232.71,276.48,232.74,276.54Z" style="fill:#263238"></path><path d="M239.32,277.63c0,.08-.4.26-1,.71a4.89,4.89,0,0,0-1.79,5c.16.71.37,1.13.3,1.17s-.39-.33-.65-1.07a4.59,4.59,0,0,1,1.93-5.39C238.82,277.63,239.31,277.57,239.32,277.63Z" style="fill:#263238"></path><path d="M249.38,281.14a9.81,9.81,0,0,1-1.31.22,7.07,7.07,0,0,0-4.85,3.61c-.38.71-.51,1.21-.59,1.19s-.06-.54.25-1.34a6.29,6.29,0,0,1,2.05-2.62A6.17,6.17,0,0,1,248,281,2.34,2.34,0,0,1,249.38,281.14Z" style="fill:#263238"></path><polygon points="231.07 290.59 215.73 294.35 215.73 250.29 231.07 250.29 231.07 290.59" style="fill:#263238"></polygon><path d="M215.73,257.91s7.79.63,7.67,5.38c-.09,3.58,0,11.75,0,15.54A7.33,7.33,0,0,1,221,284.4a6.11,6.11,0,0,1-5.29,1.51Z" style="fill:#FF725E"></path><path d="M297.43,295.6v19.56a6.73,6.73,0,0,0,6.73,6.73H464l-78.21-32.32-81.6-.7A6.74,6.74,0,0,0,297.43,295.6Z" style="fill:#263238"></path><path d="M439.7,305.38v16.51h23a3.17,3.17,0,0,0,3.17-3.17h0a3.17,3.17,0,0,0-1.92-2.91Z" style="fill:none"></path><path d="M476.1,322.3s-.05.26-.18.78-.33,1.29-.58,2.29c-.52,2-1.29,5-2.27,8.77-2,7.63-4.91,18.64-8.5,32.24l-2.85,10.67c-1,3.73-2,7.55-3.2,11.59,0,0,0,0,0,.06a.27.27,0,0,1-.14.11l-.13,0-.21,0-.39.05-.79.05-1.57.07-3.19.08-6.51.1-13.6.07c-18.61,0-39.07-.06-60.55-.2l-32.86-.26h-.12l-.08-.1L285.16,319.2l0-.05v-.06c1.14-11,2.05-19.77,2.67-25.78.32-3,.56-5.27.73-6.84.09-.77.15-1.36.2-1.77s.08-.59.08-.59,0,.2,0,.6-.08,1-.15,1.77c-.15,1.57-.37,3.87-.65,6.85-.58,6-1.44,14.75-2.51,25.79l0-.12,53.34,69.43-.2-.1,32.85.24c21.48.14,41.94.26,60.55.25l13.59-.05,6.51-.08,3.18-.08,1.57-.06.77-.06.38,0,.17,0,.06,0s0,.14.08.15c-.29-.15-.07-.07-.13-.11,2.27-7.87,4.23-15.39,6.08-22.16,3.65-13.59,6.6-24.58,8.65-32.2,1-3.79,1.82-6.74,2.37-8.75.27-1,.48-1.75.63-2.27S476.1,322.3,476.1,322.3Z" style="fill:#263238"></path><path d="M653.38,349.86c0,.71-13.42,1.31-30,1.67s-30,.18-30-.54,13.39-1.72,30-2.06S653.38,349.14,653.38,349.86Z" style="fill:#263238"></path><path d="M520.1,348.94c0,.72-58.51,1.1-130.66.85S258.78,348.74,258.78,348s58.5-1.09,130.67-.84S520.1,348.22,520.1,348.94Z" style="fill:#263238"></path><path d="M193.17,347.6c0,.72-19.78,1.3-44.17,1.3s-44.17-.58-44.17-1.3,19.77-1.3,44.17-1.3S193.17,346.88,193.17,347.6Z" style="fill:#263238"></path><path d="M276,409.67s.05-.17.16-.49l.51-1.4a54.76,54.76,0,0,0,1.64-5.48,53.91,53.91,0,0,0,.77-20.89,50.94,50.94,0,0,0-4.33-13.8A51.48,51.48,0,0,0,265.26,354a52,52,0,0,0-33.79-15.77c-13.48-1.06-26.7,2-36.52,8.48a51.49,51.49,0,0,0-12.28,11.13,59.1,59.1,0,0,0-7.55,12.36c-.5,1-.9,2-1.28,3s-.8,1.93-1.09,2.89l-.91,2.77c-.24.91-.48,1.79-.71,2.65s-.42,1.68-.58,2.48-.32,1.58-.47,2.32c-.22,1.5-.42,2.86-.61,4.1s-.2,2.33-.29,3.29-.07,1.77-.1,2.42-.05,1.13-.06,1.49,0,.51,0,.51,0-.17,0-.51,0-.85,0-1.49,0-1.47.06-2.43l.24-3.31c.17-1.23.36-2.61.56-4.11l.46-2.33c.15-.81.32-1.65.56-2.5l.69-2.67.9-2.78c.28-1,.69-1.92,1.07-2.91s.78-2,1.27-3a59,59,0,0,1,7.56-12.48,51.34,51.34,0,0,1,12.35-11.26c9.91-6.53,23.23-9.66,36.82-8.6a54.12,54.12,0,0,1,19.16,5.1,53.41,53.41,0,0,1,14.94,10.86,51.81,51.81,0,0,1,9.53,13.73,51.24,51.24,0,0,1,4.3,13.93,53.49,53.49,0,0,1-.93,21,51.52,51.52,0,0,1-1.74,5.47c-.24.59-.42,1.05-.56,1.38S276,409.67,276,409.67Z" style="fill:#263238"></path><path d="M609.29,404.77s0-.18.1-.51.19-.84.32-1.51c.25-1.33.59-3.29.83-5.85a62.3,62.3,0,0,0-1.68-21.53c-2.29-8.84-8.3-18.61-17.89-26a52.23,52.23,0,0,0-16.8-8.59A57.86,57.86,0,0,0,554,338.67a61.76,61.76,0,0,0-19.78,4.56,51.07,51.07,0,0,0-8.53,4.56c-1.32.88-2.63,1.74-3.86,2.7-.61.47-1.25.9-1.84,1.39l-1.74,1.48-.86.73-.81.78-1.6,1.54c-1,1.06-2,2.17-2.92,3.24s-1.76,2.24-2.52,3.4l-1.11,1.75a15.42,15.42,0,0,0-1,1.75,50.91,50.91,0,0,0-5.22,14,31.4,31.4,0,0,0-.66,3.29c-.17,1.08-.38,2.12-.51,3.14-.19,2.06-.46,4-.54,5.81s-.16,3.52-.19,5.08,0,3,0,4.27.07,2.42.13,3.41.1,1.82.14,2.5.06,1.17.08,1.54a5.09,5.09,0,0,1,0,.52s0-.17-.06-.52-.08-.88-.13-1.53-.12-1.52-.19-2.5-.18-2.13-.18-3.41-.07-2.72-.1-4.28.1-3.27.15-5.09.33-3.77.5-5.84c.13-1,.33-2.08.5-3.16a31.58,31.58,0,0,1,.64-3.31,51.37,51.37,0,0,1,5.2-14.1,17.44,17.44,0,0,1,1-1.77l1.11-1.77c.77-1.17,1.68-2.27,2.54-3.44s1.9-2.2,2.93-3.28l1.61-1.56.82-.79L518,353l1.75-1.48c.59-.5,1.23-.94,1.85-1.42,1.23-1,2.55-1.83,3.88-2.71a50.28,50.28,0,0,1,8.61-4.62A61.91,61.91,0,0,1,554,338.15a58.17,58.17,0,0,1,20.34,2.11,52.41,52.41,0,0,1,17,8.7c9.66,7.51,15.69,17.38,18,26.31a61.57,61.57,0,0,1,1.53,21.65A42.82,42.82,0,0,1,609.29,404.77Z" style="fill:#263238"></path><rect x="470.19" y="395.91" width="2.27" height="7.42" style="fill:#263238"></rect><rect x="313.78" y="396.26" width="2.27" height="7.42" style="fill:#263238"></rect><path d="M615.35,358.79l-.33-.33-.93-1c-.84-.87-2.07-2.15-3.78-3.67a60.91,60.91,0,0,0-6.58-5.09,67.23,67.23,0,0,0-9.68-5.23,71.61,71.61,0,0,0-12.69-4.1l-1.77-.42c-.59-.12-1.2-.21-1.81-.32l-3.73-.62-3.87-.41-2-.21c-.66-.06-1.33-.06-2-.1l-4.09-.16c-1.38-.05-2.78,0-4.2.05l-2.13,0a19.17,19.17,0,0,0-2.14.11l-4.35.39a64.87,64.87,0,0,0-17.45,4.75,60.56,60.56,0,0,0-15.29,9.67,73.17,73.17,0,0,0-11.37,12.49c-1.61,2.17-3,4.4-4.35,6.58-.64,1.1-1.3,2.19-1.88,3.28a33.81,33.81,0,0,0-1.56,3.29,40.56,40.56,0,0,0-2.08,6.61c-.25,1.08-.42,2.15-.61,3.21a12,12,0,0,1-.38,1.57l-.23.75-.29.73a14.71,14.71,0,0,1-7.63,7.79,14.33,14.33,0,0,1-4.4,1.19,33.72,33.72,0,0,1-3.82.09l-5.27-.05-1.37,0-.47,0,.47,0,1.37,0,5.27-.05a36.52,36.52,0,0,0,3.8-.14,14,14,0,0,0,4.3-1.21,14.41,14.41,0,0,0,7.41-7.66l.28-.71.22-.74a12.92,12.92,0,0,0,.36-1.52c.18-1.05.35-2.15.6-3.24a40.27,40.27,0,0,1,2.07-6.68c.46-1.12,1-2.24,1.56-3.34s1.24-2.19,1.89-3.3c1.33-2.2,2.74-4.44,4.35-6.63a72.93,72.93,0,0,1,11.43-12.59A60.19,60.19,0,0,1,531.62,342a64.86,64.86,0,0,1,17.6-4.78l4.37-.4c.73-.08,1.45-.09,2.16-.1l2.14,0c1.42,0,2.83-.09,4.22,0l4.11.18c.68,0,1.35,0,2,.1l2,.21c1.32.14,2.62.26,3.89.42l3.75.65c.61.11,1.22.19,1.82.32l1.78.43a70.65,70.65,0,0,1,12.73,4.19,64.5,64.5,0,0,1,9.7,5.32,59,59,0,0,1,6.56,5.18c1.69,1.54,2.9,2.85,3.71,3.74l.9,1C615.26,358.66,615.35,358.79,615.35,358.79Z" style="fill:#455a64"></path><rect x="612.35" y="357.45" width="24.8" height="22.77" style="fill:#263238"></rect><path d="M665.37,340c-1.12-.14-13.38,1.17-13.38,1.17l2.82,17.73h16.58Z" style="fill:#fff;opacity:0.4"></path><rect x="637.15" y="358.86" width="43.27" height="4.71" style="fill:#263238"></rect><rect x="634.95" y="373.22" width="45.66" height="5.39" style="fill:#263238"></rect><polygon points="109.83 380.16 136.3 380.16 174.99 388.75 174.91 398.56 171.56 398.17 143.74 388.76 112.16 388.08 109.83 380.16" style="opacity:0.30000000000000004"></polygon><path d="M104.83,347.6h8.43L135,312.06l-20.78,4.71S105.46,345.34,104.83,347.6Z" style="fill:#fff;opacity:0.4"></path><path d="M160.64,313.14l44.59-8.5,54.08-10.29,14.9,23.45-77.43-.89L161,316.5A1.7,1.7,0,0,1,160.64,313.14Z" style="fill:#263238"></path><path d="M199.54,317l7.62-12.7-46.65,8.82a1.67,1.67,0,0,0,.33,3.3Z" style="fill:#FF725E"></path><path d="M199.54,317l7.62-12.7-46.65,8.82a1.67,1.67,0,0,0,.33,3.3Z" style="opacity:0.30000000000000004"></path><path d="M216.43,305.38H218a4,4,0,0,1,4,4v7.56a0,0,0,0,1,0,0h-9.63a0,0,0,0,1,0,0v-7.56A4,4,0,0,1,216.43,305.38Z" style="fill:#455a64"></path><path d="M230.18,304.2h1.62a4,4,0,0,1,4,4v8.39a0,0,0,0,1,0,0h-9.63a0,0,0,0,1,0,0V308.2A4,4,0,0,1,230.18,304.2Z" style="fill:#455a64"></path><path d="M245.32,304.2h1.62a4,4,0,0,1,4,4v8.39a0,0,0,0,1,0,0h-9.63a0,0,0,0,1,0,0V308.2A4,4,0,0,1,245.32,304.2Z" style="fill:#455a64"></path><polygon points="391.35 282.98 392.05 286.97 476.1 322.3 487.73 317.41 391.35 282.98" style="fill:#263238"></polygon><path d="M208.16,316.39a5.48,5.48,0,0,0-.52-2.46,4.93,4.93,0,0,0-2-2,9.32,9.32,0,0,0-3.8-.92,86.45,86.45,0,0,0-10.69.22c-4,.28-8.47.77-13.18,1a60.34,60.34,0,0,1-13.33-.55,35.56,35.56,0,0,1-10.43-3.3,23.86,23.86,0,0,1-6-4.28,12.49,12.49,0,0,1-1.32-1.5c-.28-.37-.4-.57-.36-.61s.24.1.59.39.82.75,1.5,1.27a27.72,27.72,0,0,0,6.08,3.73,37.38,37.38,0,0,0,10.17,2.88,64.35,64.35,0,0,0,13,.41c4.65-.24,9.1-.69,13.17-.89a71.56,71.56,0,0,1,10.88.11,9.79,9.79,0,0,1,4.13,1.26,5.38,5.38,0,0,1,2.16,2.51,3.78,3.78,0,0,1,.26,2.06C208.35,316.2,208.2,316.41,208.16,316.39Z" style="fill:#455a64"></path><path d="M150.86,302.84a3.23,3.23,0,1,1-3.23-3.23A3.23,3.23,0,0,1,150.86,302.84Z" style="fill:#455a64"></path><rect x="259.55" y="268.68" width="33.45" height="15.38" style="fill:#455a64"></rect><path d="M312.82,331.38a1.67,1.67,0,1,1-1.67-1.67A1.66,1.66,0,0,1,312.82,331.38Z" style="opacity:0.30000000000000004"></path><path d="M379.71,338.55c0,.14-17.2.26-38.42.26s-38.43-.12-38.43-.26,17.2-.26,38.43-.26S379.71,338.4,379.71,338.55Z" style="fill:#fff"></path><path d="M382,340.85c0,.14-17.2.26-38.42.26s-38.43-.12-38.43-.26,17.2-.26,38.43-.26S382,340.71,382,340.85Z" style="fill:#fff"></path><path d="M384.32,343.15c0,.15-17.21.26-38.43.26s-38.43-.11-38.43-.26,17.21-.26,38.43-.26S384.32,343,384.32,343.15Z" style="fill:#fff"></path><g style="opacity:0.30000000000000004"><path d="M351.7,348.81c1.42,1,.93,3.45-.48,4.49s-3.29,1.11-5,1.14c-4.16.05-8.31.11-12.47,0a13.87,13.87,0,0,1-5.39-.95c-1.67-.78-4.54-3-3.13-4.2C326.22,348.38,351.7,348.81,351.7,348.81Z"></path></g><path d="M253.13,279c-.14,0-.26,0-.26-.08s.12-.08.26-.08.26,0,.26.08S253.28,279,253.13,279Z" style="fill:#263238"></path><path d="M135,312.06a2.33,2.33,0,0,1-.22.46c-.2.34-.43.76-.72,1.27l-2.73,4.62c-2.32,3.89-5.55,9.25-9.15,15.15l-8.71,14.14,0,.1h-.11l-6.17-.08-1.68,0a2.23,2.23,0,0,1-.58-.06,2.23,2.23,0,0,1,.58-.06l1.68-.05,6.17-.08-.17.09,8.59-14.21c3.61-5.9,6.89-11.23,9.29-15.07,1.18-1.87,2.15-3.4,2.86-4.54.33-.48.59-.89.81-1.22S134.93,312.05,135,312.06Z" style="fill:#263238"></path><path d="M123.78,330a63.87,63.87,0,0,1-4.85-6.36,61,61,0,0,1-4.42-6.65,60,60,0,0,1,4.85,6.35A59.45,59.45,0,0,1,123.78,330Z" style="fill:#263238"></path><path d="M321.71,393.58H464.89a5.31,5.31,0,0,1,5.31,5.31v2.34a5.31,5.31,0,0,1-5.31,5.31H321.71A5.51,5.51,0,0,1,316.2,401v-1.93A5.51,5.51,0,0,1,321.71,393.58Z" style="fill:#455a64"></path><rect x="319.52" y="392.15" width="3.09" height="15.7" style="fill:#263238"></rect><rect x="461.03" y="392.15" width="3.09" height="15.7" style="fill:#263238"></rect><path d="M430.3,395.08c0,.15-23.26.26-51.95.26s-52-.11-52-.26,23.26-.26,52-.26S430.3,394.94,430.3,395.08Z" style="fill:#fafafa"></path><path d="M424.71,397.09a86.94,86.94,0,0,1-9.6.26,87.05,87.05,0,0,1-9.61-.26,90.11,90.11,0,0,1,9.61-.26A90,90,0,0,1,424.71,397.09Z" style="fill:#fafafa"></path><path d="M313.69,398.51a1.2,1.2,0,0,1-.28.12l-.84.31a18.26,18.26,0,0,1-3.34.74,21,21,0,0,1-5.42-.12,24.26,24.26,0,0,1-6.85-2.14,26.38,26.38,0,0,1-7.11-5,34.14,34.14,0,0,1-5.91-8.05,49.76,49.76,0,0,1-4.06-10.26c-1.07-3.69-1.7-7.61-2.48-11.57a50.55,50.55,0,0,0-3.25-11.27,21.72,21.72,0,0,0-6.62-8.49,66.61,66.61,0,0,0-8.43-5.22,47.29,47.29,0,0,1-7.28-4.78,18,18,0,0,1-4.58-5.52,13.58,13.58,0,0,1-1.51-5.2,9.84,9.84,0,0,1,.33-3.41,6.35,6.35,0,0,1,.42-1.12s-.14.39-.32,1.15a10.16,10.16,0,0,0-.22,3.36,13.32,13.32,0,0,0,1.56,5.09,17.86,17.86,0,0,0,4.56,5.37,46,46,0,0,0,7.25,4.68,65.56,65.56,0,0,1,8.51,5.22,21.82,21.82,0,0,1,3.88,3.81,24.31,24.31,0,0,1,2.92,4.85,50.73,50.73,0,0,1,3.29,11.38c.78,4,1.41,7.88,2.46,11.53a49.51,49.51,0,0,0,4,10.17,33.8,33.8,0,0,0,5.8,8,25.91,25.91,0,0,0,7,5,22.67,22.67,0,0,0,12.09,2.4,20.26,20.26,0,0,0,3.33-.64l.85-.26Z" style="fill:#455a64"></path><path d="M254,316.21s-.37.23-.92.81a5.56,5.56,0,0,0-1.34,3.18,7.17,7.17,0,0,0,1.51,5.17,13.5,13.5,0,0,0,6,4c2.57,1,5.52,1.66,8.64,2.58a25.84,25.84,0,0,1,9.35,4.5,20.83,20.83,0,0,1,3.81,4.17,26.2,26.2,0,0,1,2.68,5.25A41.64,41.64,0,0,1,286.18,358c.28,4.23.09,8.34.07,12.31a72.44,72.44,0,0,0,.58,11.38,33.58,33.58,0,0,0,1.14,5.17,24.64,24.64,0,0,0,1.86,4.62,12.29,12.29,0,0,0,6.29,6,22.19,22.19,0,0,0,7.24,1.25c2.19.1,4.08.17,5.62.37a18.51,18.51,0,0,1,3.49.73l.86.33.29.13-.31-.08-.87-.28a21.38,21.38,0,0,0-3.48-.63c-1.53-.17-3.41-.2-5.61-.27a22.35,22.35,0,0,1-7.37-1.21,10.92,10.92,0,0,1-3.69-2.34,15.34,15.34,0,0,1-2.84-3.8,25.65,25.65,0,0,1-1.92-4.68,33.47,33.47,0,0,1-1.17-5.23,72.36,72.36,0,0,1-.62-11.46c0-4,.2-8.09-.08-12.27a41.46,41.46,0,0,0-2.39-11.93,26.23,26.23,0,0,0-2.62-5.15,20.13,20.13,0,0,0-3.71-4.08,25.67,25.67,0,0,0-9.17-4.46c-3.09-.93-6-1.64-8.64-2.64a13.85,13.85,0,0,1-6.15-4.19,7.34,7.34,0,0,1-1.48-5.38A5.56,5.56,0,0,1,253,317a3.91,3.91,0,0,1,.73-.58Z" style="fill:#263238"></path><path d="M476.1,322.3l.5,0,1.47.14,5.65.55,20.76,2.14L573,332.41,652,341h.11l0,.12c.75,5.59,1.34,10,1.75,13.08.2,1.5.34,2.66.45,3.47,0,.38.08.68.1.9a1.36,1.36,0,0,1,0,.3l-.06-.3c0-.22-.08-.51-.14-.89-.13-.8-.3-2-.53-3.46l-1.89-13.06.13.13-79.06-8.36-68.47-7.4-20.74-2.31-5.64-.65-1.46-.18Z" style="fill:#263238"></path><path d="M652,341.13a43.92,43.92,0,0,1,6.67-.84,43.31,43.31,0,0,1,6.71-.33,43.11,43.11,0,0,1-6.67.85A44,44,0,0,1,652,341.13Z" style="fill:#263238"></path><path d="M127.3,393.58V361a35.76,35.76,0,0,1,35.77-35.77h76.59a21.54,21.54,0,0,0,21.54-21.55V278.27h15.07l-1.15,24.57c0,18.6-12.52,33.75-31.13,33.75H168.84a25.09,25.09,0,0,0-25.1,25.09v31.9Z" style="fill:#455a64"></path><path d="M369.55,299.15c.07.13-7.91,4-17.81,8.6s-18,8.27-18,8.14,7.92-4,17.82-8.61S369.49,299,369.55,299.15Z" style="fill:#fff"></path><path d="M385.29,299.46a8.42,8.42,0,0,1-1.42.56L380,301.4c-3.29,1.18-7.8,2.89-12.69,5s-9.22,4.24-12.33,5.83l-3.67,1.9a10,10,0,0,1-1.37.66,7.66,7.66,0,0,1,1.27-.83c.84-.51,2.07-1.21,3.6-2.05,3.07-1.68,7.39-3.86,12.3-6s9.44-3.79,12.77-4.88c1.66-.54,3-1,4-1.22A9.14,9.14,0,0,1,385.29,299.46Z" style="fill:#fff"></path><circle cx="224.45" cy="398.55" r="43.39" transform="translate(-216.08 275.45) rotate(-45)" style="fill:#455a64"></circle><circle cx="224.45" cy="398.55" r="32.45" style="fill:#263238"></circle><path d="M224.45,409.07c.15,0,.26,5.05.26,11.28s-.11,11.28-.26,11.28-.26-5.05-.26-11.28S224.31,409.07,224.45,409.07Z" style="fill:#e0e0e0"></path><path d="M221.92,410.34a94.32,94.32,0,0,1-3.54,9.42,93.34,93.34,0,0,1-4,9.22,201.22,201.22,0,0,1,7.57-18.64Z" style="fill:#e0e0e0"></path><path d="M221.92,407.6a24.72,24.72,0,0,1-2.29,2.45c-1.45,1.47-3.46,3.51-5.63,5.8s-4.12,4.39-5.52,5.92a23.1,23.1,0,0,1-2.33,2.41,19.82,19.82,0,0,1,2.06-2.66c1.33-1.59,3.23-3.74,5.41-6s4.23-4.3,5.75-5.71A19.14,19.14,0,0,1,221.92,407.6Z" style="fill:#e0e0e0"></path><path d="M220.59,405a26.29,26.29,0,0,1-3.17,1.74c-2,1-4.72,2.43-7.72,4s-5.69,3.09-7.65,4.18a28.25,28.25,0,0,1-3.2,1.68,3.51,3.51,0,0,1,.78-.59c.52-.35,1.29-.83,2.24-1.41,1.91-1.17,4.58-2.71,7.58-4.32s5.78-3,7.81-3.91c1-.47,1.84-.84,2.42-1.08A3.84,3.84,0,0,1,220.59,405Z" style="fill:#e0e0e0"></path><path d="M219.66,401.09c0,.14-5.67,1.7-12.73,3.48s-12.83,3.11-12.87,3,5.67-1.69,12.74-3.48S219.63,401,219.66,401.09Z" style="fill:#e0e0e0"></path><path d="M217.57,397.71c0,.15-5.64.34-12.59.43s-12.6,0-12.6-.1,5.63-.33,12.59-.42S217.57,397.57,217.57,397.71Z" style="fill:#e0e0e0"></path><path d="M215.93,395.35a19.8,19.8,0,0,1-3.24-.9c-2-.64-4.67-1.62-7.59-2.86s-5.5-2.5-7.33-3.47a18,18,0,0,1-2.9-1.71,27,27,0,0,1,3.06,1.38c1.87.89,4.47,2.09,7.37,3.32s5.58,2.27,7.51,3A24.69,24.69,0,0,1,215.93,395.35Z" style="fill:#e0e0e0"></path><path d="M217.51,390.89a23.25,23.25,0,0,1-2.43-2.14c-1.46-1.36-3.5-3.21-5.81-5.18s-4.47-3.68-6-4.91a23.66,23.66,0,0,1-2.5-2.05,16.58,16.58,0,0,1,2.72,1.75c1.63,1.16,3.83,2.84,6.16,4.82s4.33,3.88,5.73,5.3A18.88,18.88,0,0,1,217.51,390.89Z" style="fill:#e0e0e0"></path><path d="M220.22,390.63a20.68,20.68,0,0,1-1.49-3.05c-.84-1.92-1.93-4.61-3-7.62s-2-5.78-2.52-7.79a18.82,18.82,0,0,1-.8-3.31,24.4,24.4,0,0,1,1.15,3.2c.66,2,1.58,4.72,2.66,7.73s2.12,5.7,2.87,7.65A23.29,23.29,0,0,1,220.22,390.63Z" style="fill:#e0e0e0"></path><path d="M225.44,365.64a23.34,23.34,0,0,1,0,3.42c-.08,2.11-.17,5-.23,8.23s0,6.13,0,8.24a23.07,23.07,0,0,1-.07,3.42,20.68,20.68,0,0,1-.29-3.41c-.1-2.11-.17-5-.12-8.26s.21-6.14.38-8.24A20.71,20.71,0,0,1,225.44,365.64Z" style="fill:#e0e0e0"></path><path d="M227.79,390.63c-.13-.05,1.68-5,4.05-11s4.39-10.87,4.52-10.82-1.67,5-4,11S227.93,390.68,227.79,390.63Z" style="fill:#e0e0e0"></path><path d="M227.64,389.75a22.71,22.71,0,0,1,2.42-2.33c1.53-1.39,3.64-3.32,5.94-5.48s4.35-4.16,5.83-5.61a24.49,24.49,0,0,1,2.46-2.28,19.13,19.13,0,0,1-2.2,2.54c-1.41,1.51-3.43,3.56-5.73,5.73s-4.46,4.06-6.06,5.38A20.17,20.17,0,0,1,227.64,389.75Z" style="fill:#e0e0e0"></path><path d="M228.82,392.44a26.12,26.12,0,0,1,3.26-1.56c2-.91,4.85-2.17,7.93-3.61s5.86-2.78,7.87-3.76a27,27,0,0,1,3.28-1.5,3.51,3.51,0,0,1-.81.54c-.53.32-1.32.76-2.31,1.29-2,1.06-4.72,2.46-7.81,3.9s-5.93,2.65-8,3.48c-1,.41-1.88.74-2.47.94A3.86,3.86,0,0,1,228.82,392.44Z" style="fill:#e0e0e0"></path><path d="M229.54,396.37c0-.14,5.75-1.39,12.91-2.78s13-2.41,13-2.27-5.75,1.39-12.9,2.78S229.57,396.51,229.54,396.37Z" style="fill:#e0e0e0"></path><path d="M231.45,399.85c0-.14,5.64,0,12.59.27s12.58.64,12.58.78-5.65,0-12.6-.26S231.44,400,231.45,399.85Z" style="fill:#e0e0e0"></path><path d="M233,402.3a19.65,19.65,0,0,1,3.19,1.08c1.93.74,4.57,1.87,7.42,3.26s5.36,2.8,7.13,3.87a19.83,19.83,0,0,1,2.8,1.86,23.72,23.72,0,0,1-3-1.54c-1.82-1-4.34-2.33-7.18-3.72s-5.44-2.56-7.34-3.39A25.73,25.73,0,0,1,233,402.3Z" style="fill:#e0e0e0"></path><path d="M231.13,406.67a22.37,22.37,0,0,1,2.31,2.27c1.38,1.43,3.32,3.39,5.52,5.49s4.26,3.92,5.76,5.23a22.44,22.44,0,0,1,2.38,2.19,18.83,18.83,0,0,1-2.62-1.9c-1.56-1.25-3.67-3-5.88-5.15s-4.11-4.11-5.43-5.61A17.92,17.92,0,0,1,231.13,406.67Z" style="fill:#e0e0e0"></path><path d="M228.41,406.78a20.06,20.06,0,0,1,1.32,3.13c.73,2,1.68,4.7,2.6,7.77s1.63,5.88,2.09,7.92a19.06,19.06,0,0,1,.62,3.34,24.44,24.44,0,0,1-1-3.25c-.56-2-1.33-4.8-2.24-7.86S230,412,229.38,410A23.85,23.85,0,0,1,228.41,406.78Z" style="fill:#e0e0e0"></path><circle cx="224.45" cy="398.55" r="14.46" transform="translate(-204.79 556.58) rotate(-80.82)" style="fill:#e0e0e0"></circle><path d="M227.79,398.55a3.34,3.34,0,1,1-3.34-3.34A3.34,3.34,0,0,1,227.79,398.55Z" style="fill:#455a64"></path><circle cx="224.45" cy="389.95" r="1.68" style="fill:#455a64"></circle><path d="M226.76,406.18a1.68,1.68,0,1,1-1.68-1.68A1.68,1.68,0,0,1,226.76,406.18Z" style="fill:#455a64"></path><path d="M217.81,399.69a1.68,1.68,0,1,1-1.68-1.67A1.68,1.68,0,0,1,217.81,399.69Z" style="fill:#455a64"></path><path d="M234.42,398.11a1.68,1.68,0,1,1-1.67-1.67A1.68,1.68,0,0,1,234.42,398.11Z" style="fill:#455a64"></path><path d="M236.51,398.55a23.85,23.85,0,0,0-.48-2.91,11.94,11.94,0,0,0-4.39-6.52,11.78,11.78,0,0,0-5-2.2,11.93,11.93,0,0,0-6.21.54,10.86,10.86,0,0,0-3,1.61,11,11,0,0,0-2.49,2.51,11.77,11.77,0,0,0,0,13.95,11,11,0,0,0,2.49,2.51,10.86,10.86,0,0,0,3,1.61,11.92,11.92,0,0,0,15.6-8.18,23.47,23.47,0,0,0,.48-2.92,4.23,4.23,0,0,1,0,.78,5.66,5.66,0,0,1-.07.93,7.44,7.44,0,0,1-.22,1.26,12.16,12.16,0,0,1-9.51,9.09,12.24,12.24,0,0,1-6.46-.51,12.27,12.27,0,0,1-5.72-4.27,12.23,12.23,0,0,1,0-14.55,12.27,12.27,0,0,1,5.72-4.27,12.18,12.18,0,0,1,11.6,1.81,12.06,12.06,0,0,1,4.37,6.77,8.59,8.59,0,0,1,.22,1.26,5.66,5.66,0,0,1,.07.93A4.08,4.08,0,0,1,236.51,398.55Z" style="fill:#263238"></path><circle cx="555.55" cy="398.55" r="43.39" transform="translate(-119.1 509.57) rotate(-45)" style="fill:#455a64"></circle><circle cx="555.55" cy="398.55" r="32.45" style="fill:#263238"></circle><path d="M555.55,409.07c.14,0,.26,5.05.26,11.28s-.12,11.28-.26,11.28-.26-5.05-.26-11.28S555.41,409.07,555.55,409.07Z" style="fill:#e0e0e0"></path><path d="M553,410.34a97.41,97.41,0,0,1-3.54,9.42,93.34,93.34,0,0,1-4,9.22A201.22,201.22,0,0,1,553,410.34Z" style="fill:#e0e0e0"></path><path d="M553,407.6a24.72,24.72,0,0,1-2.29,2.45c-1.46,1.47-3.46,3.51-5.63,5.8s-4.12,4.39-5.52,5.92a23.1,23.1,0,0,1-2.33,2.41,19.82,19.82,0,0,1,2.06-2.66c1.33-1.59,3.23-3.74,5.41-6s4.23-4.3,5.75-5.71A19.14,19.14,0,0,1,553,407.6Z" style="fill:#e0e0e0"></path><path d="M551.69,405a27.36,27.36,0,0,1-3.17,1.74c-2,1-4.72,2.43-7.72,4s-5.7,3.09-7.65,4.18a28.25,28.25,0,0,1-3.2,1.68,3.51,3.51,0,0,1,.78-.59c.52-.35,1.29-.83,2.24-1.41,1.9-1.17,4.58-2.71,7.58-4.32s5.78-3,7.81-3.91c1-.47,1.84-.84,2.41-1.08A4,4,0,0,1,551.69,405Z" style="fill:#e0e0e0"></path><path d="M550.76,401.09c0,.14-5.67,1.7-12.74,3.48s-12.82,3.11-12.86,3,5.67-1.69,12.74-3.48S550.72,401,550.76,401.09Z" style="fill:#e0e0e0"></path><path d="M548.67,397.71c0,.15-5.64.34-12.6.43s-12.59,0-12.6-.1,5.64-.33,12.6-.42S548.66,397.57,548.67,397.71Z" style="fill:#e0e0e0"></path><path d="M547,395.35a19.8,19.8,0,0,1-3.24-.9c-2-.64-4.67-1.62-7.59-2.86s-5.5-2.5-7.34-3.47a17.51,17.51,0,0,1-2.89-1.71,27,27,0,0,1,3.06,1.38c1.87.89,4.46,2.09,7.37,3.32s5.57,2.27,7.51,3A25.54,25.54,0,0,1,547,395.35Z" style="fill:#e0e0e0"></path><path d="M548.6,390.89a25.34,25.34,0,0,1-2.42-2.14c-1.46-1.36-3.5-3.21-5.81-5.18s-4.47-3.68-6-4.91a23.66,23.66,0,0,1-2.5-2.05,16.58,16.58,0,0,1,2.72,1.75c1.63,1.16,3.83,2.84,6.16,4.82s4.33,3.88,5.73,5.3A17.34,17.34,0,0,1,548.6,390.89Z" style="fill:#e0e0e0"></path><path d="M551.32,390.63a20.68,20.68,0,0,1-1.49-3.05c-.84-1.92-1.93-4.61-3-7.62s-1.95-5.78-2.52-7.79a18.82,18.82,0,0,1-.8-3.31,24.4,24.4,0,0,1,1.15,3.2c.66,2,1.58,4.72,2.66,7.73s2.12,5.7,2.87,7.65A23.29,23.29,0,0,1,551.32,390.63Z" style="fill:#e0e0e0"></path><path d="M556.54,365.64a23.34,23.34,0,0,1,0,3.42c-.08,2.11-.17,5-.23,8.23s0,6.13,0,8.24a24.94,24.94,0,0,1-.07,3.42,19.39,19.39,0,0,1-.29-3.41c-.1-2.11-.17-5-.12-8.26s.21-6.14.38-8.24A19.42,19.42,0,0,1,556.54,365.64Z" style="fill:#e0e0e0"></path><path d="M558.89,390.63c-.13-.05,1.68-5,4-11s4.4-10.87,4.53-10.82-1.67,5-4,11S559,390.68,558.89,390.63Z" style="fill:#e0e0e0"></path><path d="M558.74,389.75a22.71,22.71,0,0,1,2.42-2.33c1.53-1.39,3.64-3.32,5.94-5.48s4.35-4.16,5.83-5.61a23.23,23.23,0,0,1,2.46-2.28,19.13,19.13,0,0,1-2.2,2.54c-1.42,1.51-3.43,3.56-5.73,5.73s-4.46,4.06-6.06,5.38A20.17,20.17,0,0,1,558.74,389.75Z" style="fill:#e0e0e0"></path><path d="M559.92,392.44a26.12,26.12,0,0,1,3.26-1.56c2-.91,4.85-2.17,7.93-3.61s5.86-2.78,7.86-3.76a27.44,27.44,0,0,1,3.29-1.5,3.51,3.51,0,0,1-.81.54c-.54.32-1.32.76-2.31,1.29-2,1.06-4.72,2.46-7.81,3.9s-5.93,2.65-8,3.48c-1,.41-1.89.74-2.48.94A3.87,3.87,0,0,1,559.92,392.44Z" style="fill:#e0e0e0"></path><path d="M560.64,396.37c0-.14,5.75-1.39,12.91-2.78s13-2.41,13-2.27-5.75,1.39-12.91,2.78S560.67,396.51,560.64,396.37Z" style="fill:#e0e0e0"></path><path d="M562.54,399.85c0-.14,5.65,0,12.6.27s12.58.64,12.58.78-5.65,0-12.6-.26S562.54,400,562.54,399.85Z" style="fill:#e0e0e0"></path><path d="M564.05,402.3a19.4,19.4,0,0,1,3.18,1.08c1.94.74,4.58,1.87,7.43,3.26s5.36,2.8,7.13,3.87a19.83,19.83,0,0,1,2.8,1.86,23.72,23.72,0,0,1-3-1.54c-1.82-1-4.34-2.33-7.18-3.72s-5.44-2.56-7.34-3.39A25.73,25.73,0,0,1,564.05,402.3Z" style="fill:#e0e0e0"></path><path d="M562.23,406.67a21.81,21.81,0,0,1,2.3,2.27c1.39,1.43,3.33,3.39,5.53,5.49s4.26,3.92,5.76,5.23a22.44,22.44,0,0,1,2.38,2.19,18.14,18.14,0,0,1-2.62-1.9c-1.56-1.25-3.67-3-5.88-5.15s-4.11-4.11-5.44-5.61A18.21,18.21,0,0,1,562.23,406.67Z" style="fill:#e0e0e0"></path><path d="M559.51,406.78a20.06,20.06,0,0,1,1.32,3.13c.73,2,1.68,4.7,2.6,7.77s1.63,5.88,2.09,7.92a21.77,21.77,0,0,1,.62,3.34,23.38,23.38,0,0,1-1-3.25c-.55-2-1.32-4.8-2.23-7.86s-1.8-5.81-2.45-7.8A23.85,23.85,0,0,1,559.51,406.78Z" style="fill:#e0e0e0"></path><circle cx="555.55" cy="398.55" r="14.46" transform="translate(73.51 883.44) rotate(-80.82)" style="fill:#e0e0e0"></circle><path d="M558.89,398.55a3.34,3.34,0,1,1-3.34-3.34A3.34,3.34,0,0,1,558.89,398.55Z" style="fill:#455a64"></path><circle cx="555.55" cy="389.95" r="1.68" style="fill:#455a64"></circle><path d="M557.86,406.18a1.68,1.68,0,1,1-1.68-1.68A1.68,1.68,0,0,1,557.86,406.18Z" style="fill:#455a64"></path><path d="M548.91,399.69a1.68,1.68,0,1,1-1.68-1.67A1.68,1.68,0,0,1,548.91,399.69Z" style="fill:#455a64"></path><path d="M565.52,398.11a1.68,1.68,0,1,1-1.67-1.67A1.68,1.68,0,0,1,565.52,398.11Z" style="fill:#455a64"></path><path d="M567.61,398.55a23.85,23.85,0,0,0-.48-2.91,12,12,0,0,0-4.4-6.52,11.68,11.68,0,0,0-5-2.2,11.93,11.93,0,0,0-6.21.54,10.86,10.86,0,0,0-3,1.61,11,11,0,0,0-2.49,2.51,11.77,11.77,0,0,0,0,13.95,11,11,0,0,0,2.49,2.51,10.86,10.86,0,0,0,3,1.61,11.84,11.84,0,0,0,11.2-1.66,12,12,0,0,0,4.4-6.52,23.47,23.47,0,0,0,.48-2.92,4.23,4.23,0,0,1,0,.78,5.66,5.66,0,0,1-.07.93,8.59,8.59,0,0,1-.22,1.26,12.16,12.16,0,0,1-9.51,9.09,12.24,12.24,0,0,1-6.46-.51,12.14,12.14,0,0,1-5.72-4.27,12.19,12.19,0,0,1,0-14.55,12.14,12.14,0,0,1,5.72-4.27,12.18,12.18,0,0,1,11.6,1.81,12.06,12.06,0,0,1,4.37,6.77,8.59,8.59,0,0,1,.22,1.26,5.66,5.66,0,0,1,.07.93A4.08,4.08,0,0,1,567.61,398.55Z" style="fill:#263238"></path><path d="M403.32,250.29l62.73-24.94-1.51-6H342.09a63.1,63.1,0,0,0-15.41,8,12.48,12.48,0,0,0-.83,19.35h0a12.53,12.53,0,0,0,8.24,3.17Z" style="fill:#263238"></path><path d="M481.29,213.79c0,.15-2.89.88-6.46,1.92s-6.42,2-6.48,1.86a31.12,31.12,0,0,1,6.34-2.36A30.46,30.46,0,0,1,481.29,213.79Z" style="fill:#263238"></path><path d="M469,227a15.83,15.83,0,0,1,1-1.33,9.18,9.18,0,0,0,1.46-3.61,9.32,9.32,0,0,0-.19-3.9,12.29,12.29,0,0,1-.51-1.58,3.49,3.49,0,0,1,.86,1.47,8.17,8.17,0,0,1,.36,4.09,8.08,8.08,0,0,1-1.69,3.75A3.51,3.51,0,0,1,469,227Z" style="fill:#263238"></path><path d="M491.72,220.64a5.75,5.75,0,0,1-2-.2,16.65,16.65,0,0,1-8.43-4.69,5.48,5.48,0,0,1-1.23-1.6,30.92,30.92,0,0,0,5.35,4.11A32,32,0,0,0,491.72,220.64Z" style="fill:#263238"></path><path d="M532.11,221.8l-.78.16-2.32.41-8.9,1.55-32.76,5.58-10.86,1.84c-3.78.62-7.62,1.65-11.61,2.71-8,2.15-16.4,4.67-25.25,7.44s-18.12,5.78-27.57,9.28a45.78,45.78,0,0,0-13.12,7.75,46.55,46.55,0,0,0-10.09,12,29.13,29.13,0,0,0-1.61,3.14l-.07.16H387l-84.74,0h-.2v-.2a54.61,54.61,0,0,1,.68-14.46,59,59,0,0,1,1.54-6.54l1-3c.32-1,.78-1.94,1.16-2.89a26.41,26.41,0,0,1,1.24-2.75l1.3-2.6c.49-.82,1-1.63,1.43-2.42.24-.39.47-.79.7-1.17l.76-1.1,1.47-2.13c.5-.69,1-1.31,1.53-2s1-1.26,1.5-1.83l1.53-1.64a56.44,56.44,0,0,1,10.36-8.62c2.66-1.61,4.13-2.35,4.13-2.35l-1,.63c-.67.43-1.73,1-3,1.83a58.13,58.13,0,0,0-10.25,8.67l-1.51,1.65c-.52.57-1,1.21-1.48,1.83s-1,1.26-1.52,1.95l-1.45,2.12-.75,1.1-.69,1.17-1.41,2.41-1.29,2.6a29.41,29.41,0,0,0-1.23,2.73c-.36,1-.82,1.88-1.13,2.88l-1,3a60.93,60.93,0,0,0-1.51,6.49,54.8,54.8,0,0,0-.64,14.36l-.21-.19,84.74-.05-.24.17a29.41,29.41,0,0,1,1.64-3.21,47,47,0,0,1,10.2-12.15,46.15,46.15,0,0,1,13.27-7.83c9.49-3.51,18.76-6.48,27.61-9.26s17.32-5.27,25.29-7.41c4-1,7.86-2.07,11.64-2.68l10.87-1.81,32.8-5.42,8.92-1.45,2.32-.36Z" style="fill:#263238"></path><path d="M405.26,223.41c0,.14-9.67,3.48-21.69,7.47s-21.8,7.11-21.85,7,9.67-3.48,21.69-7.47S405.21,223.27,405.26,223.41Z" style="fill:#fff"></path><path d="M394,232.38a9.69,9.69,0,0,1-1.44.59c-.93.35-2.3.83-4,1.41-3.38,1.15-8.08,2.67-13.31,4.21s-10,2.81-13.48,3.67c-1.73.43-3.14.76-4.12,1a7.65,7.65,0,0,1-1.53.28,9.54,9.54,0,0,1,1.48-.47l4.08-1.14c3.44-1,8.19-2.27,13.42-3.81s9.94-3,13.35-4.06l4-1.25A8.32,8.32,0,0,1,394,232.38Z" style="fill:#fff"></path></g><g id="freepik--Character--inject-97"><path d="M698.55,265.53a66.45,66.45,0,0,0,5.18-5.31c1.91-2.41,1.7-2.59,1.39-2.77-.85-.49-3.53,4.11-3.52,2.77s3.92-5.23,3-5.7c-1.17-.63-3.89,4.24-4.15,4.64s-.83,0-.58-.33,4.07-5.77,2.92-6.39c-.64-.34-1.13.88-1.13.88s-3.1,5.2-3.63,4.89,1.18-3.44,1.83-4.44.44-1.73-.23-1.66c-.46,0-2.53,3.09-3.15,4.1s-2.29,3.82-2.58,1.75-1.27-3.58-1.81-3.79-1,.46-.68,1a7.93,7.93,0,0,1,.68,2,5.35,5.35,0,0,1,.1,1.69c-.05.49-.11.92-.18,1.31l-.52,3.39L689.37,266l5.24,3.82Z" style="fill:#b78876"></path><path d="M645,278.35c6,3.45,16.62,8.23,23.64,11.29a11.54,11.54,0,0,0,12.5-2.15l15.17-16.74-7.56-5.62-14.54,11.95-21.12-13.53" style="fill:#FF725E"></path><path d="M659.1,268.91c-.36-.34-6.54-7.36-15.14-10.31-4-1.38-15.55,2.78-17.86,3.67-3.43,1.32-7.07,5-7.92,10.84-.75,5.27-3.79,8.35-6.85,25.12-1.74,9.51-2.2,21.79.87,26.69l37.65-12.21-3.24-12.06Z" style="fill:#FF725E"></path><path d="M621.6,268a7.3,7.3,0,0,0-2.59,8.24c3.65,10.69,12.18,34.64,15.63,36.11,4.45,1.9,33.76-5.41,33.76-5.41l-1.26-8.8H641.2l-8.31-26.44A7.3,7.3,0,0,0,621.6,268Z" style="fill:#FF725E"></path><path d="M632.38,272.61a2.49,2.49,0,0,1,.19.45l.49,1.33,1.82,5.11c1.57,4.47,3.8,10.84,6.52,18.61l-.2-.14,25.94,0h.21l0,.2c.52,2.76,1.06,5.67,1.62,8.64l0,.24-.23.06c-2,.54-4.15,1.08-6.32,1.59-4.59,1.08-9.12,2-13.51,2.71-2.19.36-4.36.68-6.48,1l-3.15.39a15.7,15.7,0,0,1-3.14.14,5.48,5.48,0,0,1-2.93-1.05,8.18,8.18,0,0,1-2-2.29,43.91,43.91,0,0,1-2.47-5.09c-1.39-3.37-2.46-6.58-3.52-9.49-2.07-5.79-3.74-10.49-4.91-13.78l-1.31-3.75-.33-1c-.07-.22-.1-.33-.1-.34a1.85,1.85,0,0,1,.15.33c.09.24.22.56.38,1l1.4,3.72,5.07,13.73c1.08,2.89,2.17,6.1,3.57,9.44a43,43,0,0,0,2.46,5,7.79,7.79,0,0,0,1.85,2.15,5,5,0,0,0,2.69.95,14.88,14.88,0,0,0,3-.14l3.15-.41c2.11-.28,4.27-.61,6.46-1,4.38-.73,8.89-1.63,13.47-2.71,2.17-.51,4.3-1,6.3-1.58l-.19.3c-.55-3-1.1-5.89-1.61-8.64l.25.2-25.94,0h-.14l0-.14c-2.65-7.8-4.82-14.19-6.35-18.67-.73-2.2-1.31-3.93-1.71-5.15-.19-.57-.33-1-.44-1.35A3.24,3.24,0,0,1,632.38,272.61Z" style="fill:#263238"></path><g style="opacity:0.2"><path d="M620.1,279.93c1.48,8.73,2.6,17.31,4.08,26,.51,3,1.12,6.2,3.26,8.36a12.08,12.08,0,0,0,6,2.93,9.74,9.74,0,0,0,6.18-.1c1.92-.85,3.33-3.15,2.54-5.09-2.86.61-6.06,1.16-8.52-.4-2.15-1.37-3.1-4-4-6.36-3-8.5-5.9-16.52-9.57-25.37"></path></g><path d="M639.72,243.49a1.36,1.36,0,0,1-2.13,1.31c-.82-.58-.75-1.82-.43-2.77a5.06,5.06,0,0,0,.52-2.92,6.43,6.43,0,0,0-1.28-1.9,4.35,4.35,0,0,1-.65-3.82,3.63,3.63,0,0,1,2.89-2.47c1.36-.18,2.91.46,4-.34.8-.58,1-1.7,1.67-2.44,1-1.14,2.85-1.08,4.33-.65s2.94,1.14,4.47,1a20.6,20.6,0,0,0,3.66-1.2,6.74,6.74,0,0,1,7.34,10.43c-.59.81-1.89,3.21-4.71,2.76" style="fill:#263238"></path><path d="M651,261.94c.2-1.48.33-2.52.33-2.52s4.93,0,6.93-6.15a68.09,68.09,0,0,0,2-12.42,6.72,6.72,0,0,0-6.33-7.34l-13.12-.68-.28,2-3.46,25.23a7,7,0,0,0,6,7.89h0A7,7,0,0,0,651,261.94Z" style="fill:#b78876"></path><path d="M657.8,244.11a.83.83,0,0,1-.91.69.79.79,0,0,1-.71-.86.81.81,0,0,1,.9-.69A.79.79,0,0,1,657.8,244.11Z" style="fill:#263238"></path><path d="M658.73,243.34c-.11.09-.65-.46-1.52-.59s-1.57.19-1.64.07.09-.23.4-.38a2.2,2.2,0,0,1,1.34-.19,2.12,2.12,0,0,1,1.19.6C658.73,243.1,658.79,243.3,658.73,243.34Z" style="fill:#263238"></path><path d="M649.36,242.92a.81.81,0,0,1-.9.69.79.79,0,0,1-.72-.86.81.81,0,0,1,.91-.69A.79.79,0,0,1,649.36,242.92Z" style="fill:#263238"></path><path d="M650.19,242.15c-.11.09-.65-.46-1.52-.6s-1.57.2-1.64.08.09-.23.4-.39a2.36,2.36,0,0,1,1.34-.19,2.13,2.13,0,0,1,1.19.61C650.19,241.91,650.25,242.11,650.19,242.15Z" style="fill:#263238"></path><path d="M652.32,249.07a6.17,6.17,0,0,1,1.44,0c.23,0,.44,0,.51-.14a1.19,1.19,0,0,0,0-.68c-.12-.57-.25-1.16-.38-1.79a28,28,0,0,1-.77-4.64,30.39,30.39,0,0,1,1.14,4.57l.35,1.79a1.25,1.25,0,0,1,0,.89.55.55,0,0,1-.41.26,1.27,1.27,0,0,1-.39,0A5.86,5.86,0,0,1,652.32,249.07Z" style="fill:#263238"></path><path d="M651.29,259.42a16.16,16.16,0,0,1-8-3.58s1.35,4.64,7.73,5Z" style="fill:#aa6550"></path><path d="M649.67,249.27c.14,0,0,.95.7,1.75s1.71.85,1.7,1-.25.15-.68.09a2.35,2.35,0,0,1-1.43-.77,2,2,0,0,1-.52-1.45C649.47,249.47,649.61,249.25,649.67,249.27Z" style="fill:#263238"></path><path d="M651,238.79c-.13.22-1,0-2-.07s-1.9.11-2-.12.13-.31.5-.49a3.37,3.37,0,0,1,1.54-.28,3.3,3.3,0,0,1,1.51.43C650.85,238.47,651,238.68,651,238.79Z" style="fill:#263238"></path><path d="M658.81,240.78c-.18.18-.74-.12-1.46-.25s-1.35-.08-1.45-.3.08-.3.37-.44a2.06,2.06,0,0,1,1.25-.13,2,2,0,0,1,1.1.58C658.85,240.48,658.9,240.7,658.81,240.78Z" style="fill:#263238"></path><path d="M660.92,238.1a9,9,0,0,1-7.46-1.49c-2.62-1.75-5.79-2.84-6.58-2.37s-1.3,3.33-4.18,3.82c0,0-.5,5.51-2.67,5s-.09-11.38-.09-11.38l6.06.64,6-.37,5.41,1.48,4.11,1.7Z" style="fill:#263238"></path><path d="M640,230.14c0-.09.53-.2,1.09.11s.77.83.69.87-.37-.32-.85-.57S640,230.23,640,230.14Z" style="fill:#263238"></path><path d="M642.14,228.58c.1,0,0,.66,0,1.42s.23,1.35.14,1.39a1.72,1.72,0,0,1-.47-1.39A2.23,2.23,0,0,1,642.14,228.58Z" style="fill:#263238"></path><path d="M640.52,240.87c-.09-.06-3.44-1.82-4.06,1.83s3.18,3.53,3.21,3.42S640.52,240.87,640.52,240.87Z" style="fill:#b78876"></path><path d="M638.78,244.55s-.07,0-.18.07a.63.63,0,0,1-.48-.08,1.59,1.59,0,0,1-.49-1.53,2.15,2.15,0,0,1,.33-.88.76.76,0,0,1,.57-.41.33.33,0,0,1,.34.24c0,.11,0,.18,0,.19s.08-.05.08-.21a.4.4,0,0,0-.1-.25.45.45,0,0,0-.34-.15.88.88,0,0,0-.76.45,2.09,2.09,0,0,0-.39,1,1.66,1.66,0,0,0,.66,1.74.66.66,0,0,0,.59,0C638.76,244.64,638.8,244.56,638.78,244.55Z" style="fill:#aa6550"></path><path d="M657.16,275.24c.13.05-1.64,4.59-3.95,10.12s-4.3,10-4.43,9.92,1.63-4.58,4-10.12S657,275.18,657.16,275.24Z" style="fill:#263238"></path><path d="M667.72,299.39s7.62-2.9,11.31,2.63l-10.16,3.25Z" style="fill:#b78876"></path><g style="opacity:0.2"><path d="M674.1,277a19.61,19.61,0,0,0-.75,3.48,6.88,6.88,0,0,0,.51,3.48,1,1,0,0,0,.38.46.71.71,0,0,0,.91-.45,2.07,2.07,0,0,0,0-1.13,2.6,2.6,0,0,0,1.16.92.91.91,0,0,0,1.17-.61,1.32,1.32,0,0,0-.25-.78l-3-5.27"></path></g><path d="M674.32,285.3a6.75,6.75,0,0,1-1.23-4,6.66,6.66,0,0,1,.9-4.09,28.17,28.17,0,0,0-.38,4.07A30.16,30.16,0,0,0,674.32,285.3Z" style="fill:#263238"></path><path d="M639.83,316s35.42-14.86,46.39-15.5c6.87-.4,12.07,4,11.14,11.14-.47,3.56-10.26,45.23-10.26,45.23L672.18,350l7.17-28.81-29.1,14.15Z" style="fill:#263238"></path><path d="M683.82,313.94c.11.1-1.06,1.61-2.29,3.61a42.39,42.39,0,0,1-2.21,3.67,16.22,16.22,0,0,1,4.5-7.28Z" style="fill:#455a64"></path><path d="M686.72,315.59a43.47,43.47,0,0,1-3.81,2.82,42.92,42.92,0,0,1-3.82,2.79,22.37,22.37,0,0,1,7.63-5.61Z" style="fill:#455a64"></path><polygon points="687.26 408.44 687.2 400.73 675.17 401.93 675.37 407.27 675.17 407.83 687.26 408.44" style="fill:#e0e0e0"></polygon><path d="M687.52,410.19l.08-2.24-12.47-.63-.37,4.83.77.12c3.4.49,17.35,2.26,19.7,1.77C697.85,413.49,687.52,410.19,687.52,410.19Z" style="fill:#FF725E"></path><g style="opacity:0.5"><path d="M679.27,412.45A4.43,4.43,0,0,0,678,409.6a3.68,3.68,0,0,0-3-1.11l-.25,3.49Z" style="fill:#fff"></path></g><g style="opacity:0.5"><path d="M692.55,412s3.6,1.39,3.09,2-14.68-.69-20.88-1.8l0-.27,16.5,1.61S691.83,412,692.55,412Z" style="fill:#fff"></path></g><path d="M674.61,411.85l.21,0,.61.09,2.25.29c1.9.24,4.52.54,7.43.8s5.55.44,7.46.54l2.26.11h.83l-.21,0-.62,0-2.26-.16c-1.91-.13-4.54-.32-7.45-.58s-5.53-.54-7.43-.75l-2.25-.25-.61-.06Z" style="fill:#263238"></path><path d="M691.29,413.68a5.32,5.32,0,0,1,.52-1,5.39,5.39,0,0,1,.84-.79,2,2,0,0,0-1.36,1.83Z" style="fill:#263238"></path><path d="M687.8,411.5s.23-.17.43-.44.35-.51.31-.54-.22.18-.43.44S687.76,411.47,687.8,411.5Z" style="fill:#263238"></path><path d="M686.84,410.88s.23-.08.46-.26.4-.34.38-.37-.24.08-.47.25S686.82,410.84,686.84,410.88Z" style="fill:#263238"></path><path d="M686.31,409.65a1.58,1.58,0,0,0,.64.14,1.39,1.39,0,0,0,.65,0,1.52,1.52,0,0,0-.64-.14A1.41,1.41,0,0,0,686.31,409.65Z" style="fill:#263238"></path><path d="M686.17,408.81a1.3,1.3,0,0,0,.7.27,1.24,1.24,0,0,0,.75,0,3.39,3.39,0,0,0-.73-.12A4.13,4.13,0,0,0,686.17,408.81Z" style="fill:#263238"></path><path d="M688.31,410.45a2.32,2.32,0,0,0,.8.07,5,5,0,0,0,.87-.11,2.21,2.21,0,0,0,.5-.16.45.45,0,0,0,.22-.23.33.33,0,0,0-.09-.33,1.47,1.47,0,0,0-1.85.27,1.54,1.54,0,0,0-.31.51c0,.13,0,.21,0,.21a2,2,0,0,1,.42-.65,1.46,1.46,0,0,1,.72-.38,1.24,1.24,0,0,1,.94.15c.12.1.06.25-.09.32a2.47,2.47,0,0,1-.46.15,5.23,5.23,0,0,1-.84.14C688.62,410.45,688.32,410.43,688.31,410.45Z" style="fill:#263238"></path><path d="M688.52,410.51a.81.81,0,0,0,.14-.54,1.26,1.26,0,0,0-.17-.61.77.77,0,0,0-.62-.46.32.32,0,0,0-.28.35.8.8,0,0,0,.1.36,2.46,2.46,0,0,0,.33.52c.23.27.42.38.43.36s-.14-.15-.34-.43a2.54,2.54,0,0,1-.29-.5c-.1-.18-.15-.49.06-.51s.39.21.49.38a1.27,1.27,0,0,1,.18.54A4.42,4.42,0,0,1,688.52,410.51Z" style="fill:#263238"></path><path d="M675.17,408.48s.36,0,.91.12a4,4,0,0,1,1.93,1,4,4,0,0,1,1.09,1.87c.14.55.13.91.16.91a.72.72,0,0,0,0-.25,3.37,3.37,0,0,0-.08-.68,3.83,3.83,0,0,0-1.09-2,3.87,3.87,0,0,0-2-1,3.59,3.59,0,0,0-.68,0Z" style="fill:#263238"></path><path d="M680.94,411.38a6.52,6.52,0,0,0,1.79.34,7.2,7.2,0,0,0,1.83,0s-.82-.07-1.81-.17S681,411.34,680.94,411.38Z" style="fill:#263238"></path><path d="M678.51,411.16s0,.18.11.37.1.37.14.37.08-.19,0-.42S678.54,411.14,678.51,411.16Z" style="fill:#263238"></path><path d="M677.69,409.94s0,.16.15.31.24.23.27.2,0-.16-.15-.3S677.72,409.92,677.69,409.94Z" style="fill:#263238"></path><path d="M676.43,409.3c0,.05.17.06.34.14s.3.19.34.16-.06-.2-.28-.3S676.42,409.26,676.43,409.3Z" style="fill:#263238"></path><path d="M675.52,409s0,.1.14.15.2.06.22,0,0-.1-.15-.15S675.53,408.94,675.52,409Z" style="fill:#263238"></path><path d="M612.2,324.92s4.45,5.74,8.7,7.31c5.34,2,44.81,20.6,44.81,20.6s7.15,53.17,6.59,51l16.52-.4-1.8-49c-.22-6.27-5.24-13.47-10.64-16.67L639.83,316Z" style="fill:#263238"></path><path d="M687.33,363.37a2.94,2.94,0,0,1-.06-.67c0-.5-.06-1.14-.11-1.93a62.52,62.52,0,0,0-.65-7,24.31,24.31,0,0,0-3.57-9.71,18.32,18.32,0,0,0-4.24-4.39,50.07,50.07,0,0,0-5.61-3.54c-8-4.56-14.81-9.2-19.88-12.38-2.52-1.61-4.58-2.9-6-3.77l-1.64-1a6.72,6.72,0,0,1-.56-.38,2.6,2.6,0,0,1,.61.29c.39.2,1,.51,1.7.93,1.46.82,3.54,2.05,6.1,3.62,5.12,3.11,12,7.7,19.94,12.24a48.7,48.7,0,0,1,5.66,3.6,18.5,18.5,0,0,1,4.33,4.52,24.08,24.08,0,0,1,3.53,9.92,55.65,55.65,0,0,1,.5,7.09v1.93A3.22,3.22,0,0,1,687.33,363.37Z" style="fill:#455a64"></path><path d="M626.78,330.53c-.06-.07.42-.52,1-1.36a10.14,10.14,0,0,0,1.56-3.67,10,10,0,0,0,0-4,14.63,14.63,0,0,1-.4-1.64,3.54,3.54,0,0,1,.76,1.55,8.83,8.83,0,0,1,.17,4.18,8.64,8.64,0,0,1-1.78,3.79A3.73,3.73,0,0,1,626.78,330.53Z" style="fill:#455a64"></path><path d="M682.75,403.39a.84.84,0,0,1,0-.27l-.1-.81-.33-3.09-1.12-11.4c-.23-2.41-.48-5.05-.75-7.87s-.56-5.86-.78-9.05-.55-6.52-1.13-9.93a41.11,41.11,0,0,0-3-10.23,34.51,34.51,0,0,0-6-8.79,54.18,54.18,0,0,0-7.48-6.59,152,152,0,0,0-14.38-9c-4.19-2.41-7.53-4.46-9.75-6-1.12-.76-2-1.39-2.53-1.82l-.63-.5-.21-.19a1.28,1.28,0,0,1,.24.14c.17.13.39.28.67.46.58.41,1.44,1,2.57,1.75,2.25,1.49,5.61,3.49,9.83,5.85A146.15,146.15,0,0,1,662.26,335a53.18,53.18,0,0,1,7.57,6.63,34.78,34.78,0,0,1,6.1,8.92A40.82,40.82,0,0,1,679,360.88c.58,3.44.87,6.8,1.11,10s.47,6.21.73,9,.47,5.47.68,7.88c.4,4.78.73,8.67,1,11.41.1,1.31.18,2.35.23,3.1,0,.33,0,.6,0,.81A1,1,0,0,1,682.75,403.39Z" style="fill:#455a64"></path><path d="M642.35,290.61a17.3,17.3,0,0,1,1.38-2.72c.91-1.66,2.21-4,3.71-6.55l.28.38-1.9.42-3.15.68-.46.1.17-.44c1-2.48,1.9-4.63,2.55-6.15a16.48,16.48,0,0,1,1.12-2.39,14.7,14.7,0,0,1-.82,2.51c-.57,1.55-1.4,3.72-2.38,6.22l-.29-.34,3.15-.7,1.9-.42.57-.12-.3.51c-1.51,2.58-2.87,4.85-3.86,6.46A20.64,20.64,0,0,1,642.35,290.61Z" style="fill:#fff"></path><path d="M620.1,302.63a31,31,0,0,1-.51-5.27l.44.17c-.22.22-.44.46-.68.69l-1.14,1.14-.33.34-.09-.47a25.21,25.21,0,0,1-.66-4.6,24.47,24.47,0,0,1,1.15,4.51l-.42-.13c.36-.37.73-.76,1.12-1.15l.69-.69.41-.42,0,.59A30,30,0,0,1,620.1,302.63Z" style="fill:#fff"></path><path d="M636.61,304.94a31,31,0,0,1-.51-5.27l.44.17-.68.69-1.14,1.14-.34.34-.08-.47a24.13,24.13,0,0,1-.66-4.61,25.06,25.06,0,0,1,1.15,4.51l-.42-.12,1.12-1.16.69-.68.41-.42,0,.58A30.14,30.14,0,0,1,636.61,304.94Z" style="fill:#fff"></path><path d="M659.3,275.8a29.82,29.82,0,0,1-.51-5.27l.44.17-.68.69-1.14,1.14-.34.34-.09-.47a26.25,26.25,0,0,1-.66-4.61,25.53,25.53,0,0,1,1.16,4.51l-.43-.12,1.13-1.16.68-.68.42-.42,0,.58A29.64,29.64,0,0,1,659.3,275.8Z" style="fill:#fff"></path><path d="M629.15,281.26a29.47,29.47,0,0,1-.51-5.26l.44.16-.68.7L627.26,278l-.34.33-.08-.46a24.33,24.33,0,0,1-.66-4.61,25.06,25.06,0,0,1,1.15,4.51l-.43-.13,1.13-1.15.68-.69.42-.42,0,.59A29.46,29.46,0,0,1,629.15,281.26Z" style="fill:#fff"></path><path d="M671.46,281a29.7,29.7,0,0,1-5.14,1.28l.1-.46.79.57,1.3,1,.38.29-.45.15a23.91,23.91,0,0,1-4.46,1.33,25.57,25.57,0,0,1,4.29-1.8l-.06.44-1.31-.95-.78-.57-.47-.35.57-.11A29.32,29.32,0,0,1,671.46,281Z" style="fill:#fff"></path><path d="M657.42,305.88a30.55,30.55,0,0,1-4.21-3.2l.42-.21c0,.31,0,.64,0,1,0,.55,0,1.09.06,1.61l0,.48-.4-.26a25.9,25.9,0,0,1-3.83-2.64,24.78,24.78,0,0,1,4.09,2.21l-.38.23c0-.52,0-1.05-.08-1.61,0-.33,0-.66,0-1l0-.59.45.38A30,30,0,0,1,657.42,305.88Z" style="fill:#fff"></path><path d="M688.28,273.86a30.3,30.3,0,0,1-4.93,1.92l0-.47.85.47,1.41.78.42.24-.43.21a24.65,24.65,0,0,1-4.25,1.88,24.39,24.39,0,0,1,4-2.33V277l-1.42-.77-.85-.47-.51-.29.56-.18A30.53,30.53,0,0,1,688.28,273.86Z" style="fill:#fff"></path><path d="M621,314.53a29.78,29.78,0,0,1-5.29.28l.19-.43.66.71,1.09,1.18.33.36-.47.06a25,25,0,0,1-4.63.46,24.49,24.49,0,0,1,4.55-.95l-.15.42-1.1-1.18-.66-.71-.4-.44h.59A29.54,29.54,0,0,1,621,314.53Z" style="fill:#fff"></path></g></svg>