<svg xmlns="http://www.w3.org/2000/svg" viewBox="0 0 500 500"><g id="freepik--background-simple--inject-105"><g id="freepik--background-simple--inject-105"><path d="M466.12,310.88c10-27.91,11.68-63.36-.8-90.59-8.26-18-22.25-31.74-36.91-43.36C410.28,162.56,392,148.47,374,134c-43.65-35-94.82-76-151.36-63.55-22.35,4.91-43.12,18.65-57.92,38.32C149,129.57,139.62,156.94,120,172.87c-18.39,14.93-40.78,19.62-57.93,37.27A119.66,119.66,0,0,0,30.91,271C13,366.62,97.76,422.27,169.38,427.82a216.17,216.17,0,0,0,85.07-10.33l.24-.08c29-9.75,56.88-22.2,87.25-25.42,28.39-3,58.39-6.05,83-24C443.63,354.4,457.88,333.88,466.12,310.88Z" style="fill:#92E3A9"></path><path d="M466.12,310.88c10-27.91,11.68-63.36-.8-90.59-8.26-18-22.25-31.74-36.91-43.36C410.28,162.56,392,148.47,374,134c-43.65-35-94.82-76-151.36-63.55-22.35,4.91-43.12,18.65-57.92,38.32C149,129.57,139.62,156.94,120,172.87c-18.39,14.93-40.78,19.62-57.93,37.27A119.66,119.66,0,0,0,30.91,271C13,366.62,97.76,422.27,169.38,427.82a216.17,216.17,0,0,0,85.07-10.33l.24-.08c29-9.75,56.88-22.2,87.25-25.42,28.39-3,58.39-6.05,83-24C443.63,354.4,457.88,333.88,466.12,310.88Z" style="fill:#fff;opacity:0.5"></path></g></g><g id="freepik--Trees--inject-105"><g id="freepik--trees--inject-105"><path d="M441.1,404.5s-.24-2.86,1.18-4.15,4.11-2.13,5.11-4.53-.69-5.27,2.11-8.06,3-2.16,3.54-6.9,3.76-4.51,4.91-7.17-.52-5.88,3-9.65,1.41-7.75,3.2-9.71,3.46-2.41,4.1-5.71-1.65-4-.09-7.61.19-5.09-1.12-3.39-2.53,3.72-5.54,5-3.78,4.22-3.78,7-5.28,3.48-6.26,5.54-.16,5.84-2.65,8.1-4.91,2.82-5.06,5.87-3.81,2.74-5.33,6.07.17,4.63-1.86,7.32-6,2.22-6.3,6.22-2,5.34-5.17,8.25Z" style="fill:#92E3A9"></path><line x1="463.65" y1="346.93" x2="434.27" y2="401.6" style="fill:none;stroke:#263238;stroke-linecap:round;stroke-linejoin:round"></line><polyline points="436.56 390 437.74 395.01 442.45 393.83" style="fill:none;stroke:#263238;stroke-linecap:round;stroke-linejoin:round"></polyline><polyline points="442.35 377.91 443.9 383.62 449 381.64" style="fill:none;stroke:#263238;stroke-linecap:round;stroke-linejoin:round"></polyline><polyline points="447.62 367.52 449.55 373.49 454.76 371.34" style="fill:none;stroke:#263238;stroke-linecap:round;stroke-linejoin:round"></polyline><polyline points="453.47 357.99 455.14 363.1 459.46 361.02" style="fill:none;stroke:#263238;stroke-linecap:round;stroke-linejoin:round"></polyline><path d="M441.1,404.5s-.24-2.86,1.18-4.15,4.11-2.13,5.11-4.53-.69-5.27,2.11-8.06,3-2.16,3.54-6.9,3.76-4.51,4.91-7.17-.52-5.88,3-9.65,1.41-7.75,3.2-9.71,3.46-2.41,4.1-5.71-1.65-4-.09-7.61.19-5.09-1.12-3.39-2.53,3.72-5.54,5-3.78,4.22-3.78,7-5.28,3.48-6.26,5.54-.16,5.84-2.65,8.1-4.91,2.82-5.06,5.87-3.81,2.74-5.33,6.07.17,4.63-1.86,7.32-6,2.22-6.3,6.22-2,5.34-5.17,8.25Z" style="opacity:0.2"></path><path d="M75.69,389.78s-4.66-2.1-4.8-6.21c-.1-2.77.79-7.13-1-10.46s-6.51-4.09-7-9.76.32-5.3-4.42-10.31S56.91,344.7,55,341s-7-4.83-8-12.23-7.34-8.71-7.86-12.51.5-6.08-2.59-9.83-5.94-1.83-8.56-6.91-5.49-4.91-4.8-1.88,1.81,6.24.5,10.81,1.21,8.09,4.32,10.67-1,9.08.4,12.08,6.36,5.55,6.58,10.41-1.38,8.06,1.88,11-.46,6.77,1.84,11.54,5.33,4.07,6.44,8.82-3,8.68,1.13,12.74,4.14,7.12,4.42,13.36Z" style="fill:#92E3A9"></path><line x1="28.75" y1="307.13" x2="64.03" y2="393.81" style="fill:none;stroke:#263238;stroke-linecap:round;stroke-linejoin:round"></line><polyline points="52.74 380.01 59.71 383.45 62.86 376.84" style="fill:none;stroke:#263238;stroke-linecap:round;stroke-linejoin:round"></polyline><polyline points="44.27 361.66 52.38 365.35 55 357.51" style="fill:none;stroke:#263238;stroke-linecap:round;stroke-linejoin:round"></polyline><polyline points="37.26 345.54 46.05 349.04 48.56 340.93" style="fill:none;stroke:#263238;stroke-linecap:round;stroke-linejoin:round"></polyline><polyline points="31.81 329.58 39.35 332.56 41.09 325.55" style="fill:none;stroke:#263238;stroke-linecap:round;stroke-linejoin:round"></polyline><path d="M75.69,389.78s-4.66-2.1-4.8-6.21c-.1-2.77.79-7.13-1-10.46s-6.51-4.09-7-9.76.32-5.3-4.42-10.31S56.91,344.7,55,341s-7-4.83-8-12.23-7.34-8.71-7.86-12.51.5-6.08-2.59-9.83-5.94-1.83-8.56-6.91-5.49-4.91-4.8-1.88,1.81,6.24.5,10.81,1.21,8.09,4.32,10.67-1,9.08.4,12.08,6.36,5.55,6.58,10.41-1.38,8.06,1.88,11-.46,6.77,1.84,11.54,5.33,4.07,6.44,8.82-3,8.68,1.13,12.74,4.14,7.12,4.42,13.36Z" style="opacity:0.2"></path><path d="M424.18,381.54s-1.28-2.88.14-4.4,4.24-3.3,5.11-6-1.21-5.63,1.55-8.88,3-2.59,3.21-7.75,3.66-5.19,4.66-8.16-1.08-6.29,2.38-10.67.83-8.48,2.6-10.74,3.51-2.91,3.91-6.53-2.13-4.13-.77-8.19-.24-5.51-1.5-3.55-2.41,4.22-5.54,5.91-3.7,4.88-3.45,7.88-5.38,4.22-6.26,6.53.35,6.31-2.14,9-5,3.47-4.93,6.77-3.87,3.29-5.22,7,.6,5-1.36,8.06-6.23,2.92-6.24,7.26-1.64,5.94-4.84,9.35Z" style="fill:#92E3A9"></path><path d="M424.18,381.54s-1.28-2.88.14-4.4,4.24-3.3,5.11-6-1.21-5.63,1.55-8.88,3-2.59,3.21-7.75,3.66-5.19,4.66-8.16-1.08-6.29,2.38-10.67.83-8.48,2.6-10.74,3.51-2.91,3.91-6.53-2.13-4.13-.77-8.19-.24-5.51-1.5-3.55-2.41,4.22-5.54,5.91-3.7,4.88-3.45,7.88-5.38,4.22-6.26,6.53.35,6.31-2.14,9-5,3.47-4.93,6.77-3.87,3.29-5.22,7,.6,5-1.36,8.06-6.23,2.92-6.24,7.26-1.64,5.94-4.84,9.35Z" style="opacity:0.2"></path><line x1="443.43" y1="314.19" x2="415.44" y2="378.36" style="fill:none;stroke:#263238;stroke-linecap:round;stroke-linejoin:round"></line><polyline points="416.94 365.11 418.73 370.64 423.91 368.87" style="fill:none;stroke:#263238;stroke-linecap:round;stroke-linejoin:round"></polyline><polyline points="422.33 350.98 424.6 357.26 430.16 354.56" style="fill:none;stroke:#263238;stroke-linecap:round;stroke-linejoin:round"></polyline><polyline points="427.31 338.81 430.03 345.35 435.68 342.46" style="fill:none;stroke:#263238;stroke-linecap:round;stroke-linejoin:round"></polyline><polyline points="433 327.56 435.35 333.15 440.01 330.42" style="fill:none;stroke:#263238;stroke-linecap:round;stroke-linejoin:round"></polyline></g></g><g id="freepik--Clouds--inject-105"><g id="freepik--clouds--inject-105"><path d="M211.78,158.19l143.59-.27s-2.13-9.86-9.32-10.12-6.66-3.73-6.66-9.06-6.93-10.39-10.13-9.86c0,0-4.25-19.48-20.5-19.48s-21.59,6.16-23.45,14.95-7.2,10.39-10.66,8.79-10.12-1.6-11.72,6.13-4.53,9.59-9.86,6.93-13.59-3.47-17,2.13-8.53,4.53-12.26,3.19S212.31,154.72,211.78,158.19Z" style="fill:#fff"></path><path d="M155.18,197.87H41.39a6.43,6.43,0,0,1,6.84-4.11s-4.11-12.89,7.9-16.3c6.15-1.75,13.84,6.57,18.46,4.79S84,168.46,93.41,171.07c6,1.67,8,8.52,12.78,8.52s8.87-3.2,11.89,1.6,5.15,4.79,13.14,4.79,9.41,7.81,9.41,7.81S151.63,190.42,155.18,197.87Z" style="fill:#fff"></path><path d="M385.22,207.75h91.67a5.17,5.17,0,0,0-5.51-3.31s3.31-10.39-6.36-13.14c-5-1.4-11.16,5.3-14.87,3.86s-7.55-11.11-15.16-9c-4.88,1.34-6.44,6.86-10.3,6.86s-7.15-2.57-9.58,1.29-4.15,3.86-10.58,3.86-7.58,6.29-7.58,6.29S388.08,201.74,385.22,207.75Z" style="fill:#fff"></path></g></g><g id="freepik--Car--inject-105"><path d="M306.1,263.32l.87,6,107.17-.87-1-6.86-1-.24L404.75,232s1.75-.1,1.75-2.85-4.34-2.53-4.34-2.53l-97.81-.72-22.79-21.27-3.77-1.16L192.64,203l-4.92,1.88-99.33,51a9.83,9.83,0,0,0-3.81,6.16c-.89,4.33-3,30.37-3,30.37l-4,35.74.14,4.13,7.64,44.45L92.86,374s1.75-30.74,17.39-40.56,31.65-5.46,44.26,22.91l87.06-39.16s-5.7-32.74,9-48.74,34-6.93,39.53-2.56Z" style="fill:#92E3A9"></path><path d="M216.55,248.7,192.64,203,88.88,255.76s-3.72,1.41-4.43,8.46-7.18,64.88-7.18,64.88l7.82,47.8,7.83-2.51s3.31-38.5,25.27-44.6,36.5,26.95,36.5,26.95l87.08-40.09s-4.3-21.64,3.93-39.74,30.09-20.45,42.78-11.05l16.4-2.36-9-37.76Z" style="opacity:0.30000000000000004"></path><path d="M390.63,273.34s14.82-.54,24,17.15c6.72,12.91,8,30.05,1.47,43.43-7.33,15-26.38,22-42.09,17.61-19.54-5.48-26.12-33-23.8-50.64Z" style="fill:#263238;stroke:#263238;stroke-miterlimit:10"></path><path d="M390.62,273.29s14.81-.53,24,17.15c6.71,12.92,8,30.06,1.46,43.43-7.33,15-26.38,22-42.09,17.62-19.54-5.49-26.12-33-23.8-50.64Z" style="fill:#fff;stroke:#263238;stroke-miterlimit:10;opacity:0.30000000000000004"></path><path d="M256.39,311.94s12.32-.44,20,14.27c5.59,10.74,6.66,25,1.22,36.12-6.09,12.47-21.94,18.32-35,14.65-16.25-4.56-21.72-27.43-19.79-42.12Z" style="fill:#263238"></path><path d="M256.38,311.91s12.31-.44,20,14.26c5.59,10.74,6.66,25,1.22,36.12a28.24,28.24,0,0,1-16.27,13.9,31.46,31.46,0,0,1-18.73.75c-16.26-4.56-21.73-27.43-19.8-42.11Z" style="fill:#263238;opacity:0.30000000000000004"></path><path d="M93,374.21c.68-9.11,4.5-38.85,25.21-44.42,24.53-6.59,36.5,26.95,36.5,26.95l86.86-39.1s-6-35.48,10.95-50.7,37.57-1,37.57-1l14.81-2.41" style="fill:none;stroke:#263238;stroke-linecap:round;stroke-linejoin:round"></path><path d="M291.9,350q-15.3-1.43-29.95-1.83h-.45c-6.53-6.38-11.55-16.28-13.35-27.88-3.39-21.8,5.84-41.33,20.62-43.63s29.5,13.51,32.89,35.3C304.11,327.67,300,342.24,291.9,350Z" style="fill:#263238"></path><path d="M396.32,333.19c-5.53,10.44-14.13,13.62-21.32,13-9.22-.74-19.28-8.76-22-17.58-3.25-10.38-3.39-22.25-3.39-22.25l-32.31,14.69c-2.78-30-15.55-41.15-22.29-45a13,13,0,0,0-7.25-1.64c-18.36,1.12-35.26,1.8-39.56,29A55.46,55.46,0,0,0,262,348.13a473.35,473.35,0,0,0-110.15,9.74c-10.08-21.07-23.91-28.66-36.06-23.24-15.2,6.78-17.5,38.81-17.5,38.81L92.7,374c1.76-19.74,9.09-41.31,29.2-45s32.79,27.72,32.79,27.72l87.08-40.09c-1.94-9.39-4.71-38.39,13.42-52.55,14.31-11.17,34.88,1.8,34.88,1.8l15.12-3.38,1.78,6.76,105.18-.5L386.5,286.06C396.23,292.94,407.21,312.61,396.32,333.19Z" style="fill:#263238"></path><path d="M80.27,301.7l-3,27.4,5.82,35.84S68.26,353.12,67,333.79,80.27,301.7,80.27,301.7Z" style="fill:#263238"></path><path d="M85.3,377,77.65,329.3l6.93-67.25a8,8,0,0,1,4.3-6.29L191.78,203l84.68.41a9,9,0,0,1,6.14,2.46l20.91,19.74" style="fill:none;stroke:#263238;stroke-linecap:round;stroke-linejoin:round"></path><line x1="128.79" y1="306.48" x2="77.66" y2="329.29" style="fill:none;stroke:#263238;stroke-linecap:round;stroke-linejoin:round"></line><line x1="140.82" y1="301.1" x2="132.39" y2="304.87" style="fill:none;stroke:#263238;stroke-linecap:round;stroke-linejoin:round"></line><line x1="160.39" y1="292.08" x2="151.96" y2="295.84" style="fill:none;stroke:#263238;stroke-linecap:round;stroke-linejoin:round"></line><polyline points="191.91 203.07 216.38 248.26 227.19 309.03 168.12 335.41" style="fill:none;stroke:#263238;stroke-linecap:round;stroke-linejoin:round"></polyline><polyline points="139.68 230.16 146.98 298.52 162.02 322.7" style="fill:none;stroke:#263238;stroke-linecap:round;stroke-linejoin:round"></polyline><path d="M304.69,231,403.83,232a2.61,2.61,0,0,0,1.64-.58h0a2.56,2.56,0,0,0,.29-3.67l-.24-.27a2.54,2.54,0,0,0-1.89-.86l-107.72-.91a8.78,8.78,0,0,0-1.45.12l-71.85,20.62" style="fill:none;stroke:#263238;stroke-linecap:round;stroke-linejoin:round"></path><polygon points="305.42 262.9 306.82 268.91 414.14 268.41 413.15 261.55 305.42 262.9" style="fill:none;stroke:#263238;stroke-linecap:round;stroke-linejoin:round"></polygon><line x1="315.15" y1="262.4" x2="307.7" y2="230.65" style="fill:none;stroke:#263238;stroke-miterlimit:10"></line><line x1="312.15" y1="262.61" x2="304.63" y2="230.88" style="fill:none;stroke:#263238;stroke-miterlimit:10"></line><line x1="411.71" y1="261.26" x2="404.75" y2="232.04" style="fill:none;stroke:#263238;stroke-miterlimit:10"></line><line x1="401.97" y1="231.79" x2="409.28" y2="261.47" style="fill:none;stroke:#263238;stroke-miterlimit:10"></line><polygon points="330.05 231.42 337.32 262.45 315.14 262.4 307.87 231.36 330.05 231.42" style="opacity:0.30000000000000004"></polygon><path d="M329.78,246c1.2,4.83-.7,9.45-4.24,10.33s-7.37-2.33-8.56-7.16.7-9.45,4.24-10.33S328.59,241.19,329.78,246Z" style="fill:#263238"></path><polygon points="383.48 231.87 391.52 261.64 408.95 261.64 402.15 232.41 383.48 231.87" style="opacity:0.30000000000000004"></polygon><path d="M401.17,245.51c1,4.12-.6,8.06-3.62,8.81s-6.29-2-7.31-6.11.61-8.06,3.62-8.81S400.15,241.39,401.17,245.51Z" style="fill:#263238"></path><path d="M328.59,246.31c1,3.93-.58,7.69-3.45,8.41s-6-1.9-7-5.83.57-7.69,3.45-8.4S327.62,242.39,328.59,246.31Z" style="fill:#fff;opacity:0.2"></path><path d="M400.44,245.69c.89,3.57-.52,7-3.13,7.64s-5.45-1.73-6.34-5.3.52-7,3.14-7.63S399.56,242.12,400.44,245.69Z" style="fill:#fff;opacity:0.2"></path><polygon points="333.58 231.36 335.5 239.59 381.75 240.29 379.45 231.87 383.48 231.87 391.52 261.64 387.3 261.7 383.63 248.22 337.32 248.52 340.54 262.33 337.32 262.45 330.05 231.42 333.58 231.36" style="fill:none;stroke:#263238;stroke-linecap:round;stroke-linejoin:round"></polygon><path d="M134.4,251.19l.1,35.37L89.71,308.69,91,270.59a7,7,0,0,1,3.75-6L128,247.3A4.4,4.4,0,0,1,134.4,251.19Z" style="fill:#263238"></path><path d="M210.34,249.09,152,277.72l-5-35.84a7,7,0,0,1,3.78-7.22l34.64-17.46a7,7,0,0,1,9.31,2.92Z" style="fill:#263238"></path><path d="M299.27,225.7l-4,0-72.68,20.95L206,216.75a5.05,5.05,0,0,1,2.66-7.22,4.94,4.94,0,0,1,1.7-.32l67.68-.76h.23a5,5,0,0,1,3.17,1.25l0,0,17.84,16" style="fill:#263238"></path><path d="M299.77,225.78l-4.8-.32-4.4,1.5c-26.86-23.77-56.71-14.71-56.71-14.71l5.59,10.8c-15.82-13.7-31.18-10.56-34-9.12a5.07,5.07,0,0,1,3.31-4.68l69.61-1.07,1.74,0,1.43,1.28,0,0Z" style="fill:#fff"></path><path d="M299.27,225.7l-4,0-72.68,20.95L206,216.75a5.05,5.05,0,0,1,2.66-7.22,4.94,4.94,0,0,1,1.7-.32l67.68-.76h.23a5,5,0,0,1,3.17,1.25l0,0,17.84,16" style="fill:#fff;opacity:0.2"></path><path d="M299.27,225.7l-4,0-72.68,20.95L206,216.75a5.05,5.05,0,0,1,2.66-7.22,4.94,4.94,0,0,1,1.7-.32l67.68-.76h.23a5,5,0,0,1,3.17,1.25l0,0,17.84,16" style="fill:none;stroke:#263238;stroke-linecap:round;stroke-linejoin:round"></path><path d="M296.07,294.39,309.23,290a69,69,0,0,1,7.22,30.91l-13.89,2S302.08,307.76,296.07,294.39Z" style="opacity:0.33"></path><path d="M394.39,294.48l18.68-6.77s12,17.44,5.59,38.11L398.26,329S405.49,311.21,394.39,294.48Z" style="opacity:0.33"></path><path d="M110.32,244.94s-17.9,10-21.88,14.63S80.13,303,80.13,303s2.64-41.21,6.14-45.06S110.32,244.94,110.32,244.94Z" style="opacity:0.30000000000000004"></path><path d="M225.89,301.7l-68.62,31.62s-16.64-17.31-39.35-7.77c0,0,25.13-4.94,38.26,15.38l71-31.9Z" style="opacity:0.30000000000000004"></path><polygon points="78.68 324.01 158.51 288.09 168.12 288.97 78.36 328.55 78.68 324.01" style="opacity:0.30000000000000004"></polygon><polygon points="379.45 231.87 381.75 240.29 335.5 239.59 333.58 231.36 379.45 231.87" style="opacity:0.30000000000000004"></polygon><polygon points="383.63 248.22 387.3 261.7 340.54 262.33 337.32 248.52 383.63 248.22" style="opacity:0.30000000000000004"></polygon><path d="M279.58,354.93c-.29-.1.34-8.26.23-8.77q-1.44-6.72-2.9-13.44-1.76-8.18-3.53-16.35L269.84,300l-2.94-13.64-1.73-8c-.07-.34-.14-.67-.22-1l24.21-3.74s20,3.1,25.81,32.8c3,15.18,1.63,24.9-.28,30.66-.94,2.83-1.84,5.72-3.89,8-5.77,6.36-12.77,8.11-23.22,9.19C285.53,354.39,281.65,354.88,279.58,354.93Z" style="fill:#263238;stroke:#263238;stroke-miterlimit:10"></path><path d="M296.07,352.83c-4,1.13-14.2,1.89-14.43,1.85h0l-8.92-41.34q-2.28-10.59-4.57-21.2-1.14-5.29-2.29-10.6c-.18-.85-.36-1.7-.55-2.55-.24-1.13-.64-1.48.49-1.8,2-.58,4.38-.59,6.36-1l8.85-1.47c2.91-.18,6-1.15,9-.79a15.35,15.35,0,0,1,5.36,1.9,36.18,36.18,0,0,1,14.21,14.87c4.08,7.59,5.94,16.24,6.83,24.75A59,59,0,0,1,315.28,335c-.9,3.87-2.51,8.53-5.84,11.24C305,349.84,302,351.16,296.07,352.83Z" style="fill:#fff;stroke:#263238;stroke-miterlimit:10;opacity:0.30000000000000004"></path><path d="M291.9,350c-7,6.71-21.37,7.2-29.95-1.83-.1-.11-12-16.29-13.8-27.89-3.39-21.8,5.84-41.33,20.62-43.63s29.5,13.51,32.89,35.3C304.11,327.67,300,342.24,291.9,350Z" style="fill:#263238;stroke:#263238;stroke-miterlimit:10"></path><path d="M292.1,350.07c-10.57,10.15-27.53,2.57-30.6-1.94-6.53-6.38-11.35-16.19-13.15-27.78C245,298.55,254.19,279,269,276.72s29.5,13.51,32.89,35.3C304.31,327.77,300.17,342.34,292.1,350.07Z" style="fill:#fff;stroke:#263238;stroke-miterlimit:10;opacity:0.1"></path><path d="M281.92,334.11a10.43,10.43,0,0,1-2.41,1.2c-7.48,2.56-15.92-4.47-18.84-15.7s.76-22.39,8.24-24.94a9.7,9.7,0,0,1,3.64-.51c6.4.31,12.75,6.78,15.2,16.2C290.35,320.31,287.75,330.2,281.92,334.11Z" style="fill:#263238;stroke:#263238;stroke-miterlimit:10"></path><path d="M282,334.58a10.35,10.35,0,0,1-2.44,1.23c-7.57,2.58-16.11-4.53-19.07-15.89s.77-22.66,8.34-25.24a9.75,9.75,0,0,1,3.68-.52c6.48.32,12.9,6.86,15.39,16.4C290.54,320.62,287.92,330.64,282,334.58Z" style="fill:#263238;stroke:#263238;stroke-miterlimit:10"></path><path d="M282.11,334.61a10.71,10.71,0,0,1-2.44,1.22c-7.57,2.59-16.11-4.52-19.07-15.89s.78-22.65,8.34-25.24a9.79,9.79,0,0,1,3.69-.51c6.48.31,12.89,6.85,15.38,16.39C290.64,320.64,288,330.66,282.11,334.61Z" style="fill:#fff;stroke:#263238;stroke-miterlimit:10;opacity:0.30000000000000004"></path><path d="M281.92,334.33c-6.41-.3-12.76-6.77-15.22-16.2-2.6-9.94,0-19.85,5.85-23.74,6.4.31,12.74,6.77,15.2,16.2C290.34,320.53,287.75,330.43,281.92,334.33Z" style="fill:#263238"></path><ellipse cx="275.16" cy="315.24" rx="8.44" ry="13.57" transform="translate(-64.44 70.78) rotate(-13.14)" style="fill:#263238;stroke:#263238;stroke-miterlimit:10"></ellipse><ellipse cx="275.16" cy="315.24" rx="8.44" ry="13.57" transform="translate(-64.44 70.78) rotate(-13.14)" style="fill:#fff;opacity:0.4"></ellipse><path d="M139.57,405.74a27.69,27.69,0,0,0,6.75-2.26c9.57-4.86,18-10.47,21.28-21.65,2.58-8.91,1.24-20.09-1.16-28.86l-12,4.37-4-5.24S160.47,392.52,139.57,405.74Z" style="fill:#263238"></path><path d="M153.1,358s-14.57-30.33-34.73-24.81-20.3,38.47-20.3,38.47,3.64,39.42,34.32,36C157.53,404.88,155.12,371.05,153.1,358Z" style="fill:#263238"></path><path d="M146.17,346.65c-4.53-6.92-11-12.3-19.52-13.83a18.83,18.83,0,0,0-8.28.36c-10,2.73-16.6,12.67-19.16,21.93-3.32,12-.11,28,6.86,38.7,6.09,9.35,15,15.22,26.32,13.86,19.79-2.39,24.45-25.45,21.07-42.61A52.44,52.44,0,0,0,146.17,346.65Z" style="fill:#fff;stroke:#263238;stroke-miterlimit:10;opacity:0.1"></path><path d="M133.83,389.05a10.24,10.24,0,0,1-2.41,1.2c-7.48,2.56-15.92-4.47-18.84-15.7s.76-22.39,8.24-24.94a9.53,9.53,0,0,1,3.64-.51c6.41.31,12.75,6.77,15.21,16.2C142.26,375.24,139.66,385.14,133.83,389.05Z" style="fill:#263238;stroke:#263238;stroke-miterlimit:10"></path><path d="M133.93,389.52a10,10,0,0,1-2.44,1.22c-7.57,2.59-16.11-4.52-19.07-15.88s.78-22.66,8.34-25.24a9.6,9.6,0,0,1,3.69-.52c6.48.32,12.9,6.86,15.38,16.39C142.46,375.56,139.83,385.57,133.93,389.52Z" style="fill:#263238;stroke:#263238;stroke-miterlimit:10"></path><path d="M134,389.55a10.51,10.51,0,0,1-2.44,1.22c-7.57,2.58-16.11-4.53-19.07-15.89s.78-22.65,8.34-25.24a9.59,9.59,0,0,1,3.69-.51c6.48.31,12.9,6.85,15.38,16.39C142.55,375.58,139.92,385.6,134,389.55Z" style="fill:#fff;stroke:#263238;stroke-miterlimit:10;opacity:0.30000000000000004"></path><path d="M133.51,389.57c-7.1-.3-14.58-7-17.29-16.45-2.85-9.94.06-19.85,6.54-23.76,8.86,0,14.11,6.75,16.81,16.17C142.42,375.46,140,385.65,133.51,389.57Z" style="fill:#263238"></path><path d="M137.21,367.86c1.71,7.3-.59,14.08-5.13,15.14s-9.6-4-11.3-11.3.59-14.08,5.13-15.14S135.51,360.56,137.21,367.86Z" style="fill:#263238;stroke:#263238;stroke-miterlimit:10"></path><ellipse cx="126.88" cy="368.81" rx="8.44" ry="13.57" transform="translate(-80.49 38.48) rotate(-13.14)" style="fill:#fff;opacity:0.4"></ellipse><path d="M385.09,313.07c1.89,10.72-2.25,20.41-9.26,21.65s-14.21-6.45-16.11-17.17,2.26-20.4,9.26-21.64S383.2,302.36,385.09,313.07Z" style="fill:#263238;stroke:#263238;stroke-miterlimit:10"></path></g><g id="freepik--Floor--inject-105"><g id="freepik--floor--inject-105"><path d="M461.36,397.68C400.69,371.3,344.3,356.16,296.2,351q-1.57-.17-3.15-.3-15.3-1.43-29.95-1.83h-.45A472.93,472.93,0,0,0,153,358.59q-8.76,1.83-16.94,3.85c-8.39,2.07-16.3,4.27-23.69,6.52q-9.7,3-18.19,6-4,1.4-7.68,2.78c-28.35,10.57-44.28,20-44.28,20,102.8,61.94,307,27.92,387.27,10.1C450.76,403.05,461.36,397.68,461.36,397.68Z" style="fill:#fff"></path><path d="M194.91,351.64c-.26,8.46,10.12,12.67,13.44,13,19.73,1.94,40.89-1.92,58.51,7.17,6.15,3.17,11.44,7.76,17.21,11.59,9.58,6.36,20.41,10.59,31.29,14.31,18.46,6.31,37.83,11.35,57.27,9.79s38.63-9.94,48.75-26.61C421.38,380.89,298.69,330.92,194.91,351.64Z" style="fill:#263238"></path><path d="M460.48,397.64C401.76,369.76,346,356,295.32,350.94l-3.15-.3q-15.3-1.42-29.95-1.83h-.45a472.93,472.93,0,0,0-109.7,9.75q-8.76,1.83-16.94,3.85c-8.39,2.07-16.3,4.27-23.69,6.52q-9.7,3-18.19,6-4,1.39-7.68,2.78c-28.35,10.57-44.28,20-44.28,20" style="fill:none;stroke:#263238;stroke-linecap:round;stroke-linejoin:round"></path></g></g></svg>