<svg xmlns="http://www.w3.org/2000/svg" viewBox="0 0 500 500"><g id="freepik--Mountains--inject-18"><g id="freepik--mountains--inject-18"><path d="M454.61,203.44,413.2,136.55c-.67-1-3.35-1-4,0l-18.55,25.31-17.09-16.39a5.57,5.57,0,0,0-6.85,0l-17.09,16.39L306.12,113c-1.6-1.79-5.65-1.76-7.18,0l-35.47,41.24-27.72-25.4c-1.46-1.6-5-1.77-6.8-.31l-16.76,13.61L175,101c-1.62-1.8-5.74-1.73-7.22.13L119.8,161.38,96.1,135.81c-1.83-2-6.36-1.85-7.92.22L45.39,192.31V308H454.61Z" style="fill:#ebebeb"></path><path d="M87.72,141a5.31,5.31,0,0,1,4.18-.26l3.7,1.37a5.31,5.31,0,0,0,4.22-.28l1.21-.69-4.93-5.32c-1.83-2-6.36-1.85-7.92.22l-5.63,7.45a4.64,4.64,0,0,0,1.59-.51Z" style="fill:#fafafa"></path><path d="M413.2,136.55c-.67-1-3.35-1-4,0l-4.48,6.11L402.35,146l.93,1a3.22,3.22,0,0,0,3.92.18l2.9-2.34a3.32,3.32,0,0,1,3.71,0l1,.79a3.22,3.22,0,0,0,3.88-.19Z" style="fill:#fafafa"></path><path d="M229,128.6l-7,5.68,2.37,1.75a4,4,0,0,0,4.35,0l1.53-1.21a4,4,0,0,1,4.33-.06h0a3.86,3.86,0,0,0,4.6-.31l1.16-1.32-4.56-4.17C234.29,127.31,230.75,127.15,229,128.6Z" style="fill:#fafafa"></path><path d="M298.93,113.07l-13.27,15.44,1.65,2.11c1.08,1.37,4.1,1.48,5.4.18l3-3a4.27,4.27,0,0,1,5-.19h0a4.29,4.29,0,0,0,4.9-.09l3.06-2.66a4.36,4.36,0,0,1,4.44-.38l6,3L306.12,113C304.52,111.23,300.47,111.26,298.93,113.07Z" style="fill:#fafafa"></path><path d="M366.72,145.49l-7.62,7.31,6-2.23a2.9,2.9,0,0,1,2.65.34l1.64,1.36a2.89,2.89,0,0,0,3.05.13l1.4-.86a2.92,2.92,0,0,1,2.85,0l8.81,5.43h0l-12-11.47A5.58,5.58,0,0,0,366.72,145.49Z" style="fill:#fafafa"></path><path d="M167.73,101.12,159,112.07l.95,1a5.21,5.21,0,0,0,6.08.34l2.57-1.83a5.37,5.37,0,0,1,5.66,0l5.51,3.89a5.37,5.37,0,0,0,5.72,0l1.48-1.11L175,101C173.32,99.19,169.21,99.26,167.73,101.12Z" style="fill:#fafafa"></path><g style="opacity:0.05"><polygon points="98.34 138.23 83.09 153 92.05 153 85.39 169.18 99.5 160.1 111.41 172.34 119.8 161.38 98.34 138.23"></polygon><polygon points="175.48 101.57 185.59 131.8 169.32 143.86 167.12 179.1 212.19 142.21 175.48 101.57"></polygon><polygon points="237.01 130.08 230.87 140.83 239.07 140.83 224.33 164.86 247.29 152.94 257.76 161.35 263.47 154.31 237.01 130.08"></polygon><polygon points="349.63 161.88 308.72 115.94 317.02 137.8 303.04 150.81 337.54 157.48 326.44 165.5 332.27 170.12 323.29 187.49 349.63 161.88"></polygon><polygon points="373.56 145.49 366.53 159.04 376.01 158.21 377.33 176.05 390.66 161.88 373.56 145.49"></polygon><polygon points="417.43 143.39 437.67 185.47 421.84 207.83 439.42 204.75 454.61 307.98 454.61 307.98 454.61 203.44 417.43 143.39"></polygon></g></g></g><g id="freepik--Trees--inject-18"><g id="freepik--Pine--inject-18"><path d="M441.7,226.22c-8.78,6.49-49,5.59-58.08,0-.49-2.17-.54-6-.18-11.1l13.72,6.3-13.12-13c.78-7.31,2.06-16.17,3.7-25.77l5,2.69-4.57-5.28c.94-5.42,2-11,3.13-16.74l8.16,6.57L392.18,159c.23-1.18.48-2.37.72-3.55l11.17,9.22-9.46-17.25c1.75-8,3.59-15.81,5.44-23.13l7.29,5.54c-.18-.31-3.09-5.27-6-10.43,2.4-9.14,4.82-17.23,7.07-23.48a4.53,4.53,0,0,1,8.51,0c2.15,6,4.44,13.55,6.73,22.16h0l-4.45,9.78,5.31-6.5c1.44,5.5,2.86,11.35,4.24,17.34l-9.55,21,11.28-13.34c.18.82.37,1.65.54,2.48l-4.59,10.86,5.34-7.39c1.94,9.17,3.72,18.39,5.25,27.1l-13.23,16,14.33-9.56c.32,2,.64,4,.94,5.91l-6.72,7.43,7.51-2.16C441.83,211,442.68,221.91,441.7,226.22Z" style="fill:#e0e0e0"></path><path d="M441.7,226.22c-8.78,6.49-49,5.59-58.08,0-.49-2.17-.54-6-.18-11.1l13.72,6.3-13.12-13c.78-7.31,2.06-16.17,3.7-25.77l5,2.69-4.57-5.28c.94-5.42,2-11,3.13-16.74l8.16,6.57L392.18,159c.23-1.18.48-2.37.72-3.55l11.17,9.22-9.46-17.25c1.75-8,3.59-15.81,5.44-23.13l7.29,5.54c-.18-.31-3.09-5.27-6-10.43,2.4-9.14,4.82-17.23,7.07-23.48a4.53,4.53,0,0,1,8.51,0c2.15,6,4.44,13.55,6.73,22.16h0l-4.45,9.78,5.31-6.5c1.44,5.5,2.86,11.35,4.24,17.34l-9.55,21,11.28-13.34c.18.82.37,1.65.54,2.48l-4.59,10.86,5.34-7.39c1.94,9.17,3.72,18.39,5.25,27.1l-13.23,16,14.33-9.56c.32,2,.64,4,.94,5.91l-6.72,7.43,7.51-2.16C441.83,211,442.68,221.91,441.7,226.22Z" style="opacity:0.15"></path><path d="M414.79,188.87,427,165.81l-12.46,15.27-1.92-71.56-1.5,43.55-8.72-12.61,8.45,20.47L409.37,205l-16.62-15.32,16.4,21.74-1.39,81.47c0,2.57,8.72,2.57,8.72,0l-1.69-104Z" style="fill:#e0e0e0"></path></g><g id="freepik--pine--inject-18"><path d="M485,258.71c-9.18,5.66-50,6.56-58.89,0-.81-3.56-.39-11.56.88-22l11.55,4.92-10.65-11.82c1-7.19,2.34-15.21,3.87-23.59l7.07,3.1-6.61-5.6q.56-2.91,1.11-5.87l11.82,6.81-10.62-12.86c1.32-6.52,2.72-13.08,4.19-19.48l6.09,3.27-5-8.57c1.51-6.24,4.41-17.43,5.93-22.91L452,149l-5.25-8.31c1.55-5.35,3.07-10.13,4.53-14.16a4.58,4.58,0,0,1,8.61,0c2.23,6.14,4.6,14.06,7,23v0L462,160.46l6.4-4.85c1.67,6.58,3.31,13.55,4.91,20.67v0l-8.08,20.36,9.68-12.95c.57,2.72,1.14,5.45,1.69,8.16l-5.76,11.31,6.6-7.08c1.57,8.06,3,16,4.2,23.35h0l-13.17,20.69,14.26-13.63c.34,2.23.64,4.39.92,6.46l-9.94,12.2,10.72-5.73C485.45,248.57,485.73,255.46,485,258.71Z" style="fill:#e0e0e0"></path><path d="M472.07,209.45l-13.36,18.91-1.4-40.82,7.21-24.41L457,179.8l-1.5-43.74-1.7,63.12-7.5-9,7.28,17.25-1,35.82-15.52-15.43,15.24,25.93-1,39.14c0,2.82,9.55,2.82,9.55,0l-1.77-52.37Z" style="fill:#f0f0f0"></path></g><g id="freepik--pine--inject-18"><path d="M18.75,246.43c8.22,6.06,45.86,5.21,54.35,0,.59-2.56.48-7.57-.14-14.21l-9.78,3.54L72.27,226c-1-8.54-2.67-18.87-4.69-29.77l-5.53,2.3,4.81-6.1c-.2-1.07-.42-2.14-.63-3.22l-13.14,6.69L64.46,180.4c-1.77-8.5-3.67-17-5.63-25l-8.53,7.13,7.38-11.68c-.53-2.13-1.08-4.22-1.62-6.24l-7.55,4.11,6.18-9.08c-1.63-5.8-3.26-11-4.79-15.22a4.23,4.23,0,0,0-7.95,0c-2.3,6.36-4.78,14.8-7.25,24.3,2.15,5,3.85,8.88,3.85,8.88l-5.45-2.52c-.6,2.42-1.18,4.9-1.77,7.4,2.58,7.91,5.8,17.83,5.8,18l-7-12.61C22.67,200.85,16.77,237.76,18.75,246.43Z" style="fill:#e0e0e0"></path><path d="M43.93,211.46,32.46,189.87l11.67,14.3,1.79-67L47.32,178l8.17-11.8-7.91,19.16L49,226.58l15.55-14.34L49.2,232.59l1.3,51c0,2.41-8.15,2.41-8.15,0l1.58-72.09Z" style="fill:#f0f0f0"></path></g><g id="freepik--pine--inject-18"><path d="M63.28,226.82c8.65,5.31,47,6.16,55.36,0a29.63,29.63,0,0,0,.34-7l-8.93,4,8.31-12.75c-.53-5.28-1.36-11.49-2.42-18.26l-8.7,4.55,7.64-11.06q-.27-1.62-.57-3.27l-14.09,8.17,12.29-18.16c-1.89-10-4.09-20.45-6.38-30.37L98,148.83l6.52-13.17c-.31-1.27-.63-2.51-.92-3.74l-8.07,6.41,6.17-13.74c-2.25-8.54-4.52-16.13-6.63-22a4.32,4.32,0,0,0-8.12,0c-2,5.62-4.19,12.82-6.36,21L83,138.33l-4.66-6.17c-2,8.24-4.07,17.1-5.92,26l6.1,19.07L70.63,166.8c-1.79,9-3.37,17.81-4.62,25.84l3.53,8.65-4.43-2.68c-.31,2.13-.59,4.2-.83,6.17L72,217.61l-8.4-6.79C62.8,218.35,62.64,224,63.28,226.82Z" style="fill:#e0e0e0"></path><path d="M63.28,226.82c8.65,5.31,47,6.16,55.36,0a29.63,29.63,0,0,0,.34-7l-8.93,4,8.31-12.75c-.53-5.28-1.36-11.49-2.42-18.26l-8.7,4.55,7.64-11.06q-.27-1.62-.57-3.27l-14.09,8.17,12.29-18.16c-1.89-10-4.09-20.45-6.38-30.37L98,148.83l6.52-13.17c-.31-1.27-.63-2.51-.92-3.74l-8.07,6.41,6.17-13.74c-2.25-8.54-4.52-16.13-6.63-22a4.32,4.32,0,0,0-8.12,0c-2,5.62-4.19,12.82-6.36,21L83,138.33l-4.66-6.17c-2,8.24-4.07,17.1-5.92,26l6.1,19.07L70.63,166.8c-1.79,9-3.37,17.81-4.62,25.84l3.53,8.65-4.43-2.68c-.31,2.13-.59,4.2-.83,6.17L72,217.61l-8.4-6.79C62.8,218.35,62.64,224,63.28,226.82Z" style="opacity:0.15"></path><path d="M93,191.21l11.68-22L92.79,183.79,91,115.59l-1.43,41.5-8.31-12,8.06,19.5-1.45,42L72,192l15.63,20.72L86.3,283.55c0,2.45,8.3,2.45,8.3,0L93,191.21Z" style="fill:#e0e0e0"></path></g></g><g id="freepik--Floor--inject-18"><g id="freepik--floor--inject-18"><ellipse id="freepik--floor--inject-18" cx="249.53" cy="347.39" rx="235.01" ry="135.68" style="fill:#f0f0f0"></ellipse><path d="M309.54,478.59c38.9-5.91,75.68-17.65,106.17-35.26C455,420.68,477.4,392,483.08,362.45L223.45,212.56c-51.18,3.28-100.85,16.24-140.1,38.89-30.48,17.61-50.83,38.84-61.06,61.29Z" style="fill:#fafafa"></path></g></g><g id="freepik--Clouds--inject-18"><path id="freepik--Cloud--inject-18" d="M70,61.88c0-5.4,5.92-9.16,12.62-9.79,7.9-.74,13.5,2.78,13.69,9,5.16-2.12,10.61-.76,10.2,4.91,1.34-1.55,6.37-1.5,8.17-1.07a7.07,7.07,0,0,1,4.5,3.83,5.32,5.32,0,0,1,.47,2.91c3-1,9.85-1.59,11.57,1.17,3,4.92-9.13,5.07-11.59,3.59-.52,3.82-13.6,4.45-16.77.92-2.48,2.49-6,3-9.87,3.27-6.47.39-10.44-1.81-15.5-4.39C72,80.89,62.5,81,57.56,75.65c-1.27,1.19-4.74,1.56-7.53.89-1.83-.43-2.25-1.21-2.25-1.21a16.56,16.56,0,0,1-3.36,1c-3.59.75-10.27,0-7.47-3.28,1-1.1,4.45-1.8,5.93-1.46,1.57-3.08,7.86-6,11.46-3.39.14-3.73,3.55-6.65,8.35-7.39C64.3,60.57,68.16,60.35,70,61.88Z" style="fill:#ebebeb"></path><path id="freepik--cloud--inject-18" d="M167.6,37.47c0-4.17,4.57-7.07,9.75-7.55,6.1-.58,10.42,2.14,10.57,6.94,4-1.63,8.19-.58,7.88,3.8,1-1.19,4.92-1.16,6.31-.83a5.46,5.46,0,0,1,3.47,3,3.91,3.91,0,0,1,.36,2.25c2.33-.76,7.62-1.23,8.94.9,2.35,3.8-7,3.92-8.95,2.77-.4,2.95-10.51,3.44-13,.71-1.91,1.93-4.66,2.35-7.62,2.53-5,.3-8.07-1.4-12-3.39-4.24,3.6-11.58,3.66-15.4-.45-1,.92-3.66,1.2-5.81.69-1.41-.34-1.74-.94-1.74-.94a12,12,0,0,1-2.6.78c-2.77.58-7.93,0-5.76-2.53.73-.85,3.43-1.39,4.58-1.12,1.21-2.38,6.06-4.64,8.85-2.63.1-2.88,2.74-5.13,6.45-5.7C163.2,36.46,166.18,36.3,167.6,37.47Z" style="fill:#ebebeb"></path><path id="freepik--cloud--inject-18" d="M401.85,45.17c0-4.17,4.57-7.07,9.75-7.55,6.1-.58,10.42,2.14,10.57,6.94,4-1.63,8.19-.58,7.88,3.8,1-1.2,4.92-1.16,6.31-.83a5.46,5.46,0,0,1,3.47,3,4,4,0,0,1,.36,2.25c2.33-.77,7.62-1.23,8.94.9,2.35,3.8-7.05,3.92-8.95,2.77-.4,3-10.51,3.44-12.95.71-1.92,1.93-4.66,2.35-7.62,2.53-5,.3-8.07-1.4-12-3.39-4.24,3.6-11.58,3.66-15.4-.45-1,.92-3.66,1.2-5.81.69-1.42-.34-1.74-.94-1.74-.94a12.59,12.59,0,0,1-2.6.78c-2.77.58-7.93,0-5.76-2.53.73-.85,3.43-1.39,4.58-1.12,1.21-2.38,6.06-4.64,8.85-2.63.1-2.88,2.74-5.13,6.45-5.71C397.45,44.16,400.43,44,401.85,45.17Z" style="fill:#ebebeb"></path></g><g id="freepik--Sun--inject-18"><circle id="freepik--sun--inject-18" cx="324.35" cy="70.36" r="13.97" transform="translate(45.25 249.96) rotate(-45)" style="fill:#ffbda7"></circle></g><g id="freepik--Shadow--inject-18"><path id="freepik--shadow--inject-18" d="M160.82,229.09,67.57,282.7c-13.16,7.56-11.59,20.75,3.5,29.46L292,439.75c75.48,43.69,201.45-47,141.12-80.87l-227.93-132C190.06,218.15,174,221.52,160.82,229.09Z" style="fill:#e0e0e0"></path></g><g id="freepik--pick-up-truck--inject-18"><g id="freepik--Vehicle--inject-18"><path d="M80.47,280.39l90.58-52.3h0c3.32-17.72,2.38-42.32-1.26-66.27L80.5,213.38Z" style="fill:#37474f"></path><polygon points="180.98 343.95 277.7 289.56 171.04 228.09 80.47 280.39 180.98 343.95" style="fill:#455a64"></polygon><path d="M159.22,245.91l85.94,49.61a9.18,9.18,0,0,0,8.26-.11l6.46-3.74c2.33-1.34,2.42-3.47.19-4.76L174.13,237.3a9.09,9.09,0,0,0-8.25.11l-6.47,3.73C157.08,242.49,157,244.62,159.22,245.91Z" style="fill:#263238"></path><path d="M138.15,258.07l85.94,49.61a9.09,9.09,0,0,0,8.25-.11l6.47-3.73c2.33-1.34,2.41-3.48.18-4.76l-85.93-49.61a9.11,9.11,0,0,0-8.26.11l-6.46,3.73C136,254.65,135.92,256.79,138.15,258.07Z" style="fill:#263238"></path><path d="M117.07,270.24,203,319.85a9.11,9.11,0,0,0,8.26-.11l6.46-3.73c2.33-1.35,2.42-3.48.19-4.77L132,261.63a9.16,9.16,0,0,0-8.25.11l-6.47,3.74C114.93,266.82,114.85,269,117.07,270.24Z" style="fill:#263238"></path><path d="M96,282.41,181.94,332a9.16,9.16,0,0,0,8.25-.11l6.47-3.73c2.33-1.35,2.41-3.48.19-4.77L110.91,273.8a9.12,9.12,0,0,0-8.26.11l-6.46,3.73C93.86,279,93.77,281.12,96,282.41Z" style="fill:#263238"></path><path d="M276.45,223.28,169.78,161.83c3.64,23.95,4.58,48.55,1.26,66.27L277.7,289.56C281,271.84,280.09,247.23,276.45,223.28Z" style="fill:#263238"></path><path d="M206,222.93a16.48,16.48,0,0,0-8.15-2.47,10,10,0,0,0-5.06,1.31l-10.94,6.33,4.59,9.14A43.3,43.3,0,0,0,189.77,252l24.38,14.07h0l11.38-6.57c0-.22,0-.43,0-.65C225.55,245.27,216.79,229.17,206,222.93Z" style="fill:#455a64"></path><path d="M214.17,265.45c0,.22,0,.45,0,.65h0L189.77,252,175,243.53c0-.23,0-.46,0-.67,0-7.48,2.64-12.65,6.81-14.76,3.43-1.74,7.88-1.41,12.76,1.41a31.59,31.59,0,0,1,7.4,6.09s.05,0,.06.06C209.16,243.46,214.17,255.17,214.17,265.45Z" style="fill:#37474f"></path><path d="M117.35,265.78h0L103.86,258l-14.24,8.25-.05,20.12h0v4.81l1.9-1.11,2-1.14,6.41-3.7,3-1.74,4-2.29,2.61-1.51,3.33-3.12.6-.56,2.61-2.44.91-.86,4.75-4.44Z" style="fill:#263238"></path><path d="M102.81,286.52l-4.6-9.14,11-6.33h0c3.48-2,8.11-1.78,13.2,1.16,10.81,6.24,19.57,22.34,19.57,36,0,7.13-2.4,12.16-6.25,14.44h0l-.16.09h0l-11.22,6.48-4.85-9.64C110.26,312.52,103.17,298.66,102.81,286.52Z" style="fill:#37474f"></path><path d="M102.81,286.52l-4.6-9.14,11-6.33h0c3.48-2,8.11-1.78,13.2,1.16,10.81,6.24,19.57,22.34,19.57,36,0,7.13-2.4,12.16-6.25,14.44h0l-.16.09h0l-11.22,6.48-4.85-9.64C110.26,312.52,103.17,298.66,102.81,286.52Z" style="fill:#263238"></path><path d="M91.41,292.13c0,11.74,6.51,25.33,15.24,32.84l0,0a29.51,29.51,0,0,0,4.29,3.07c10.81,6.25,19.58.27,19.57-13.35,0-10.28-5-22-12.1-29.79a.12.12,0,0,1-.06-.06,31.63,31.63,0,0,0-7.41-6.09C100.16,272.55,91.41,278.52,91.41,292.13Z" style="fill:#37474f"></path><path d="M91.41,292.13c0,11.74,6.51,25.33,15.24,32.84a55.56,55.56,0,0,1-12.42-24c-1.65-7.85-1-19.12,5.71-22s15.62,3.15,18.44,5.88a31.63,31.63,0,0,0-7.41-6.09C100.16,272.55,91.41,278.52,91.41,292.13Z" style="fill:#455a64"></path><path d="M111,286.83c-6.87-4-12.45.25-12.45,9.42S104.1,316.07,111,320s12.46-.24,12.46-9.41S117.85,290.8,111,286.83Zm0,30.35c-5.69-3.29-10.3-12.1-10.3-19.69s4.61-11.08,10.3-7.79,10.31,12.1,10.31,19.69S116.66,320.46,111,317.18Z" style="fill:#f5f5f5"></path><path d="M121.28,309.39a11.27,11.27,0,0,1-1.82,6.73c-1.85,2.53-5,3.09-8.48,1.06-5.7-3.29-10.31-12.1-10.31-19.69,0-5.3,2.25-8.6,5.55-9A7.75,7.75,0,0,1,111,289.7C116.67,293,121.28,301.8,121.28,309.39Z" style="fill:#e0e0e0"></path><path d="M121.28,309.39a11.27,11.27,0,0,1-1.82,6.73c-1.85,2.53-5,3.09-8.48,1.06-5.7-3.29-10.31-12.1-10.31-19.69,0-5.3,2.25-8.6,5.55-9A7.75,7.75,0,0,1,111,289.7C116.67,293,121.28,301.8,121.28,309.39Z" style="opacity:0.4"></path><path d="M121.28,309.39a11.27,11.27,0,0,1-1.82,6.73,7.73,7.73,0,0,1-4.77-1.19c-5.69-3.28-10.3-12.09-10.3-19.68a11.28,11.28,0,0,1,1.83-6.74A7.75,7.75,0,0,1,111,289.7C116.67,293,121.28,301.8,121.28,309.39Z" style="fill:#263238"></path><path d="M109.58,298.69l-1.86,5.41-4.42-9.7a8.3,8.3,0,0,1,.94-3.29Z" style="fill:#e0e0e0"></path><path d="M107.74,303l3.33,4.7-3.29,3.78a6.46,6.46,0,0,1-1.87-2.55Z" style="fill:#e0e0e0"></path><path d="M114.78,306.78l-.94.4-.23-1.08-3.67,1,7.52,10.71a5.69,5.69,0,0,0,2-1.71,5.39,5.39,0,0,0,.33-.5Z" style="fill:#e0e0e0"></path><path d="M120.89,305.42l-6.11,1.36h0l-.57-.92-.6.24-1-4.7.74.43,0-1.22,6.17,0A26.57,26.57,0,0,1,120.89,305.42Z" style="fill:#e0e0e0"></path><path d="M113.3,300.61l-.93-.3.24,1.09-4-2.32,3.52-8.64a17.3,17.3,0,0,1,3,2.79Z" style="fill:#e0e0e0"></path><path d="M114.87,305.69c0,2.87-1.74,4.19-3.9,2.94s-3.89-4.57-3.89-7.44,1.74-4.19,3.89-2.95S114.87,302.82,114.87,305.69Z" style="fill:#f5f5f5"></path><path d="M181,344l-45.09-26,.05-.43A55.75,55.75,0,0,0,129,293.59c-5.17-9.2-12.87-18.24-23.29-20.56h0c-9.43-1.94-15.41,5.82-16,15-.08.66-.11,1.87-.13,3.12L69.33,279.48c-3.28-17.7-2.34-42.23,1.3-66.09l111.61,64.28C178.59,301.62,177.66,326.24,181,344Z" style="fill:#BA68C8"></path><path d="M181,344l-45.09-26,.05-.43A55.75,55.75,0,0,0,129,293.59c-5.17-9.2-12.87-18.24-23.29-20.56h0c-9.43-1.94-15.41,5.82-16,15-.08.66-.11,1.87-.13,3.12L69.33,279.48c-3.28-17.7-2.34-42.23,1.3-66.09l111.61,64.28C178.59,301.62,177.66,326.24,181,344Z" style="opacity:0.2"></path><polygon points="276.45 223.28 281.26 220.51 169.78 156.15 169.77 156.16 169.76 156.15 70.63 213.38 70.64 213.39 70.63 213.39 182.24 277.67 187.17 274.83 80.5 213.38 169.78 161.83 276.45 223.28" style="fill:#BA68C8"></polygon><polygon points="276.45 223.28 281.26 220.51 169.78 156.15 169.77 156.16 169.76 156.15 70.63 213.38 70.64 213.39 70.63 213.39 182.24 277.67 187.17 274.83 80.5 213.38 169.78 161.83 276.45 223.28" style="fill:#fff;opacity:0.2"></polygon><polygon points="169.78 161.83 165 158.91 75.53 210.56 80.5 213.38 169.78 161.83" style="fill:#455a64"></polygon><path d="M84,279.54v13.08L66.21,282.39a5.66,5.66,0,0,1-2.83-4.9V266.86Z" style="fill:#37474f"></path><path d="M84,279.54c-6.9-4-19.43-11.13-19.43-11.13-3.85-2.19,2.94-5.91,2.94-5.91l.06,1.09a3.31,3.31,0,0,0,1.66,2.7l18.85,10.92Z" style="fill:#455a64"></path><polygon points="88.07 277.21 88.07 290.27 83.99 292.62 83.99 279.55 88.07 277.21" style="fill:#263238"></polygon><path d="M67.39,248.53c3.23,2.16,6.4,3.94,8.49,5.06a4.74,4.74,0,0,1,2.49,4.16v6.44a.86.86,0,0,1-1.28.75c-2.58-1.45-8.32-4.66-9.7-5.54C65.6,258.26,65.65,247.41,67.39,248.53Z" style="fill:#BA68C8"></path><path d="M67.39,248.53c3.23,2.16,6.4,3.94,8.49,5.06a4.74,4.74,0,0,1,2.49,4.16v6.44a.86.86,0,0,1-1.28.75c-2.58-1.45-8.32-4.66-9.7-5.54C65.6,258.26,65.65,247.41,67.39,248.53Z" style="fill:#fff;opacity:0.8"></path><path d="M298.31,373.64h0l-13.48-7.79-14.24,8.25-.06,20.12h0V399l1.91-1.1,2-1.14,6.41-3.7,3-1.74,4-2.29,2.62-1.51,3.33-3.12.59-.56,2.62-2.44.91-.86,4.74-4.44Z" style="fill:#263238"></path><path d="M283.77,390.86l-4.59-9.14,10.94-6.33h0c3.48-2,8.11-1.78,13.2,1.16,10.81,6.24,19.57,22.34,19.57,35.95,0,7.13-2.4,12.16-6.24,14.44h0l-.15.09h0l-11.21,6.48-4.86-9.64C291.22,416.86,284.13,403,283.77,390.86Z" style="fill:#37474f"></path><path d="M283.77,390.86l-4.59-9.14,10.94-6.33h0c3.48-2,8.11-1.78,13.2,1.16,10.81,6.24,19.57,22.34,19.57,35.95,0,7.13-2.4,12.16-6.24,14.44h0l-.15.09h0l-11.21,6.48-4.86-9.64C291.22,416.86,284.13,403,283.77,390.86Z" style="fill:#263238"></path><path d="M272.37,396.48c0,11.73,6.52,25.32,15.24,32.83a.05.05,0,0,1,0,0,29.05,29.05,0,0,0,4.3,3.07c10.81,6.25,19.57.27,19.57-13.35,0-10.28-5-22-12.11-29.79l-.06-.06a31.59,31.59,0,0,0-7.4-6.09C281.13,376.89,272.37,382.86,272.37,396.48Z" style="fill:#37474f"></path><path d="M272.37,396.48c0,11.73,6.52,25.32,15.24,32.83a55.44,55.44,0,0,1-12.41-24c-1.66-7.85-1-19.12,5.7-22s15.63,3.15,18.44,5.88a31.59,31.59,0,0,0-7.4-6.09C281.13,376.89,272.37,382.86,272.37,396.48Z" style="fill:#455a64"></path><path d="M291.94,391.17c-6.88-4-12.46.25-12.46,9.42s5.58,19.82,12.46,23.79,12.45-.24,12.45-9.41S298.81,395.14,291.94,391.17Zm0,30.35c-5.69-3.29-10.31-12.1-10.31-19.69s4.62-11.08,10.31-7.79,10.3,12.1,10.3,19.69S297.63,424.8,291.94,421.52Z" style="fill:#f5f5f5"></path><path d="M302.24,413.73a11.27,11.27,0,0,1-1.82,6.73c-1.85,2.53-4.95,3.09-8.48,1.06-5.7-3.29-10.31-12.1-10.31-19.69,0-5.3,2.26-8.6,5.55-9a7.74,7.74,0,0,1,4.76,1.19C297.63,397.32,302.24,406.14,302.24,413.73Z" style="fill:#e0e0e0"></path><path d="M302.24,413.73a11.27,11.27,0,0,1-1.82,6.73c-1.85,2.53-4.95,3.09-8.48,1.06-5.7-3.29-10.31-12.1-10.31-19.69,0-5.3,2.26-8.6,5.55-9a7.74,7.74,0,0,1,4.76,1.19C297.63,397.32,302.24,406.14,302.24,413.73Z" style="opacity:0.4"></path><path d="M302.24,413.73a11.27,11.27,0,0,1-1.82,6.73,7.68,7.68,0,0,1-4.76-1.19c-5.69-3.27-10.3-12.09-10.3-19.68a11.28,11.28,0,0,1,1.82-6.74,7.74,7.74,0,0,1,4.76,1.19C297.63,397.32,302.24,406.14,302.24,413.73Z" style="fill:#263238"></path><path d="M290.54,403l-1.86,5.41-4.42-9.69a8.34,8.34,0,0,1,.94-3.3Z" style="fill:#e0e0e0"></path><path d="M288.7,407.3,292,412l-3.3,3.78a6.43,6.43,0,0,1-1.86-2.55Z" style="fill:#e0e0e0"></path><path d="M295.74,411.12l-.94.4-.23-1.08-3.67,1,7.52,10.71a5.6,5.6,0,0,0,2-1.71c.12-.16.23-.33.34-.5Z" style="fill:#e0e0e0"></path><path d="M301.85,409.76l-6.11,1.36h0l-.57-.91-.6.23-1-4.7.74.43-.05-1.22,6.18,0A26.53,26.53,0,0,1,301.85,409.76Z" style="fill:#e0e0e0"></path><path d="M294.26,405l-.93-.3.24,1.09-4-2.32,3.53-8.64a17.62,17.62,0,0,1,3,2.79Z" style="fill:#e0e0e0"></path><path d="M295.83,410c0,2.87-1.74,4.19-3.89,2.94s-3.9-4.57-3.9-7.44,1.74-4.19,3.9-2.95S295.83,407.16,295.83,410Z" style="fill:#f5f5f5"></path><path d="M429.31,335.34a42.3,42.3,0,0,1-8.08,10.76c-4.6,4.58-11,9.42-19.66,14.44-50.22,29-73.05,15.8-115.81-8.9-8.42-4.86-17.67-10.56-27.08-16.57l-.78-.49-1.39-.9-2.18-1.4-2.11-1.37c-4.74-3.07-9.49-6.2-14.16-9.31l-1.23-.82c-.52-.35-1-.7-1.57-1-27.69-18.53-39-28.47-42.65-31.11l-.07-.05-.22-.16,15,9.33,8.41,5.24,24.77,16h0l15.12,9.43-.91-3.33-.34-41.49a15.83,15.83,0,0,0-3.79-7,2.27,2.27,0,0,0-.31-.31,31.29,31.29,0,0,0-6.15-4.09c-7.2-4.13-30.54-17.15-52-29.35L190,241.67,259.42,195a14,14,0,0,1,14.59-.63c25.73,14.23,59.49,32.57,65,37.31.63.55,11.58,15.2,20,23.89,9.28,9.54,19,19.85,20.07,21.4,7,4.65,32.25,21.11,45.84,31.56.44.34.9.81,1.55,1.4a11.68,11.68,0,0,1,2.3,2.9C432.9,320,433.72,326.51,429.31,335.34Z" style="fill:#BA68C8"></path><path d="M429.31,335.34a42.3,42.3,0,0,1-8.08,10.76c-4.6,4.58-11,9.42-19.66,14.44-50.22,29-73.05,15.8-115.81-8.9-8.42-4.86-17.67-10.56-27.08-16.57l-.78-.49-1.39-.9-2.18-1.4-2.11-1.37c-4.74-3.07-9.49-6.2-14.16-9.31l-1.23-.82c-.52-.35-1-.7-1.57-1-27.69-18.53-39-28.47-42.65-31.11l-.07-.05-.22-.16,15,9.33,8.41,5.24,24.77,16h0l15.12,9.43-.91-3.33-.34-41.49a15.83,15.83,0,0,0-3.79-7,2.27,2.27,0,0,0-.31-.31,31.29,31.29,0,0,0-6.15-4.09c-7.2-4.13-30.54-17.15-52-29.35L190,241.67,259.42,195a14,14,0,0,1,14.59-.63c25.73,14.23,59.49,32.57,65,37.31.63.55,11.58,15.2,20,23.89,9.28,9.54,19,19.85,20.07,21.4,7,4.65,32.25,21.11,45.84,31.56.44.34.9.81,1.55,1.4a11.68,11.68,0,0,1,2.3,2.9C432.9,320,433.72,326.51,429.31,335.34Z" style="fill:#fff;opacity:0.2"></path><path d="M410.42,336.43c-1.85-2.14-3.68-4.28-5.63-6.35a100.86,100.86,0,0,0-8.72-8.45c-4.25-3.74-8.63-7.34-13.17-10.71-2.28-1.68-4.6-3.3-6.94-4.88s-4.75-3.06-7.24-4.42c4.67,3.18,9.19,6.56,13.6,10.05s8.77,7.08,12.93,10.89,4.89,4.18,8.85,8.18,7.79,8.16,11.59,12.33C414,340.84,412.25,338.59,410.42,336.43Zm-35.15,23.83c-1-1.05-2-2.12-3-3.1-2.11-2-4.22-4-6.45-5.85a80.16,80.16,0,0,0-10.3-7.78,146.94,146.94,0,0,0-15.06-8.77c-2.59-1.31-5.23-2.53-7.89-3.69s-5.38-2.18-8.17-3A164,164,0,0,1,340,335.6a173.09,173.09,0,0,1,14.82,9A94,94,0,0,1,365.16,352c4.56,3.56,8.81,7.48,13.09,11.4Z" style="fill:#fff;opacity:0.2"></path><path d="M441.41,369.24a26.93,26.93,0,0,1-.55,5.42c-3.26,15.83-19.65,27.18-33.61,35.16-6.44,3.65-13.24,7.55-19.84,11.3-4.76,2.65-9.49,5.71-14.55,7.73a57.1,57.1,0,0,1-51.64-4.53.24.24,0,0,0-.08-.06l-4.24-2.44a55.88,55.88,0,0,0-6.9-23.89c-5.18-9.2-12.88-18.24-23.3-20.56h0c-9.43-1.94-15.41,5.83-16,15-.08.69-.12,2-.13,3.27L181,344c-5.07-27-.23-70,9-102.28l-.22-.13a1.06,1.06,0,0,0,.21.11c20,11.74,37.46,21,50.44,28.48,3.75,2.17,7.9,4.18,9.87,6.2a12.53,12.53,0,0,1,3.11,4.53h0a22.45,22.45,0,0,1,1,2.77c2.71,9.44.21,41.54,1.25,44.82L240.51,319h0c-15.37-9.59-33.12-21.26-48.16-30.61l.22.16c2.58,2.06,38.1,28.63,59.68,42.33h0c1.42.94,2.85,1.86,4.27,2.77,9.88,6.35,20.24,12.76,29.25,18,42.75,24.7,65.58,37.87,115.81,8.89,9.81-5.78,15.81-10.28,21.37-16.22a46,46,0,0,0,3.73-4.6c.14-.18.27-.37.39-.56,5.33-7.64,6.55-16.66,2.55-24.24-.11-.25-.25-.5-.39-.75-.24-.45-.5-.88-.76-1.28h0c-.15-.26-.31-.49-.47-.72l0,0a24.66,24.66,0,0,0-3-3.61c1,.75,2,1.55,3,2.31s1.64,1.33,2.37,2l.74.68.51.51.17.17a32.38,32.38,0,0,1,3.53,4.47c.1.18.2.34.3.5a2.9,2.9,0,0,1,.19.29c3.55,5.78,5.25,12.59,5.61,20.22v0C441.48,340.75,441.43,367.39,441.41,369.24Z" style="fill:#BA68C8"></path><path d="M441.41,369.24a26.93,26.93,0,0,1-.55,5.42c-3.26,15.83-19.65,27.18-33.61,35.16-6.44,3.65-13.24,7.55-19.84,11.3-4.76,2.65-9.49,5.71-14.55,7.73a57.1,57.1,0,0,1-51.64-4.53.24.24,0,0,0-.08-.06l-4.24-2.44a55.88,55.88,0,0,0-6.9-23.89c-5.18-9.2-12.88-18.24-23.3-20.56h0c-9.43-1.94-15.41,5.83-16,15-.08.69-.12,2-.13,3.27L181,344c-5.07-27-.23-70,9-102.28l-.22-.13a1.06,1.06,0,0,0,.21.11c20,11.74,37.46,21,50.44,28.48,3.75,2.17,7.9,4.18,9.87,6.2a12.53,12.53,0,0,1,3.11,4.53h0a22.45,22.45,0,0,1,1,2.77c2.71,9.44.21,41.54,1.25,44.82L240.51,319h0c-15.37-9.59-33.12-21.26-48.16-30.61l.22.16c2.58,2.06,38.1,28.63,59.68,42.33h0c1.42.94,2.85,1.86,4.27,2.77,9.88,6.35,20.24,12.76,29.25,18,42.75,24.7,65.58,37.87,115.81,8.89,9.81-5.78,15.81-10.28,21.37-16.22a46,46,0,0,0,3.73-4.6c.14-.18.27-.37.39-.56,5.33-7.64,6.55-16.66,2.55-24.24-.11-.25-.25-.5-.39-.75-.24-.45-.5-.88-.76-1.28h0c-.15-.26-.31-.49-.47-.72l0,0a24.66,24.66,0,0,0-3-3.61c1,.75,2,1.55,3,2.31s1.64,1.33,2.37,2l.74.68.51.51.17.17a32.38,32.38,0,0,1,3.53,4.47c.1.18.2.34.3.5a2.9,2.9,0,0,1,.19.29c3.55,5.78,5.25,12.59,5.61,20.22v0C441.48,340.75,441.43,367.39,441.41,369.24Z" style="opacity:0.05"></path><g style="opacity:0.30000000000000004"><path d="M181.94,279.7c-2.1,20.48-3.67,41.17-1.39,61.7-3.73-20.36-2.15-41.42,1.39-61.7Z"></path></g><g style="opacity:0.30000000000000004"><path d="M211.7,297.21c-2.1,20.47-3.67,41.16-1.4,61.69-3.72-20.36-2.14-41.42,1.4-61.69Z"></path></g><path d="M282.32,256.29c-5.73-3.6-26.36-15.87-32.26-19.17l-8.87-4.92c-3-1.6-5.95-3.25-8.94-4.82,2.85,1.82,5.75,3.56,8.63,5.34l8.7,5.22C255.39,241.41,276.33,253.14,282.32,256.29ZM302.4,244.7c-5.73-3.61-26.35-15.87-32.27-19.18l-8.87-4.92c-3-1.6-5.93-3.24-8.93-4.81,2.86,1.82,5.76,3.56,8.63,5.34l8.7,5.22C275.47,229.81,296.41,241.54,302.4,244.7ZM267.25,265c-5.73-3.6-26.35-15.87-32.26-19.17l-8.87-4.93c-3-1.6-5.94-3.24-8.94-4.81,2.86,1.81,5.76,3.56,8.64,5.34l8.7,5.22C240.33,250.11,261.27,261.83,267.25,265Zm50.21-29c-5.72-3.6-26.35-15.88-32.26-19.19l-8.87-4.91c-3-1.6-5.94-3.25-8.94-4.82,2.86,1.82,5.75,3.56,8.64,5.34l8.7,5.22C290.53,221.11,311.48,232.85,317.46,236Z" style="fill:#fff;opacity:0.2"></path><path d="M363.45,260.45h0l.81,3.38c1.87,3.51,6,7.94,7.5,7.57,1.32-.33,2.13-2.26,2.55-4.64v0a24,24,0,0,0,.35-3.46c.13-3.75-1.55-12.51-6.76-14.84a2.7,2.7,0,0,0-3.09.7,6.07,6.07,0,0,0-1.5,2.48C362.44,254.25,363.33,260.31,363.45,260.45Z" style="fill:#455a64"></path><path d="M364.26,263.83c1.87,3.51,6,7.94,7.5,7.57,1.32-.33,2.13-2.26,2.55-4.64v0a24,24,0,0,0,.35-3.46c.13-3.75-1.55-12.51-6.76-14.84a2.7,2.7,0,0,0-3.09.7l.72,1.61c3.64,1.56,4.62,7.18,4.28,11.46S366.35,266,364.26,263.83Z" style="fill:#37474f"></path><path d="M363.32,251.62c1.31-1.4,4.58-1.47,7.33,2.31s3.66,10.28,3.67,12.79a25.36,25.36,0,0,0,.34-3.45c.13-3.76-1.54-12.51-6.75-14.84C365.74,247.46,363.94,249.69,363.32,251.62Z" style="fill:#263238"></path><path d="M272.12,348.58l7.1,4.5a1.13,1.13,0,0,1,.52.9l.16,3.52a.69.69,0,0,1-1.06.62l-7.08-4.42a1.16,1.16,0,0,1-.53-.91l-.18-3.59A.7.7,0,0,1,272.12,348.58Z" style="fill:#BA68C8"></path><g style="opacity:0.2"><path d="M272.12,348.58l7.1,4.5a1.13,1.13,0,0,1,.52.9l.16,3.52a.69.69,0,0,1-1.06.62l-7.08-4.42a1.16,1.16,0,0,1-.53-.91l-.18-3.59A.7.7,0,0,1,272.12,348.58Z" style="fill:#fff"></path></g><path d="M254.38,283.64l1.24,44.82,9.33,5.39a36.15,36.15,0,0,0,32.88,1.68C310.2,330,327.12,322,341,314a269.48,269.48,0,0,0,37.45-26.14,7.43,7.43,0,0,0,.9-10.53c-11.86-15-18.19-25.88-40.35-45.62,8,6.94-15.9,20.79-32.64,30.44s-37.09,21.42-47.68,21.73A27.59,27.59,0,0,1,254.38,283.64Z" style="fill:#37474f"></path><path d="M265,333.85l-9.33-5.39L186.7,285c0-6.49,3.67-27.39,6-33.4v0c10.17,5.87,18.63,10.77,30.86,17.82,13.87,8,22.07,13.22,30.86,14.29Z" style="fill:#263238"></path><path d="M258.66,283.84a20.59,20.59,0,0,0,3.44-.45c-.67,2.42-2.67,4-.48,13.25,8.32,34.95,8.39,39.43,12.71,41a36.43,36.43,0,0,1-9.38-3.77l-10.57-50.21A27.59,27.59,0,0,0,258.66,283.84Z"></path><path d="M215.64,303.22l-8.3-5.24,4.56-35.34,5.9,3.41Z"></path><path d="M338.94,239.07c7.9,5,9.36,12,17.1,20.72,9,10.09,13,19.39.52,11.6-9.7-6.07-21.34-13.9-31.79-20.41C331,246.88,336.35,242.72,338.94,239.07Z" style="fill:#455a64"></path><path d="M440.87,374.66c-.51.52-1.07,1.08-1.67,1.66-1.44,1.4-3.14,3-5.05,4.62l-.88.76c-2.33,2-5,4.14-7.81,6.33-.71.55-1.44,1.11-2.19,1.67-2.21,1.68-4.54,3.38-7,5.07-.85.59-1.73,1.19-2.61,1.78-1.06.72-2.15,1.44-3.24,2.15s-2.2,1.42-3.32,2.12-2.23,1.39-3.37,2.06-2.27,1.35-3.42,2c-23.21,13.19-37.54,20.54-49,20.34l-1.61,0-.62,0c-1.19,0-2.46-.09-3.8-.21l-1.07-.11-.79-.1-.58-.07-1-.16-.86-.15-.86-.17c-1-.23-2.13-.5-3.25-.83l-1-.3a46.39,46.39,0,0,1-5.69-2.25l-.78-.38a62.46,62.46,0,0,1-6.84-3.9l-1.37-.91v13.07c13.75,9.37,23,9.46,30.12,9.6,11.45.23,25.78-7.14,49-20.33,17.41-9.88,33.61-23.06,40.55-30.26l.07-.08a12.86,12.86,0,0,0,3.49-8.89v-8.94C444.45,370.55,443.16,372.28,440.87,374.66Z" style="fill:#37474f"></path><path d="M321.23,415.61c13.75,9.37,23,9.46,30.12,9.61,11.44.21,25.78-7.15,49-20.34s44.1-32,44.1-35.1v0c0-5.29-3-6-3-6v3.93s-10.23,12.6-37,29.25C376.66,414.17,364,420.67,350,420.67s-24.71-7.95-24.71-7.95Z" style="fill:#455a64"></path><path d="M368.16,379.69l7.46,7.57a6.75,6.75,0,0,0,7.32,1.54,148,148,0,0,0,22.35-11.56,139.73,139.73,0,0,0,18.58-13.36,9.79,9.79,0,0,0,3.31-7.14l.24-11.7a.48.48,0,0,0-.85-.31c-4.51,5.75-11.61,12-22.41,18.73-13.21,8.18-24.91,13.08-35.77,15.43A.48.48,0,0,0,368.16,379.69Z" style="fill:#37474f"></path><path d="M427.5,371.74a.62.62,0,0,0-.87,0c-11,11.76-33.82,24.57-48.26,29.15a.61.61,0,0,0,.21,1.19.58.58,0,0,0,.18,0c14.59-4.63,37.66-17.57,48.77-29.48A.63.63,0,0,0,427.5,371.74Zm-.16-4.89a.63.63,0,0,0-.87,0c-11,11.77-33.81,24.58-48.26,29.14a.63.63,0,0,0-.39.78.6.6,0,0,0,.61.43l.17,0c14.59-4.63,37.67-17.57,48.77-29.49A.62.62,0,0,0,427.34,366.85Z" style="fill:#e0e0e0"></path><path d="M366.36,382.59a7,7,0,0,0-5.94-2.71c-8,.43-21-.21-29.39-3.09-9.72-3.36-11.53-3.69-10,1.68s6,12.59,14.51,14.48c15.24,3.4,27.65,2.43,33.95-.17C372.7,391.47,369.13,386.17,366.36,382.59Z" style="fill:#BA68C8"></path><path d="M366.36,382.59a7,7,0,0,0-5.94-2.71c-8,.43-21-.21-29.39-3.09-9.72-3.36-11.53-3.69-10,1.68s6,12.59,14.51,14.48c15.24,3.4,27.65,2.43,33.95-.17C372.7,391.47,369.13,386.17,366.36,382.59Z" style="fill:#fff;opacity:0.8"></path><path d="M335.58,393c-8.52-1.89-12.95-9.12-14.51-14.48-1.48-5.06.05-5.06,8.36-2.23,3,6.53,7.24,12.53,13.2,16.48,1,.65,2,1.26,3,1.91A91.24,91.24,0,0,1,335.58,393Z" style="fill:#fff"></path><path d="M429.91,343.46a11.17,11.17,0,0,1,1.53-5.46,29.32,29.32,0,0,0,3.64-15.15c-.35-5.94,2.22-4.77,3.62-2.43s5,10.82,2.71,18.92c-1.88,6.75-7,13.66-10.38,17.45a1,1,0,0,1-1.66-.68C429.56,352.92,429.86,347.43,429.91,343.46Z" style="fill:#BA68C8"></path><path d="M429.91,343.46a11.17,11.17,0,0,1,1.53-5.46,29.32,29.32,0,0,0,3.64-15.15c-.35-5.94,2.22-4.77,3.62-2.43s5,10.82,2.71,18.92c-1.88,6.75-7,13.66-10.38,17.45a1,1,0,0,1-1.66-.68C429.56,352.92,429.86,347.43,429.91,343.46Z" style="fill:#fff;opacity:0.8"></path><path d="M353.66,401.78c-5.84-1.51-15-2.65-18.47-.31-2.36,1.56.3,5.88,1.55,7.3a13.12,13.12,0,0,0,6.87,4,22,22,0,0,0,10.59-.6C364.72,409.46,365.22,404.76,353.66,401.78ZM440.35,350l-.17.17a22.66,22.66,0,0,0-4.45,6.42,14.8,14.8,0,0,0-1.49,6.57,3.6,3.6,0,0,0,.38,1.81c.68,1.14,2,.68,3,.24a7.24,7.24,0,0,0,1.41-.85,12.25,12.25,0,0,0,1.12-.9,12.68,12.68,0,0,0,1.23-1.2c2-2.15,2.19-13.43,0-13.25C441.06,349.31,440.72,349.67,440.35,350Z" style="fill:#f0f0f0"></path><path d="M233.82,326.21c1.67,8,10.51,9.66,17.12,9.46,3.51-.1,6.39-.74,7.27-1.25,2.56-1.47,1.38-4.53,0-6.3-2.31-3-12.71-9-19.24-9.23C235.16,318.76,232.65,320.62,233.82,326.21Z" style="fill:#455a64"></path><path d="M233.82,326.21c1.67,8,10.51,9.66,17.12,9.46,3.51-.1,6.39-.74,7.27-1.25,2.56-1.47,1.38-4.53,0-6.3,1.29,2.43-5.52,3.94-11.59,1.76S236,323,239,318.89C235.16,318.76,232.65,320.62,233.82,326.21Z" style="fill:#37474f"></path><path d="M233.82,326.21c1.67,8,10.51,9.66,17.12,9.46-6.58-.19-11.83-4-13.81-8.12s-.48-8.14,1.85-8.66C235.16,318.76,232.65,320.62,233.82,326.21Z" style="fill:#263238"></path><polygon points="270.53 395.65 270.54 399.01 263.95 402.82 263.95 399.45 270.53 395.65" style="fill:#263238"></polygon><polygon points="129.29 325.07 263.95 402.82 263.95 399.45 129.29 321.7 129.29 325.07" style="fill:#37474f"></polygon><polygon points="135.89 317.91 129.29 321.7 263.95 399.45 270.53 395.65 135.89 317.91" style="fill:#455a64"></polygon></g></g></svg>
